<mxfile host="app.diagrams.net" modified="2023-08-20T13:46:05.135Z" agent="Mozilla/5.0 (Windows NT 10.0; Win64; x64) AppleWebKit/537.36 (KHTML, like Gecko) Chrome/115.0.0.0 Safari/537.36 Edg/115.0.1901.203" etag="UsZmR5J0dfUFHeE6VWVD" version="21.6.5" type="device">
  <diagram id="C5RBs43oDa-KdzZeNtuy" name="Page-1">
    <mxGraphModel dx="1489" dy="1939" grid="1" gridSize="10" guides="1" tooltips="1" connect="1" arrows="1" fold="1" page="1" pageScale="1" pageWidth="827" pageHeight="1169" math="0" shadow="0">
      <root>
        <mxCell id="WIyWlLk6GJQsqaUBKTNV-0" />
        <mxCell id="WIyWlLk6GJQsqaUBKTNV-1" parent="WIyWlLk6GJQsqaUBKTNV-0" />
        <mxCell id="zkfFHV4jXpPFQw0GAbJ--0" value="Person" style="swimlane;fontStyle=2;align=center;verticalAlign=top;childLayout=stackLayout;horizontal=1;startSize=26;horizontalStack=0;resizeParent=1;resizeLast=0;collapsible=1;marginBottom=0;rounded=0;shadow=0;strokeWidth=1;" parent="WIyWlLk6GJQsqaUBKTNV-1" vertex="1">
          <mxGeometry x="220" y="120" width="160" height="138" as="geometry">
            <mxRectangle x="230" y="140" width="160" height="26" as="alternateBounds" />
          </mxGeometry>
        </mxCell>
        <mxCell id="zkfFHV4jXpPFQw0GAbJ--1" value="Name" style="text;align=left;verticalAlign=top;spacingLeft=4;spacingRight=4;overflow=hidden;rotatable=0;points=[[0,0.5],[1,0.5]];portConstraint=eastwest;" parent="zkfFHV4jXpPFQw0GAbJ--0" vertex="1">
          <mxGeometry y="26" width="160" height="26" as="geometry" />
        </mxCell>
        <mxCell id="zkfFHV4jXpPFQw0GAbJ--2" value="Phone Number" style="text;align=left;verticalAlign=top;spacingLeft=4;spacingRight=4;overflow=hidden;rotatable=0;points=[[0,0.5],[1,0.5]];portConstraint=eastwest;rounded=0;shadow=0;html=0;" parent="zkfFHV4jXpPFQw0GAbJ--0" vertex="1">
          <mxGeometry y="52" width="160" height="26" as="geometry" />
        </mxCell>
        <mxCell id="zkfFHV4jXpPFQw0GAbJ--3" value="Email Address" style="text;align=left;verticalAlign=top;spacingLeft=4;spacingRight=4;overflow=hidden;rotatable=0;points=[[0,0.5],[1,0.5]];portConstraint=eastwest;rounded=0;shadow=0;html=0;" parent="zkfFHV4jXpPFQw0GAbJ--0" vertex="1">
          <mxGeometry y="78" width="160" height="26" as="geometry" />
        </mxCell>
        <mxCell id="zkfFHV4jXpPFQw0GAbJ--4" value="" style="line;html=1;strokeWidth=1;align=left;verticalAlign=middle;spacingTop=-1;spacingLeft=3;spacingRight=3;rotatable=0;labelPosition=right;points=[];portConstraint=eastwest;" parent="zkfFHV4jXpPFQw0GAbJ--0" vertex="1">
          <mxGeometry y="104" width="160" height="8" as="geometry" />
        </mxCell>
        <mxCell id="zkfFHV4jXpPFQw0GAbJ--5" value="Purchase Parking Pass" style="text;align=left;verticalAlign=top;spacingLeft=4;spacingRight=4;overflow=hidden;rotatable=0;points=[[0,0.5],[1,0.5]];portConstraint=eastwest;" parent="zkfFHV4jXpPFQw0GAbJ--0" vertex="1">
          <mxGeometry y="112" width="160" height="26" as="geometry" />
        </mxCell>
        <mxCell id="zkfFHV4jXpPFQw0GAbJ--6" value="Student" style="swimlane;fontStyle=0;align=center;verticalAlign=top;childLayout=stackLayout;horizontal=1;startSize=26;horizontalStack=0;resizeParent=1;resizeLast=0;collapsible=1;marginBottom=0;rounded=0;shadow=0;strokeWidth=1;" parent="WIyWlLk6GJQsqaUBKTNV-1" vertex="1">
          <mxGeometry x="120" y="360" width="160" height="138" as="geometry">
            <mxRectangle x="130" y="380" width="160" height="26" as="alternateBounds" />
          </mxGeometry>
        </mxCell>
        <mxCell id="zkfFHV4jXpPFQw0GAbJ--7" value="Student Number" style="text;align=left;verticalAlign=top;spacingLeft=4;spacingRight=4;overflow=hidden;rotatable=0;points=[[0,0.5],[1,0.5]];portConstraint=eastwest;" parent="zkfFHV4jXpPFQw0GAbJ--6" vertex="1">
          <mxGeometry y="26" width="160" height="26" as="geometry" />
        </mxCell>
        <mxCell id="zkfFHV4jXpPFQw0GAbJ--8" value="Average Mark" style="text;align=left;verticalAlign=top;spacingLeft=4;spacingRight=4;overflow=hidden;rotatable=0;points=[[0,0.5],[1,0.5]];portConstraint=eastwest;rounded=0;shadow=0;html=0;" parent="zkfFHV4jXpPFQw0GAbJ--6" vertex="1">
          <mxGeometry y="52" width="160" height="26" as="geometry" />
        </mxCell>
        <mxCell id="zkfFHV4jXpPFQw0GAbJ--9" value="" style="line;html=1;strokeWidth=1;align=left;verticalAlign=middle;spacingTop=-1;spacingLeft=3;spacingRight=3;rotatable=0;labelPosition=right;points=[];portConstraint=eastwest;" parent="zkfFHV4jXpPFQw0GAbJ--6" vertex="1">
          <mxGeometry y="78" width="160" height="8" as="geometry" />
        </mxCell>
        <mxCell id="zkfFHV4jXpPFQw0GAbJ--10" value="Is Eligible To Enroll" style="text;align=left;verticalAlign=top;spacingLeft=4;spacingRight=4;overflow=hidden;rotatable=0;points=[[0,0.5],[1,0.5]];portConstraint=eastwest;fontStyle=4" parent="zkfFHV4jXpPFQw0GAbJ--6" vertex="1">
          <mxGeometry y="86" width="160" height="26" as="geometry" />
        </mxCell>
        <mxCell id="zkfFHV4jXpPFQw0GAbJ--11" value="Get Seminars Taken" style="text;align=left;verticalAlign=top;spacingLeft=4;spacingRight=4;overflow=hidden;rotatable=0;points=[[0,0.5],[1,0.5]];portConstraint=eastwest;" parent="zkfFHV4jXpPFQw0GAbJ--6" vertex="1">
          <mxGeometry y="112" width="160" height="26" as="geometry" />
        </mxCell>
        <mxCell id="zkfFHV4jXpPFQw0GAbJ--12" value="" style="endArrow=block;endSize=10;endFill=0;shadow=0;strokeWidth=1;rounded=0;edgeStyle=elbowEdgeStyle;elbow=vertical;" parent="WIyWlLk6GJQsqaUBKTNV-1" source="zkfFHV4jXpPFQw0GAbJ--6" target="zkfFHV4jXpPFQw0GAbJ--0" edge="1">
          <mxGeometry width="160" relative="1" as="geometry">
            <mxPoint x="200" y="203" as="sourcePoint" />
            <mxPoint x="200" y="203" as="targetPoint" />
          </mxGeometry>
        </mxCell>
        <mxCell id="zkfFHV4jXpPFQw0GAbJ--13" value="Professor" style="swimlane;fontStyle=0;align=center;verticalAlign=top;childLayout=stackLayout;horizontal=1;startSize=26;horizontalStack=0;resizeParent=1;resizeLast=0;collapsible=1;marginBottom=0;rounded=0;shadow=0;strokeWidth=1;" parent="WIyWlLk6GJQsqaUBKTNV-1" vertex="1">
          <mxGeometry x="330" y="360" width="160" height="70" as="geometry">
            <mxRectangle x="340" y="380" width="170" height="26" as="alternateBounds" />
          </mxGeometry>
        </mxCell>
        <mxCell id="zkfFHV4jXpPFQw0GAbJ--14" value="Salary" style="text;align=left;verticalAlign=top;spacingLeft=4;spacingRight=4;overflow=hidden;rotatable=0;points=[[0,0.5],[1,0.5]];portConstraint=eastwest;" parent="zkfFHV4jXpPFQw0GAbJ--13" vertex="1">
          <mxGeometry y="26" width="160" height="26" as="geometry" />
        </mxCell>
        <mxCell id="zkfFHV4jXpPFQw0GAbJ--15" value="" style="line;html=1;strokeWidth=1;align=left;verticalAlign=middle;spacingTop=-1;spacingLeft=3;spacingRight=3;rotatable=0;labelPosition=right;points=[];portConstraint=eastwest;" parent="zkfFHV4jXpPFQw0GAbJ--13" vertex="1">
          <mxGeometry y="52" width="160" height="8" as="geometry" />
        </mxCell>
        <mxCell id="zkfFHV4jXpPFQw0GAbJ--16" value="" style="endArrow=block;endSize=10;endFill=0;shadow=0;strokeWidth=1;rounded=0;edgeStyle=elbowEdgeStyle;elbow=vertical;" parent="WIyWlLk6GJQsqaUBKTNV-1" source="zkfFHV4jXpPFQw0GAbJ--13" target="zkfFHV4jXpPFQw0GAbJ--0" edge="1">
          <mxGeometry width="160" relative="1" as="geometry">
            <mxPoint x="210" y="373" as="sourcePoint" />
            <mxPoint x="310" y="271" as="targetPoint" />
          </mxGeometry>
        </mxCell>
        <mxCell id="zkfFHV4jXpPFQw0GAbJ--17" value="Address" style="swimlane;fontStyle=0;align=center;verticalAlign=top;childLayout=stackLayout;horizontal=1;startSize=26;horizontalStack=0;resizeParent=1;resizeLast=0;collapsible=1;marginBottom=0;rounded=0;shadow=0;strokeWidth=1;" parent="WIyWlLk6GJQsqaUBKTNV-1" vertex="1">
          <mxGeometry x="508" y="120" width="160" height="216" as="geometry">
            <mxRectangle x="550" y="140" width="160" height="26" as="alternateBounds" />
          </mxGeometry>
        </mxCell>
        <mxCell id="zkfFHV4jXpPFQw0GAbJ--18" value="Street" style="text;align=left;verticalAlign=top;spacingLeft=4;spacingRight=4;overflow=hidden;rotatable=0;points=[[0,0.5],[1,0.5]];portConstraint=eastwest;" parent="zkfFHV4jXpPFQw0GAbJ--17" vertex="1">
          <mxGeometry y="26" width="160" height="26" as="geometry" />
        </mxCell>
        <mxCell id="zkfFHV4jXpPFQw0GAbJ--19" value="City" style="text;align=left;verticalAlign=top;spacingLeft=4;spacingRight=4;overflow=hidden;rotatable=0;points=[[0,0.5],[1,0.5]];portConstraint=eastwest;rounded=0;shadow=0;html=0;" parent="zkfFHV4jXpPFQw0GAbJ--17" vertex="1">
          <mxGeometry y="52" width="160" height="26" as="geometry" />
        </mxCell>
        <mxCell id="zkfFHV4jXpPFQw0GAbJ--20" value="State" style="text;align=left;verticalAlign=top;spacingLeft=4;spacingRight=4;overflow=hidden;rotatable=0;points=[[0,0.5],[1,0.5]];portConstraint=eastwest;rounded=0;shadow=0;html=0;" parent="zkfFHV4jXpPFQw0GAbJ--17" vertex="1">
          <mxGeometry y="78" width="160" height="26" as="geometry" />
        </mxCell>
        <mxCell id="zkfFHV4jXpPFQw0GAbJ--21" value="Postal Code" style="text;align=left;verticalAlign=top;spacingLeft=4;spacingRight=4;overflow=hidden;rotatable=0;points=[[0,0.5],[1,0.5]];portConstraint=eastwest;rounded=0;shadow=0;html=0;" parent="zkfFHV4jXpPFQw0GAbJ--17" vertex="1">
          <mxGeometry y="104" width="160" height="26" as="geometry" />
        </mxCell>
        <mxCell id="zkfFHV4jXpPFQw0GAbJ--22" value="Country" style="text;align=left;verticalAlign=top;spacingLeft=4;spacingRight=4;overflow=hidden;rotatable=0;points=[[0,0.5],[1,0.5]];portConstraint=eastwest;rounded=0;shadow=0;html=0;" parent="zkfFHV4jXpPFQw0GAbJ--17" vertex="1">
          <mxGeometry y="130" width="160" height="26" as="geometry" />
        </mxCell>
        <mxCell id="zkfFHV4jXpPFQw0GAbJ--23" value="" style="line;html=1;strokeWidth=1;align=left;verticalAlign=middle;spacingTop=-1;spacingLeft=3;spacingRight=3;rotatable=0;labelPosition=right;points=[];portConstraint=eastwest;" parent="zkfFHV4jXpPFQw0GAbJ--17" vertex="1">
          <mxGeometry y="156" width="160" height="8" as="geometry" />
        </mxCell>
        <mxCell id="zkfFHV4jXpPFQw0GAbJ--24" value="Validate" style="text;align=left;verticalAlign=top;spacingLeft=4;spacingRight=4;overflow=hidden;rotatable=0;points=[[0,0.5],[1,0.5]];portConstraint=eastwest;" parent="zkfFHV4jXpPFQw0GAbJ--17" vertex="1">
          <mxGeometry y="164" width="160" height="26" as="geometry" />
        </mxCell>
        <mxCell id="zkfFHV4jXpPFQw0GAbJ--25" value="Output As Label" style="text;align=left;verticalAlign=top;spacingLeft=4;spacingRight=4;overflow=hidden;rotatable=0;points=[[0,0.5],[1,0.5]];portConstraint=eastwest;" parent="zkfFHV4jXpPFQw0GAbJ--17" vertex="1">
          <mxGeometry y="190" width="160" height="26" as="geometry" />
        </mxCell>
        <mxCell id="zkfFHV4jXpPFQw0GAbJ--26" value="" style="endArrow=open;shadow=0;strokeWidth=1;rounded=0;endFill=1;edgeStyle=elbowEdgeStyle;elbow=vertical;" parent="WIyWlLk6GJQsqaUBKTNV-1" source="zkfFHV4jXpPFQw0GAbJ--0" target="zkfFHV4jXpPFQw0GAbJ--17" edge="1">
          <mxGeometry x="0.5" y="41" relative="1" as="geometry">
            <mxPoint x="380" y="192" as="sourcePoint" />
            <mxPoint x="540" y="192" as="targetPoint" />
            <mxPoint x="-40" y="32" as="offset" />
          </mxGeometry>
        </mxCell>
        <mxCell id="zkfFHV4jXpPFQw0GAbJ--27" value="0..1" style="resizable=0;align=left;verticalAlign=bottom;labelBackgroundColor=none;fontSize=12;" parent="zkfFHV4jXpPFQw0GAbJ--26" connectable="0" vertex="1">
          <mxGeometry x="-1" relative="1" as="geometry">
            <mxPoint y="4" as="offset" />
          </mxGeometry>
        </mxCell>
        <mxCell id="zkfFHV4jXpPFQw0GAbJ--28" value="1" style="resizable=0;align=right;verticalAlign=bottom;labelBackgroundColor=none;fontSize=12;" parent="zkfFHV4jXpPFQw0GAbJ--26" connectable="0" vertex="1">
          <mxGeometry x="1" relative="1" as="geometry">
            <mxPoint x="-7" y="4" as="offset" />
          </mxGeometry>
        </mxCell>
        <mxCell id="zkfFHV4jXpPFQw0GAbJ--29" value="lives at" style="text;html=1;resizable=0;points=[];;align=center;verticalAlign=middle;labelBackgroundColor=none;rounded=0;shadow=0;strokeWidth=1;fontSize=12;" parent="zkfFHV4jXpPFQw0GAbJ--26" vertex="1" connectable="0">
          <mxGeometry x="0.5" y="49" relative="1" as="geometry">
            <mxPoint x="-38" y="40" as="offset" />
          </mxGeometry>
        </mxCell>
        <UserObject label="" plantUmlData="{&#xa;  &quot;data&quot;: &quot;@startuml\n\nclass MainApp {\n}\n\nclass JAWSGame {\n}\n\nclass SharkField {\n}\n\nclass Counter {\n}\n\nclass TimeCounter {\n}\n\nclass Tile {\n}\n\nclass SharkTile {\n}\n\nclass VacantTile {\n}\n\nclass NumberOfTile {\n}\n\nclass MainController {\n}\n\nclass BarController {\n}\n\nclass mainMenuController {\n}\n\nMainApp --&gt; MainController\nMainApp --&gt; BarController\nMainApp --&gt; JAWSGame\n\nJAWSGame --&gt; SharkField\nJAWSGame --&gt; Counter\nJAWSGame --&gt; TimeCounter\n\nSharkField --&gt; Tile\nJAWSGame --&gt; Counter\nCounter &lt;|-- TimeCounter\n\nTile &lt;|-- SharkTile\nTile &lt;|-- VacantTile\nTile &lt;|-- NumberOfTile\n\nMainController --&gt; JAWSGame\nBarController --&gt; MainApp\nmainMenuController --&gt; MainApp\n\n@enduml\n&quot;,&#xa;  &quot;format&quot;: &quot;svg&quot;&#xa;}" id="FxuM8H2C9ezcy_0ipnlq-0">
          <mxCell style="shape=image;noLabel=1;verticalAlign=top;aspect=fixed;imageAspect=0;image=data:image/svg+xml,PD94bWwgdmVyc2lvbj0iMS4wIiBlbmNvZGluZz0idXMtYXNjaWkiIHN0YW5kYWxvbmU9Im5vIj8+PHN2ZyB4bWxucz0iaHR0cDovL3d3dy53My5vcmcvMjAwMC9zdmciIHhtbG5zOnhsaW5rPSJodHRwOi8vd3d3LnczLm9yZy8xOTk5L3hsaW5rIiBjb250ZW50U3R5bGVUeXBlPSJ0ZXh0L2NzcyIgaGVpZ2h0PSI3MTBweCIgcHJlc2VydmVBc3BlY3RSYXRpbz0ibm9uZSIgc3R5bGU9IndpZHRoOjYwNXB4O2hlaWdodDo3MTBweDtiYWNrZ3JvdW5kOiNGRkZGRkY7IiB2ZXJzaW9uPSIxLjEiIHZpZXdCb3g9IjAgMCA2MDUgNzEwIiB3aWR0aD0iNjA1cHgiIHpvb21BbmRQYW49Im1hZ25pZnkiPjxkZWZzLz48Zz48IS0tY2xhc3MgTWFpbkFwcC0tPjxnIGlkPSJlbGVtX01haW5BcHAiPjxyZWN0IGNvZGVMaW5lPSIxIiBmaWxsPSIjRjFGMUYxIiBoZWlnaHQ9IjQ4IiBpZD0iTWFpbkFwcCIgcng9IjIuNSIgcnk9IjIuNSIgc3R5bGU9InN0cm9rZTojMTgxODE4O3N0cm9rZS13aWR0aDowLjU7IiB3aWR0aD0iODEiIHg9IjQxNSIgeT0iMTE1Ii8+PGVsbGlwc2UgY3g9IjQzMCIgY3k9IjEzMSIgZmlsbD0iI0FERDFCMiIgcng9IjExIiByeT0iMTEiIHN0eWxlPSJzdHJva2U6IzE4MTgxODtzdHJva2Utd2lkdGg6MS4wOyIvPjxwYXRoIGQ9Ik00MjcuNjI1LDEzNS4yNSBMNDI3LjYyNSwxMzcgTDQzMi41NjI1LDEzNyBMNDMyLjU2MjUsMTM1LjI1IEw0MjcuNjI1LDEzNS4yNSBaIE00MjguMzEyNSwxMzUuOTM3NSBRNDI4LjMxMjUsMTM1LjkzNzUgNDI4LjMxMjUsMTI2Ljc1IEw0MjYuNTYyNSwxMjYuNzUgUTQyNi41NjI1LDEyNi43NSA0MjYuNTYyNSwxMzUuOTM3NSBMNDI4LjMxMjUsMTM1LjkzNzUgWiBNNDMxLjg3NSwxMzUuOTM3NSBMNDMzLjYyNSwxMzUuOTM3NSBRNDMzLjYyNSwxMzUuOTM3NSA0MzMuNjI1LDEzMy4xMjUgTDQzMS44NzUsMTMzLjEyNSBRNDMxLjg3NSwxMzMuMTI1IDQzMS44NzUsMTM1LjkzNzUgWiBNNDMxLjg3NSwxMjYuNzUgUTQzMS44NzUsMTI2Ljc1IDQzMS44NzUsMTI5LjU2MjUgTDQzMy42MjUsMTI5LjU2MjUgUTQzMy42MjUsMTI5LjU2MjUgNDMzLjYyNSwxMjYuNzUgTDQzMS44NzUsMTI2Ljc1IFogTTQyNy42MjUsMTI3LjQzNzUgTDQzMi41NjI1LDEyNy40Mzc1IEw0MzIuNTYyNSwxMjUuNjg3NSBMNDI3LjYyNSwxMjUuNjg3NSBMNDI3LjYyNSwxMjcuNDM3NSBaICIgZmlsbD0iIzAwMDAwMCIvPjx0ZXh0IGZpbGw9IiMwMDAwMDAiIGZvbnQtZmFtaWx5PSJzYW5zLXNlcmlmIiBmb250LXNpemU9IjE0IiBsZW5ndGhBZGp1c3Q9InNwYWNpbmciIHRleHRMZW5ndGg9IjQ5IiB4PSI0NDQiIHk9IjEzNi43NDIyIj5NYWluQXBwPC90ZXh0PjxsaW5lIHN0eWxlPSJzdHJva2U6IzE4MTgxODtzdHJva2Utd2lkdGg6MC41OyIgeDE9IjQxNiIgeDI9IjQ5NSIgeTE9IjE0NyIgeTI9IjE0NyIvPjxsaW5lIHN0eWxlPSJzdHJva2U6IzE4MTgxODtzdHJva2Utd2lkdGg6MC41OyIgeDE9IjQxNiIgeDI9IjQ5NSIgeTE9IjE1NSIgeTI9IjE1NSIvPjwvZz48IS0tY2xhc3MgSkFXU0dhbWUtLT48ZyBpZD0iZWxlbV9KQVdTR2FtZSI+PHJlY3QgY29kZUxpbmU9IjQiIGZpbGw9IiNGMUYxRjEiIGhlaWdodD0iNDgiIGlkPSJKQVdTR2FtZSIgcng9IjIuNSIgcnk9IjIuNSIgc3R5bGU9InN0cm9rZTojMTgxODE4O3N0cm9rZS13aWR0aDowLjU7IiB3aWR0aD0iOTAiIHg9IjI3MC41IiB5PSIzMzEiLz48ZWxsaXBzZSBjeD0iMjg1LjUiIGN5PSIzNDciIGZpbGw9IiNBREQxQjIiIHJ4PSIxMSIgcnk9IjExIiBzdHlsZT0ic3Ryb2tlOiMxODE4MTg7c3Ryb2tlLXdpZHRoOjEuMDsiLz48cGF0aCBkPSJNMjgzLjEyNSwzNTEuMjUgTDI4My4xMjUsMzUzIEwyODguMDYyNSwzNTMgTDI4OC4wNjI1LDM1MS4yNSBMMjgzLjEyNSwzNTEuMjUgWiBNMjgzLjgxMjUsMzUxLjkzNzUgUTI4My44MTI1LDM1MS45Mzc1IDI4My44MTI1LDM0Mi43NSBMMjgyLjA2MjUsMzQyLjc1IFEyODIuMDYyNSwzNDIuNzUgMjgyLjA2MjUsMzUxLjkzNzUgTDI4My44MTI1LDM1MS45Mzc1IFogTTI4Ny4zNzUsMzUxLjkzNzUgTDI4OS4xMjUsMzUxLjkzNzUgUTI4OS4xMjUsMzUxLjkzNzUgMjg5LjEyNSwzNDkuMTI1IEwyODcuMzc1LDM0OS4xMjUgUTI4Ny4zNzUsMzQ5LjEyNSAyODcuMzc1LDM1MS45Mzc1IFogTTI4Ny4zNzUsMzQyLjc1IFEyODcuMzc1LDM0Mi43NSAyODcuMzc1LDM0NS41NjI1IEwyODkuMTI1LDM0NS41NjI1IFEyODkuMTI1LDM0NS41NjI1IDI4OS4xMjUsMzQyLjc1IEwyODcuMzc1LDM0Mi43NSBaIE0yODMuMTI1LDM0My40Mzc1IEwyODguMDYyNSwzNDMuNDM3NSBMMjg4LjA2MjUsMzQxLjY4NzUgTDI4My4xMjUsMzQxLjY4NzUgTDI4My4xMjUsMzQzLjQzNzUgWiAiIGZpbGw9IiMwMDAwMDAiLz48dGV4dCBmaWxsPSIjMDAwMDAwIiBmb250LWZhbWlseT0ic2Fucy1zZXJpZiIgZm9udC1zaXplPSIxNCIgbGVuZ3RoQWRqdXN0PSJzcGFjaW5nIiB0ZXh0TGVuZ3RoPSI1OCIgeD0iMjk5LjUiIHk9IjM1Mi43NDIyIj5KQVdTR2FtZTwvdGV4dD48bGluZSBzdHlsZT0ic3Ryb2tlOiMxODE4MTg7c3Ryb2tlLXdpZHRoOjAuNTsiIHgxPSIyNzEuNSIgeDI9IjM1OS41IiB5MT0iMzYzIiB5Mj0iMzYzIi8+PGxpbmUgc3R5bGU9InN0cm9rZTojMTgxODE4O3N0cm9rZS13aWR0aDowLjU7IiB4MT0iMjcxLjUiIHgyPSIzNTkuNSIgeTE9IjM3MSIgeTI9IjM3MSIvPjwvZz48IS0tY2xhc3MgU2hhcmtGaWVsZC0tPjxnIGlkPSJlbGVtX1NoYXJrRmllbGQiPjxyZWN0IGNvZGVMaW5lPSI3IiBmaWxsPSIjRjFGMUYxIiBoZWlnaHQ9IjQ4IiBpZD0iU2hhcmtGaWVsZCIgcng9IjIuNSIgcnk9IjIuNSIgc3R5bGU9InN0cm9rZTojMTgxODE4O3N0cm9rZS13aWR0aDowLjU7IiB3aWR0aD0iMTAyIiB4PSIxMzcuNSIgeT0iNDM5Ii8+PGVsbGlwc2UgY3g9IjE1Mi41IiBjeT0iNDU1IiBmaWxsPSIjQUREMUIyIiByeD0iMTEiIHJ5PSIxMSIgc3R5bGU9InN0cm9rZTojMTgxODE4O3N0cm9rZS13aWR0aDoxLjA7Ii8+PHBhdGggZD0iTTE1MC4xMjUsNDU5LjI1IEwxNTAuMTI1LDQ2MSBMMTU1LjA2MjUsNDYxIEwxNTUuMDYyNSw0NTkuMjUgTDE1MC4xMjUsNDU5LjI1IFogTTE1MC44MTI1LDQ1OS45Mzc1IFExNTAuODEyNSw0NTkuOTM3NSAxNTAuODEyNSw0NTAuNzUgTDE0OS4wNjI1LDQ1MC43NSBRMTQ5LjA2MjUsNDUwLjc1IDE0OS4wNjI1LDQ1OS45Mzc1IEwxNTAuODEyNSw0NTkuOTM3NSBaIE0xNTQuMzc1LDQ1OS45Mzc1IEwxNTYuMTI1LDQ1OS45Mzc1IFExNTYuMTI1LDQ1OS45Mzc1IDE1Ni4xMjUsNDU3LjEyNSBMMTU0LjM3NSw0NTcuMTI1IFExNTQuMzc1LDQ1Ny4xMjUgMTU0LjM3NSw0NTkuOTM3NSBaIE0xNTQuMzc1LDQ1MC43NSBRMTU0LjM3NSw0NTAuNzUgMTU0LjM3NSw0NTMuNTYyNSBMMTU2LjEyNSw0NTMuNTYyNSBRMTU2LjEyNSw0NTMuNTYyNSAxNTYuMTI1LDQ1MC43NSBMMTU0LjM3NSw0NTAuNzUgWiBNMTUwLjEyNSw0NTEuNDM3NSBMMTU1LjA2MjUsNDUxLjQzNzUgTDE1NS4wNjI1LDQ0OS42ODc1IEwxNTAuMTI1LDQ0OS42ODc1IEwxNTAuMTI1LDQ1MS40Mzc1IFogIiBmaWxsPSIjMDAwMDAwIi8+PHRleHQgZmlsbD0iIzAwMDAwMCIgZm9udC1mYW1pbHk9InNhbnMtc2VyaWYiIGZvbnQtc2l6ZT0iMTQiIGxlbmd0aEFkanVzdD0ic3BhY2luZyIgdGV4dExlbmd0aD0iNzAiIHg9IjE2Ni41IiB5PSI0NjAuNzQyMiI+U2hhcmtGaWVsZDwvdGV4dD48bGluZSBzdHlsZT0ic3Ryb2tlOiMxODE4MTg7c3Ryb2tlLXdpZHRoOjAuNTsiIHgxPSIxMzguNSIgeDI9IjIzOC41IiB5MT0iNDcxIiB5Mj0iNDcxIi8+PGxpbmUgc3R5bGU9InN0cm9rZTojMTgxODE4O3N0cm9rZS13aWR0aDowLjU7IiB4MT0iMTM4LjUiIHgyPSIyMzguNSIgeTE9IjQ3OSIgeTI9IjQ3OSIvPjwvZz48IS0tY2xhc3MgQ291bnRlci0tPjxnIGlkPSJlbGVtX0NvdW50ZXIiPjxyZWN0IGNvZGVMaW5lPSIxMCIgZmlsbD0iI0YxRjFGMSIgaGVpZ2h0PSI0OCIgaWQ9IkNvdW50ZXIiIHJ4PSIyLjUiIHJ5PSIyLjUiIHN0eWxlPSJzdHJva2U6IzE4MTgxODtzdHJva2Utd2lkdGg6MC41OyIgd2lkdGg9IjgxIiB4PSIyNzUiIHk9IjQzOSIvPjxlbGxpcHNlIGN4PSIyOTAiIGN5PSI0NTUiIGZpbGw9IiNBREQxQjIiIHJ4PSIxMSIgcnk9IjExIiBzdHlsZT0ic3Ryb2tlOiMxODE4MTg7c3Ryb2tlLXdpZHRoOjEuMDsiLz48cGF0aCBkPSJNMjg3LjYyNSw0NTkuMjUgTDI4Ny42MjUsNDYxIEwyOTIuNTYyNSw0NjEgTDI5Mi41NjI1LDQ1OS4yNSBMMjg3LjYyNSw0NTkuMjUgWiBNMjg4LjMxMjUsNDU5LjkzNzUgUTI4OC4zMTI1LDQ1OS45Mzc1IDI4OC4zMTI1LDQ1MC43NSBMMjg2LjU2MjUsNDUwLjc1IFEyODYuNTYyNSw0NTAuNzUgMjg2LjU2MjUsNDU5LjkzNzUgTDI4OC4zMTI1LDQ1OS45Mzc1IFogTTI5MS44NzUsNDU5LjkzNzUgTDI5My42MjUsNDU5LjkzNzUgUTI5My42MjUsNDU5LjkzNzUgMjkzLjYyNSw0NTcuMTI1IEwyOTEuODc1LDQ1Ny4xMjUgUTI5MS44NzUsNDU3LjEyNSAyOTEuODc1LDQ1OS45Mzc1IFogTTI5MS44NzUsNDUwLjc1IFEyOTEuODc1LDQ1MC43NSAyOTEuODc1LDQ1My41NjI1IEwyOTMuNjI1LDQ1My41NjI1IFEyOTMuNjI1LDQ1My41NjI1IDI5My42MjUsNDUwLjc1IEwyOTEuODc1LDQ1MC43NSBaIE0yODcuNjI1LDQ1MS40Mzc1IEwyOTIuNTYyNSw0NTEuNDM3NSBMMjkyLjU2MjUsNDQ5LjY4NzUgTDI4Ny42MjUsNDQ5LjY4NzUgTDI4Ny42MjUsNDUxLjQzNzUgWiAiIGZpbGw9IiMwMDAwMDAiLz48dGV4dCBmaWxsPSIjMDAwMDAwIiBmb250LWZhbWlseT0ic2Fucy1zZXJpZiIgZm9udC1zaXplPSIxNCIgbGVuZ3RoQWRqdXN0PSJzcGFjaW5nIiB0ZXh0TGVuZ3RoPSI0OSIgeD0iMzA0IiB5PSI0NjAuNzQyMiI+Q291bnRlcjwvdGV4dD48bGluZSBzdHlsZT0ic3Ryb2tlOiMxODE4MTg7c3Ryb2tlLXdpZHRoOjAuNTsiIHgxPSIyNzYiIHgyPSIzNTUiIHkxPSI0NzEiIHkyPSI0NzEiLz48bGluZSBzdHlsZT0ic3Ryb2tlOiMxODE4MTg7c3Ryb2tlLXdpZHRoOjAuNTsiIHgxPSIyNzYiIHgyPSIzNTUiIHkxPSI0NzkiIHkyPSI0NzkiLz48L2c+PCEtLWNsYXNzIFRpbWVDb3VudGVyLS0+PGcgaWQ9ImVsZW1fVGltZUNvdW50ZXIiPjxyZWN0IGNvZGVMaW5lPSIxMyIgZmlsbD0iI0YxRjFGMSIgaGVpZ2h0PSI0OCIgaWQ9IlRpbWVDb3VudGVyIiByeD0iMi41IiByeT0iMi41IiBzdHlsZT0ic3Ryb2tlOiMxODE4MTg7c3Ryb2tlLXdpZHRoOjAuNTsiIHdpZHRoPSIxMTAiIHg9IjMwNy41IiB5PSI1NDciLz48ZWxsaXBzZSBjeD0iMzIyLjUiIGN5PSI1NjMiIGZpbGw9IiNBREQxQjIiIHJ4PSIxMSIgcnk9IjExIiBzdHlsZT0ic3Ryb2tlOiMxODE4MTg7c3Ryb2tlLXdpZHRoOjEuMDsiLz48cGF0aCBkPSJNMzIwLjEyNSw1NjcuMjUgTDMyMC4xMjUsNTY5IEwzMjUuMDYyNSw1NjkgTDMyNS4wNjI1LDU2Ny4yNSBMMzIwLjEyNSw1NjcuMjUgWiBNMzIwLjgxMjUsNTY3LjkzNzUgUTMyMC44MTI1LDU2Ny45Mzc1IDMyMC44MTI1LDU1OC43NSBMMzE5LjA2MjUsNTU4Ljc1IFEzMTkuMDYyNSw1NTguNzUgMzE5LjA2MjUsNTY3LjkzNzUgTDMyMC44MTI1LDU2Ny45Mzc1IFogTTMyNC4zNzUsNTY3LjkzNzUgTDMyNi4xMjUsNTY3LjkzNzUgUTMyNi4xMjUsNTY3LjkzNzUgMzI2LjEyNSw1NjUuMTI1IEwzMjQuMzc1LDU2NS4xMjUgUTMyNC4zNzUsNTY1LjEyNSAzMjQuMzc1LDU2Ny45Mzc1IFogTTMyNC4zNzUsNTU4Ljc1IFEzMjQuMzc1LDU1OC43NSAzMjQuMzc1LDU2MS41NjI1IEwzMjYuMTI1LDU2MS41NjI1IFEzMjYuMTI1LDU2MS41NjI1IDMyNi4xMjUsNTU4Ljc1IEwzMjQuMzc1LDU1OC43NSBaIE0zMjAuMTI1LDU1OS40Mzc1IEwzMjUuMDYyNSw1NTkuNDM3NSBMMzI1LjA2MjUsNTU3LjY4NzUgTDMyMC4xMjUsNTU3LjY4NzUgTDMyMC4xMjUsNTU5LjQzNzUgWiAiIGZpbGw9IiMwMDAwMDAiLz48dGV4dCBmaWxsPSIjMDAwMDAwIiBmb250LWZhbWlseT0ic2Fucy1zZXJpZiIgZm9udC1zaXplPSIxNCIgbGVuZ3RoQWRqdXN0PSJzcGFjaW5nIiB0ZXh0TGVuZ3RoPSI3OCIgeD0iMzM2LjUiIHk9IjU2OC43NDIyIj5UaW1lQ291bnRlcjwvdGV4dD48bGluZSBzdHlsZT0ic3Ryb2tlOiMxODE4MTg7c3Ryb2tlLXdpZHRoOjAuNTsiIHgxPSIzMDguNSIgeDI9IjQxNi41IiB5MT0iNTc5IiB5Mj0iNTc5Ii8+PGxpbmUgc3R5bGU9InN0cm9rZTojMTgxODE4O3N0cm9rZS13aWR0aDowLjU7IiB4MT0iMzA4LjUiIHgyPSI0MTYuNSIgeTE9IjU4NyIgeTI9IjU4NyIvPjwvZz48IS0tY2xhc3MgVGlsZS0tPjxnIGlkPSJlbGVtX1RpbGUiPjxyZWN0IGNvZGVMaW5lPSIxNiIgZmlsbD0iI0YxRjFGMSIgaGVpZ2h0PSI0OCIgaWQ9IlRpbGUiIHJ4PSIyLjUiIHJ5PSIyLjUiIHN0eWxlPSJzdHJva2U6IzE4MTgxODtzdHJva2Utd2lkdGg6MC41OyIgd2lkdGg9IjYwIiB4PSIxNTguNSIgeT0iNTQ3Ii8+PGVsbGlwc2UgY3g9IjE3My41IiBjeT0iNTYzIiBmaWxsPSIjQUREMUIyIiByeD0iMTEiIHJ5PSIxMSIgc3R5bGU9InN0cm9rZTojMTgxODE4O3N0cm9rZS13aWR0aDoxLjA7Ii8+PHBhdGggZD0iTTE3MS4xMjUsNTY3LjI1IEwxNzEuMTI1LDU2OSBMMTc2LjA2MjUsNTY5IEwxNzYuMDYyNSw1NjcuMjUgTDE3MS4xMjUsNTY3LjI1IFogTTE3MS44MTI1LDU2Ny45Mzc1IFExNzEuODEyNSw1NjcuOTM3NSAxNzEuODEyNSw1NTguNzUgTDE3MC4wNjI1LDU1OC43NSBRMTcwLjA2MjUsNTU4Ljc1IDE3MC4wNjI1LDU2Ny45Mzc1IEwxNzEuODEyNSw1NjcuOTM3NSBaIE0xNzUuMzc1LDU2Ny45Mzc1IEwxNzcuMTI1LDU2Ny45Mzc1IFExNzcuMTI1LDU2Ny45Mzc1IDE3Ny4xMjUsNTY1LjEyNSBMMTc1LjM3NSw1NjUuMTI1IFExNzUuMzc1LDU2NS4xMjUgMTc1LjM3NSw1NjcuOTM3NSBaIE0xNzUuMzc1LDU1OC43NSBRMTc1LjM3NSw1NTguNzUgMTc1LjM3NSw1NjEuNTYyNSBMMTc3LjEyNSw1NjEuNTYyNSBRMTc3LjEyNSw1NjEuNTYyNSAxNzcuMTI1LDU1OC43NSBMMTc1LjM3NSw1NTguNzUgWiBNMTcxLjEyNSw1NTkuNDM3NSBMMTc2LjA2MjUsNTU5LjQzNzUgTDE3Ni4wNjI1LDU1Ny42ODc1IEwxNzEuMTI1LDU1Ny42ODc1IEwxNzEuMTI1LDU1OS40Mzc1IFogIiBmaWxsPSIjMDAwMDAwIi8+PHRleHQgZmlsbD0iIzAwMDAwMCIgZm9udC1mYW1pbHk9InNhbnMtc2VyaWYiIGZvbnQtc2l6ZT0iMTQiIGxlbmd0aEFkanVzdD0ic3BhY2luZyIgdGV4dExlbmd0aD0iMjgiIHg9IjE4Ny41IiB5PSI1NjguNzQyMiI+VGlsZTwvdGV4dD48bGluZSBzdHlsZT0ic3Ryb2tlOiMxODE4MTg7c3Ryb2tlLXdpZHRoOjAuNTsiIHgxPSIxNTkuNSIgeDI9IjIxNy41IiB5MT0iNTc5IiB5Mj0iNTc5Ii8+PGxpbmUgc3R5bGU9InN0cm9rZTojMTgxODE4O3N0cm9rZS13aWR0aDowLjU7IiB4MT0iMTU5LjUiIHgyPSIyMTcuNSIgeTE9IjU4NyIgeTI9IjU4NyIvPjwvZz48IS0tY2xhc3MgU2hhcmtUaWxlLS0+PGcgaWQ9ImVsZW1fU2hhcmtUaWxlIj48cmVjdCBjb2RlTGluZT0iMTkiIGZpbGw9IiNGMUYxRjEiIGhlaWdodD0iNDgiIGlkPSJTaGFya1RpbGUiIHJ4PSIyLjUiIHJ5PSIyLjUiIHN0eWxlPSJzdHJva2U6IzE4MTgxODtzdHJva2Utd2lkdGg6MC41OyIgd2lkdGg9Ijk1IiB4PSI3IiB5PSI2NTUiLz48ZWxsaXBzZSBjeD0iMjIiIGN5PSI2NzEiIGZpbGw9IiNBREQxQjIiIHJ4PSIxMSIgcnk9IjExIiBzdHlsZT0ic3Ryb2tlOiMxODE4MTg7c3Ryb2tlLXdpZHRoOjEuMDsiLz48cGF0aCBkPSJNMTkuNjI1LDY3NS4yNSBMMTkuNjI1LDY3NyBMMjQuNTYyNSw2NzcgTDI0LjU2MjUsNjc1LjI1IEwxOS42MjUsNjc1LjI1IFogTTIwLjMxMjUsNjc1LjkzNzUgUTIwLjMxMjUsNjc1LjkzNzUgMjAuMzEyNSw2NjYuNzUgTDE4LjU2MjUsNjY2Ljc1IFExOC41NjI1LDY2Ni43NSAxOC41NjI1LDY3NS45Mzc1IEwyMC4zMTI1LDY3NS45Mzc1IFogTTIzLjg3NSw2NzUuOTM3NSBMMjUuNjI1LDY3NS45Mzc1IFEyNS42MjUsNjc1LjkzNzUgMjUuNjI1LDY3My4xMjUgTDIzLjg3NSw2NzMuMTI1IFEyMy44NzUsNjczLjEyNSAyMy44NzUsNjc1LjkzNzUgWiBNMjMuODc1LDY2Ni43NSBRMjMuODc1LDY2Ni43NSAyMy44NzUsNjY5LjU2MjUgTDI1LjYyNSw2NjkuNTYyNSBRMjUuNjI1LDY2OS41NjI1IDI1LjYyNSw2NjYuNzUgTDIzLjg3NSw2NjYuNzUgWiBNMTkuNjI1LDY2Ny40Mzc1IEwyNC41NjI1LDY2Ny40Mzc1IEwyNC41NjI1LDY2NS42ODc1IEwxOS42MjUsNjY1LjY4NzUgTDE5LjYyNSw2NjcuNDM3NSBaICIgZmlsbD0iIzAwMDAwMCIvPjx0ZXh0IGZpbGw9IiMwMDAwMDAiIGZvbnQtZmFtaWx5PSJzYW5zLXNlcmlmIiBmb250LXNpemU9IjE0IiBsZW5ndGhBZGp1c3Q9InNwYWNpbmciIHRleHRMZW5ndGg9IjYzIiB4PSIzNiIgeT0iNjc2Ljc0MjIiPlNoYXJrVGlsZTwvdGV4dD48bGluZSBzdHlsZT0ic3Ryb2tlOiMxODE4MTg7c3Ryb2tlLXdpZHRoOjAuNTsiIHgxPSI4IiB4Mj0iMTAxIiB5MT0iNjg3IiB5Mj0iNjg3Ii8+PGxpbmUgc3R5bGU9InN0cm9rZTojMTgxODE4O3N0cm9rZS13aWR0aDowLjU7IiB4MT0iOCIgeDI9IjEwMSIgeTE9IjY5NSIgeTI9IjY5NSIvPjwvZz48IS0tY2xhc3MgVmFjYW50VGlsZS0tPjxnIGlkPSJlbGVtX1ZhY2FudFRpbGUiPjxyZWN0IGNvZGVMaW5lPSIyMiIgZmlsbD0iI0YxRjFGMSIgaGVpZ2h0PSI0OCIgaWQ9IlZhY2FudFRpbGUiIHJ4PSIyLjUiIHJ5PSIyLjUiIHN0eWxlPSJzdHJva2U6IzE4MTgxODtzdHJva2Utd2lkdGg6MC41OyIgd2lkdGg9IjEwMiIgeD0iMTM3LjUiIHk9IjY1NSIvPjxlbGxpcHNlIGN4PSIxNTIuNSIgY3k9IjY3MSIgZmlsbD0iI0FERDFCMiIgcng9IjExIiByeT0iMTEiIHN0eWxlPSJzdHJva2U6IzE4MTgxODtzdHJva2Utd2lkdGg6MS4wOyIvPjxwYXRoIGQ9Ik0xNTAuMTI1LDY3NS4yNSBMMTUwLjEyNSw2NzcgTDE1NS4wNjI1LDY3NyBMMTU1LjA2MjUsNjc1LjI1IEwxNTAuMTI1LDY3NS4yNSBaIE0xNTAuODEyNSw2NzUuOTM3NSBRMTUwLjgxMjUsNjc1LjkzNzUgMTUwLjgxMjUsNjY2Ljc1IEwxNDkuMDYyNSw2NjYuNzUgUTE0OS4wNjI1LDY2Ni43NSAxNDkuMDYyNSw2NzUuOTM3NSBMMTUwLjgxMjUsNjc1LjkzNzUgWiBNMTU0LjM3NSw2NzUuOTM3NSBMMTU2LjEyNSw2NzUuOTM3NSBRMTU2LjEyNSw2NzUuOTM3NSAxNTYuMTI1LDY3My4xMjUgTDE1NC4zNzUsNjczLjEyNSBRMTU0LjM3NSw2NzMuMTI1IDE1NC4zNzUsNjc1LjkzNzUgWiBNMTU0LjM3NSw2NjYuNzUgUTE1NC4zNzUsNjY2Ljc1IDE1NC4zNzUsNjY5LjU2MjUgTDE1Ni4xMjUsNjY5LjU2MjUgUTE1Ni4xMjUsNjY5LjU2MjUgMTU2LjEyNSw2NjYuNzUgTDE1NC4zNzUsNjY2Ljc1IFogTTE1MC4xMjUsNjY3LjQzNzUgTDE1NS4wNjI1LDY2Ny40Mzc1IEwxNTUuMDYyNSw2NjUuNjg3NSBMMTUwLjEyNSw2NjUuNjg3NSBMMTUwLjEyNSw2NjcuNDM3NSBaICIgZmlsbD0iIzAwMDAwMCIvPjx0ZXh0IGZpbGw9IiMwMDAwMDAiIGZvbnQtZmFtaWx5PSJzYW5zLXNlcmlmIiBmb250LXNpemU9IjE0IiBsZW5ndGhBZGp1c3Q9InNwYWNpbmciIHRleHRMZW5ndGg9IjcwIiB4PSIxNjYuNSIgeT0iNjc2Ljc0MjIiPlZhY2FudFRpbGU8L3RleHQ+PGxpbmUgc3R5bGU9InN0cm9rZTojMTgxODE4O3N0cm9rZS13aWR0aDowLjU7IiB4MT0iMTM4LjUiIHgyPSIyMzguNSIgeTE9IjY4NyIgeTI9IjY4NyIvPjxsaW5lIHN0eWxlPSJzdHJva2U6IzE4MTgxODtzdHJva2Utd2lkdGg6MC41OyIgeDE9IjEzOC41IiB4Mj0iMjM4LjUiIHkxPSI2OTUiIHkyPSI2OTUiLz48L2c+PCEtLWNsYXNzIE51bWJlck9mVGlsZS0tPjxnIGlkPSJlbGVtX051bWJlck9mVGlsZSI+PHJlY3QgY29kZUxpbmU9IjI1IiBmaWxsPSIjRjFGMUYxIiBoZWlnaHQ9IjQ4IiBpZD0iTnVtYmVyT2ZUaWxlIiByeD0iMi41IiByeT0iMi41IiBzdHlsZT0ic3Ryb2tlOiMxODE4MTg7c3Ryb2tlLXdpZHRoOjAuNTsiIHdpZHRoPSIxMTciIHg9IjI3NSIgeT0iNjU1Ii8+PGVsbGlwc2UgY3g9IjI5MCIgY3k9IjY3MSIgZmlsbD0iI0FERDFCMiIgcng9IjExIiByeT0iMTEiIHN0eWxlPSJzdHJva2U6IzE4MTgxODtzdHJva2Utd2lkdGg6MS4wOyIvPjxwYXRoIGQ9Ik0yODcuNjI1LDY3NS4yNSBMMjg3LjYyNSw2NzcgTDI5Mi41NjI1LDY3NyBMMjkyLjU2MjUsNjc1LjI1IEwyODcuNjI1LDY3NS4yNSBaIE0yODguMzEyNSw2NzUuOTM3NSBRMjg4LjMxMjUsNjc1LjkzNzUgMjg4LjMxMjUsNjY2Ljc1IEwyODYuNTYyNSw2NjYuNzUgUTI4Ni41NjI1LDY2Ni43NSAyODYuNTYyNSw2NzUuOTM3NSBMMjg4LjMxMjUsNjc1LjkzNzUgWiBNMjkxLjg3NSw2NzUuOTM3NSBMMjkzLjYyNSw2NzUuOTM3NSBRMjkzLjYyNSw2NzUuOTM3NSAyOTMuNjI1LDY3My4xMjUgTDI5MS44NzUsNjczLjEyNSBRMjkxLjg3NSw2NzMuMTI1IDI5MS44NzUsNjc1LjkzNzUgWiBNMjkxLjg3NSw2NjYuNzUgUTI5MS44NzUsNjY2Ljc1IDI5MS44NzUsNjY5LjU2MjUgTDI5My42MjUsNjY5LjU2MjUgUTI5My42MjUsNjY5LjU2MjUgMjkzLjYyNSw2NjYuNzUgTDI5MS44NzUsNjY2Ljc1IFogTTI4Ny42MjUsNjY3LjQzNzUgTDI5Mi41NjI1LDY2Ny40Mzc1IEwyOTIuNTYyNSw2NjUuNjg3NSBMMjg3LjYyNSw2NjUuNjg3NSBMMjg3LjYyNSw2NjcuNDM3NSBaICIgZmlsbD0iIzAwMDAwMCIvPjx0ZXh0IGZpbGw9IiMwMDAwMDAiIGZvbnQtZmFtaWx5PSJzYW5zLXNlcmlmIiBmb250LXNpemU9IjE0IiBsZW5ndGhBZGp1c3Q9InNwYWNpbmciIHRleHRMZW5ndGg9Ijg1IiB4PSIzMDQiIHk9IjY3Ni43NDIyIj5OdW1iZXJPZlRpbGU8L3RleHQ+PGxpbmUgc3R5bGU9InN0cm9rZTojMTgxODE4O3N0cm9rZS13aWR0aDowLjU7IiB4MT0iMjc2IiB4Mj0iMzkxIiB5MT0iNjg3IiB5Mj0iNjg3Ii8+PGxpbmUgc3R5bGU9InN0cm9rZTojMTgxODE4O3N0cm9rZS13aWR0aDowLjU7IiB4MT0iMjc2IiB4Mj0iMzkxIiB5MT0iNjk1IiB5Mj0iNjk1Ii8+PC9nPjwhLS1jbGFzcyBNYWluQ29udHJvbGxlci0tPjxnIGlkPSJlbGVtX01haW5Db250cm9sbGVyIj48cmVjdCBjb2RlTGluZT0iMjgiIGZpbGw9IiNGMUYxRjEiIGhlaWdodD0iNDgiIGlkPSJNYWluQ29udHJvbGxlciIgcng9IjIuNSIgcnk9IjIuNSIgc3R5bGU9InN0cm9rZTojMTgxODE4O3N0cm9rZS13aWR0aDowLjU7IiB3aWR0aD0iMTMwIiB4PSIzMDkuNSIgeT0iMjIzIi8+PGVsbGlwc2UgY3g9IjMyNC41IiBjeT0iMjM5IiBmaWxsPSIjQUREMUIyIiByeD0iMTEiIHJ5PSIxMSIgc3R5bGU9InN0cm9rZTojMTgxODE4O3N0cm9rZS13aWR0aDoxLjA7Ii8+PHBhdGggZD0iTTMyMi4xMjUsMjQzLjI1IEwzMjIuMTI1LDI0NSBMMzI3LjA2MjUsMjQ1IEwzMjcuMDYyNSwyNDMuMjUgTDMyMi4xMjUsMjQzLjI1IFogTTMyMi44MTI1LDI0My45Mzc1IFEzMjIuODEyNSwyNDMuOTM3NSAzMjIuODEyNSwyMzQuNzUgTDMyMS4wNjI1LDIzNC43NSBRMzIxLjA2MjUsMjM0Ljc1IDMyMS4wNjI1LDI0My45Mzc1IEwzMjIuODEyNSwyNDMuOTM3NSBaIE0zMjYuMzc1LDI0My45Mzc1IEwzMjguMTI1LDI0My45Mzc1IFEzMjguMTI1LDI0My45Mzc1IDMyOC4xMjUsMjQxLjEyNSBMMzI2LjM3NSwyNDEuMTI1IFEzMjYuMzc1LDI0MS4xMjUgMzI2LjM3NSwyNDMuOTM3NSBaIE0zMjYuMzc1LDIzNC43NSBRMzI2LjM3NSwyMzQuNzUgMzI2LjM3NSwyMzcuNTYyNSBMMzI4LjEyNSwyMzcuNTYyNSBRMzI4LjEyNSwyMzcuNTYyNSAzMjguMTI1LDIzNC43NSBMMzI2LjM3NSwyMzQuNzUgWiBNMzIyLjEyNSwyMzUuNDM3NSBMMzI3LjA2MjUsMjM1LjQzNzUgTDMyNy4wNjI1LDIzMy42ODc1IEwzMjIuMTI1LDIzMy42ODc1IEwzMjIuMTI1LDIzNS40Mzc1IFogIiBmaWxsPSIjMDAwMDAwIi8+PHRleHQgZmlsbD0iIzAwMDAwMCIgZm9udC1mYW1pbHk9InNhbnMtc2VyaWYiIGZvbnQtc2l6ZT0iMTQiIGxlbmd0aEFkanVzdD0ic3BhY2luZyIgdGV4dExlbmd0aD0iOTgiIHg9IjMzOC41IiB5PSIyNDQuNzQyMiI+TWFpbkNvbnRyb2xsZXI8L3RleHQ+PGxpbmUgc3R5bGU9InN0cm9rZTojMTgxODE4O3N0cm9rZS13aWR0aDowLjU7IiB4MT0iMzEwLjUiIHgyPSI0MzguNSIgeTE9IjI1NSIgeTI9IjI1NSIvPjxsaW5lIHN0eWxlPSJzdHJva2U6IzE4MTgxODtzdHJva2Utd2lkdGg6MC41OyIgeDE9IjMxMC41IiB4Mj0iNDM4LjUiIHkxPSIyNjMiIHkyPSIyNjMiLz48L2c+PCEtLWNsYXNzIEJhckNvbnRyb2xsZXItLT48ZyBpZD0iZWxlbV9CYXJDb250cm9sbGVyIj48cmVjdCBjb2RlTGluZT0iMzEiIGZpbGw9IiNGMUYxRjEiIGhlaWdodD0iNDgiIGlkPSJCYXJDb250cm9sbGVyIiByeD0iMi41IiByeT0iMi41IiBzdHlsZT0ic3Ryb2tlOiMxODE4MTg7c3Ryb2tlLXdpZHRoOjAuNTsiIHdpZHRoPSIxMjMiIHg9IjQ3NSIgeT0iMjIzIi8+PGVsbGlwc2UgY3g9IjQ5MCIgY3k9IjIzOSIgZmlsbD0iI0FERDFCMiIgcng9IjExIiByeT0iMTEiIHN0eWxlPSJzdHJva2U6IzE4MTgxODtzdHJva2Utd2lkdGg6MS4wOyIvPjxwYXRoIGQ9Ik00ODcuNjI1LDI0My4yNSBMNDg3LjYyNSwyNDUgTDQ5Mi41NjI1LDI0NSBMNDkyLjU2MjUsMjQzLjI1IEw0ODcuNjI1LDI0My4yNSBaIE00ODguMzEyNSwyNDMuOTM3NSBRNDg4LjMxMjUsMjQzLjkzNzUgNDg4LjMxMjUsMjM0Ljc1IEw0ODYuNTYyNSwyMzQuNzUgUTQ4Ni41NjI1LDIzNC43NSA0ODYuNTYyNSwyNDMuOTM3NSBMNDg4LjMxMjUsMjQzLjkzNzUgWiBNNDkxLjg3NSwyNDMuOTM3NSBMNDkzLjYyNSwyNDMuOTM3NSBRNDkzLjYyNSwyNDMuOTM3NSA0OTMuNjI1LDI0MS4xMjUgTDQ5MS44NzUsMjQxLjEyNSBRNDkxLjg3NSwyNDEuMTI1IDQ5MS44NzUsMjQzLjkzNzUgWiBNNDkxLjg3NSwyMzQuNzUgUTQ5MS44NzUsMjM0Ljc1IDQ5MS44NzUsMjM3LjU2MjUgTDQ5My42MjUsMjM3LjU2MjUgUTQ5My42MjUsMjM3LjU2MjUgNDkzLjYyNSwyMzQuNzUgTDQ5MS44NzUsMjM0Ljc1IFogTTQ4Ny42MjUsMjM1LjQzNzUgTDQ5Mi41NjI1LDIzNS40Mzc1IEw0OTIuNTYyNSwyMzMuNjg3NSBMNDg3LjYyNSwyMzMuNjg3NSBMNDg3LjYyNSwyMzUuNDM3NSBaICIgZmlsbD0iIzAwMDAwMCIvPjx0ZXh0IGZpbGw9IiMwMDAwMDAiIGZvbnQtZmFtaWx5PSJzYW5zLXNlcmlmIiBmb250LXNpemU9IjE0IiBsZW5ndGhBZGp1c3Q9InNwYWNpbmciIHRleHRMZW5ndGg9IjkxIiB4PSI1MDQiIHk9IjI0NC43NDIyIj5CYXJDb250cm9sbGVyPC90ZXh0PjxsaW5lIHN0eWxlPSJzdHJva2U6IzE4MTgxODtzdHJva2Utd2lkdGg6MC41OyIgeDE9IjQ3NiIgeDI9IjU5NyIgeTE9IjI1NSIgeTI9IjI1NSIvPjxsaW5lIHN0eWxlPSJzdHJva2U6IzE4MTgxODtzdHJva2Utd2lkdGg6MC41OyIgeDE9IjQ3NiIgeDI9IjU5NyIgeTE9IjI2MyIgeTI9IjI2MyIvPjwvZz48IS0tY2xhc3MgbWFpbk1lbnVDb250cm9sbGVyLS0+PGcgaWQ9ImVsZW1fbWFpbk1lbnVDb250cm9sbGVyIj48cmVjdCBjb2RlTGluZT0iMzQiIGZpbGw9IiNGMUYxRjEiIGhlaWdodD0iNDgiIGlkPSJtYWluTWVudUNvbnRyb2xsZXIiIHJ4PSIyLjUiIHJ5PSIyLjUiIHN0eWxlPSJzdHJva2U6IzE4MTgxODtzdHJva2Utd2lkdGg6MC41OyIgd2lkdGg9IjE1OSIgeD0iMzc2IiB5PSI3Ii8+PGVsbGlwc2UgY3g9IjM5MSIgY3k9IjIzIiBmaWxsPSIjQUREMUIyIiByeD0iMTEiIHJ5PSIxMSIgc3R5bGU9InN0cm9rZTojMTgxODE4O3N0cm9rZS13aWR0aDoxLjA7Ii8+PHBhdGggZD0iTTM4OC42MjUsMjcuMjUgTDM4OC42MjUsMjkgTDM5My41NjI1LDI5IEwzOTMuNTYyNSwyNy4yNSBMMzg4LjYyNSwyNy4yNSBaIE0zODkuMzEyNSwyNy45Mzc1IFEzODkuMzEyNSwyNy45Mzc1IDM4OS4zMTI1LDE4Ljc1IEwzODcuNTYyNSwxOC43NSBRMzg3LjU2MjUsMTguNzUgMzg3LjU2MjUsMjcuOTM3NSBMMzg5LjMxMjUsMjcuOTM3NSBaIE0zOTIuODc1LDI3LjkzNzUgTDM5NC42MjUsMjcuOTM3NSBRMzk0LjYyNSwyNy45Mzc1IDM5NC42MjUsMjUuMTI1IEwzOTIuODc1LDI1LjEyNSBRMzkyLjg3NSwyNS4xMjUgMzkyLjg3NSwyNy45Mzc1IFogTTM5Mi44NzUsMTguNzUgUTM5Mi44NzUsMTguNzUgMzkyLjg3NSwyMS41NjI1IEwzOTQuNjI1LDIxLjU2MjUgUTM5NC42MjUsMjEuNTYyNSAzOTQuNjI1LDE4Ljc1IEwzOTIuODc1LDE4Ljc1IFogTTM4OC42MjUsMTkuNDM3NSBMMzkzLjU2MjUsMTkuNDM3NSBMMzkzLjU2MjUsMTcuNjg3NSBMMzg4LjYyNSwxNy42ODc1IEwzODguNjI1LDE5LjQzNzUgWiAiIGZpbGw9IiMwMDAwMDAiLz48dGV4dCBmaWxsPSIjMDAwMDAwIiBmb250LWZhbWlseT0ic2Fucy1zZXJpZiIgZm9udC1zaXplPSIxNCIgbGVuZ3RoQWRqdXN0PSJzcGFjaW5nIiB0ZXh0TGVuZ3RoPSIxMjciIHg9IjQwNSIgeT0iMjguNzQyMiI+bWFpbk1lbnVDb250cm9sbGVyPC90ZXh0PjxsaW5lIHN0eWxlPSJzdHJva2U6IzE4MTgxODtzdHJva2Utd2lkdGg6MC41OyIgeDE9IjM3NyIgeDI9IjUzNCIgeTE9IjM5IiB5Mj0iMzkiLz48bGluZSBzdHlsZT0ic3Ryb2tlOiMxODE4MTg7c3Ryb2tlLXdpZHRoOjAuNTsiIHgxPSIzNzciIHgyPSI1MzQiIHkxPSI0NyIgeTI9IjQ3Ii8+PC9nPjwhLS1saW5rIE1haW5BcHAgdG8gTWFpbkNvbnRyb2xsZXItLT48ZyBpZD0ibGlua19NYWluQXBwX01haW5Db250cm9sbGVyIj48cGF0aCBjb2RlTGluZT0iMzciIGQ9Ik00MzcuOTIsMTYzIEM0MjUuNDksMTc5LjI4IDQwOC43NCwyMDEuMTkgMzk1LjU4LDIxOC40MSAiIGZpbGw9Im5vbmUiIGlkPSJNYWluQXBwLXRvLU1haW5Db250cm9sbGVyIiBzdHlsZT0ic3Ryb2tlOiMxODE4MTg7c3Ryb2tlLXdpZHRoOjEuMDsiLz48cG9seWdvbiBmaWxsPSIjMTgxODE4IiBwb2ludHM9IjM5Mi4zMiwyMjIuNjgsNDAwLjk2ODksMjE3Ljk2ODcsMzk1LjM2MSwyMTguNzExLDM5NC42MTg2LDIxMy4xMDMxLDM5Mi4zMiwyMjIuNjgiIHN0eWxlPSJzdHJva2U6IzE4MTgxODtzdHJva2Utd2lkdGg6MS4wOyIvPjwvZz48IS0tbGluayBNYWluQXBwIHRvIEJhckNvbnRyb2xsZXItLT48ZyBpZD0ibGlua19NYWluQXBwX0JhckNvbnRyb2xsZXIiPjxwYXRoIGNvZGVMaW5lPSIzOCIgZD0iTTQ2Mi4zNSwxNjMgQzQ3Mi40LDE3OS40MiA0ODkuMTMsMjAxLjU2IDUwNC40NiwyMTguODQgIiBmaWxsPSJub25lIiBpZD0iTWFpbkFwcC10by1CYXJDb250cm9sbGVyIiBzdHlsZT0ic3Ryb2tlOiMxODE4MTg7c3Ryb2tlLXdpZHRoOjEuMDsiLz48cG9seWdvbiBmaWxsPSIjMTgxODE4IiBwb2ludHM9IjUwNy45LDIyMi42OCw1MDQuODUyNSwyMTMuMzE0NSw1MDQuNTU1MiwyMTguOTYzNSw0OTguOTA2MSwyMTguNjY2Miw1MDcuOSwyMjIuNjgiIHN0eWxlPSJzdHJva2U6IzE4MTgxODtzdHJva2Utd2lkdGg6MS4wOyIvPjwvZz48IS0tbGluayBCYXJDb250cm9sbGVyIHRvIE1haW5BcHAtLT48ZyBpZD0ibGlua19CYXJDb250cm9sbGVyX01haW5BcHAiPjxwYXRoIGNvZGVMaW5lPSI1NCIgZD0iTTUzMC4wOSwyMjIuNjggQzUyMC4wOSwyMDYuMTkgNTAzLjM0LDE4NC4wNCA0ODcuOTEsMTY2LjgyICIgZmlsbD0ibm9uZSIgaWQ9IkJhckNvbnRyb2xsZXItdG8tTWFpbkFwcCIgc3R5bGU9InN0cm9rZTojMTgxODE4O3N0cm9rZS13aWR0aDoxLjA7Ii8+PHBvbHlnb24gZmlsbD0iIzE4MTgxOCIgcG9pbnRzPSI0ODQuNDMsMTYzLDQ4Ny41MzUxLDE3Mi4zNDY2LDQ4Ny43OTc2LDE2Ni42OTU4LDQ5My40NDg0LDE2Ni45NTg0LDQ4NC40MywxNjMiIHN0eWxlPSJzdHJva2U6IzE4MTgxODtzdHJva2Utd2lkdGg6MS4wOyIvPjwvZz48IS0tbGluayBNYWluQXBwIHRvIEpBV1NHYW1lLS0+PGcgaWQ9ImxpbmtfTWFpbkFwcF9KQVdTR2FtZSI+PHBhdGggY29kZUxpbmU9IjM5IiBkPSJNNDE0Ljg5LDE0Ny45MSBDMzc1LjYyLDE1Ny45NiAzMTguMjQsMTc5LjUgMjkxLjUsMjIzIEMyNzIuMDQsMjU0LjY2IDI4Ni40NywyOTguMTkgMjk5LjkxLDMyNi4yMiAiIGZpbGw9Im5vbmUiIGlkPSJNYWluQXBwLXRvLUpBV1NHYW1lIiBzdHlsZT0ic3Ryb2tlOiMxODE4MTg7c3Ryb2tlLXdpZHRoOjEuMDsiLz48cG9seWdvbiBmaWxsPSIjMTgxODE4IiBwb2ludHM9IjMwMi4yMywzMzAuOTIsMzAxLjgzMzEsMzIxLjA3OTEsMzAwLjAxNjgsMzI2LjQzNjUsMjk0LjY1OTUsMzI0LjYyMDMsMzAyLjIzLDMzMC45MiIgc3R5bGU9InN0cm9rZTojMTgxODE4O3N0cm9rZS13aWR0aDoxLjA7Ii8+PC9nPjwhLS1saW5rIEpBV1NHYW1lIHRvIFNoYXJrRmllbGQtLT48ZyBpZD0ibGlua19KQVdTR2FtZV9TaGFya0ZpZWxkIj48cGF0aCBjb2RlTGluZT0iNDEiIGQ9Ik0yODcuOTQsMzc5IEMyNjguMTEsMzk1LjU1IDI0MS4zLDQxNy45MyAyMjAuNTEsNDM1LjI4ICIgZmlsbD0ibm9uZSIgaWQ9IkpBV1NHYW1lLXRvLVNoYXJrRmllbGQiIHN0eWxlPSJzdHJva2U6IzE4MTgxODtzdHJva2Utd2lkdGg6MS4wOyIvPjxwb2x5Z29uIGZpbGw9IiMxODE4MTgiIHBvaW50cz0iMjE2LjQ0LDQzOC42OCwyMjUuOTE1Nyw0MzUuOTk0NywyMjAuMjgyMyw0MzUuNDgwNSwyMjAuNzk2NSw0MjkuODQ3LDIxNi40NCw0MzguNjgiIHN0eWxlPSJzdHJva2U6IzE4MTgxODtzdHJva2Utd2lkdGg6MS4wOyIvPjwvZz48IS0tbGluayBKQVdTR2FtZSB0byBDb3VudGVyLS0+PGcgaWQ9ImxpbmtfSkFXU0dhbWVfQ291bnRlciI+PHBhdGggY29kZUxpbmU9IjQyIiBkPSJNMzA0Ljc3LDM3OSBDMzAyLjM0LDM5NSAzMDIuMSw0MTYuNDUgMzA0LjA1LDQzMy41MyAiIGZpbGw9Im5vbmUiIGlkPSJKQVdTR2FtZS10by1Db3VudGVyIiBzdHlsZT0ic3Ryb2tlOiMxODE4MTg7c3Ryb2tlLXdpZHRoOjEuMDsiLz48cG9seWdvbiBmaWxsPSIjMTgxODE4IiBwb2ludHM9IjMwNC43Myw0MzguNjgsMzA3LjUxMjYsNDI5LjIzMjQsMzA0LjA3MjksNDMzLjcyMzQsMjk5LjU4Miw0MzAuMjgzNywzMDQuNzMsNDM4LjY4IiBzdHlsZT0ic3Ryb2tlOiMxODE4MTg7c3Ryb2tlLXdpZHRoOjEuMDsiLz48L2c+PCEtLWxpbmsgSkFXU0dhbWUgdG8gQ291bnRlci0tPjxnIGlkPSJsaW5rX0pBV1NHYW1lX0NvdW50ZXIiPjxwYXRoIGNvZGVMaW5lPSI0NiIgZD0iTTMyNi44NiwzNzkgQzMyOS40MywzOTUgMzI5LjY5LDQxNi40NSAzMjcuNjIsNDMzLjUzICIgZmlsbD0ibm9uZSIgaWQ9IkpBV1NHYW1lLXRvLUNvdW50ZXItMSIgc3R5bGU9InN0cm9rZTojMTgxODE4O3N0cm9rZS13aWR0aDoxLjA7Ii8+PHBvbHlnb24gZmlsbD0iIzE4MTgxOCIgcG9pbnRzPSIzMjYuOTEsNDM4LjY4LDMzMi4xMDU1LDQzMC4zMTMsMzI3LjU5NTEsNDMzLjcyNzIsMzI0LjE4MDksNDI5LjIxNjgsMzI2LjkxLDQzOC42OCIgc3R5bGU9InN0cm9rZTojMTgxODE4O3N0cm9rZS13aWR0aDoxLjA7Ii8+PC9nPjwhLS1saW5rIEpBV1NHYW1lIHRvIFRpbWVDb3VudGVyLS0+PGcgaWQ9ImxpbmtfSkFXU0dhbWVfVGltZUNvdW50ZXIiPjxwYXRoIGNvZGVMaW5lPSI0MyIgZD0iTTMzNy42NCwzNzkuMjcgQzM1MC44NywzOTQuODQgMzY2LjQzLDQxNi41MyAzNzMuNSw0MzkgQzM4NC4yNyw0NzMuMjMgMzc3LjY3LDUxNC44MiAzNzAuOTYsNTQxLjgyICIgZmlsbD0ibm9uZSIgaWQ9IkpBV1NHYW1lLXRvLVRpbWVDb3VudGVyIiBzdHlsZT0ic3Ryb2tlOiMxODE4MTg7c3Ryb2tlLXdpZHRoOjEuMDsiLz48cG9seWdvbiBmaWxsPSIjMTgxODE4IiBwb2ludHM9IjM2OS43MSw1NDYuNjksMzc1LjgyMTcsNTM4Ljk2NjgsMzcwLjk1MjksNTQxLjg0NjksMzY4LjA3MjgsNTM2Ljk3ODIsMzY5LjcxLDU0Ni42OSIgc3R5bGU9InN0cm9rZTojMTgxODE4O3N0cm9rZS13aWR0aDoxLjA7Ii8+PC9nPjwhLS1saW5rIFNoYXJrRmllbGQgdG8gVGlsZS0tPjxnIGlkPSJsaW5rX1NoYXJrRmllbGRfVGlsZSI+PHBhdGggY29kZUxpbmU9IjQ1IiBkPSJNMTg4LjUsNDg3IEMxODguNSw1MDMgMTg4LjUsNTI0LjQ1IDE4OC41LDU0MS41MyAiIGZpbGw9Im5vbmUiIGlkPSJTaGFya0ZpZWxkLXRvLVRpbGUiIHN0eWxlPSJzdHJva2U6IzE4MTgxODtzdHJva2Utd2lkdGg6MS4wOyIvPjxwb2x5Z29uIGZpbGw9IiMxODE4MTgiIHBvaW50cz0iMTg4LjUsNTQ2LjY4LDE5Mi41LDUzNy42OCwxODguNSw1NDEuNjgsMTg0LjUsNTM3LjY4LDE4OC41LDU0Ni42OCIgc3R5bGU9InN0cm9rZTojMTgxODE4O3N0cm9rZS13aWR0aDoxLjA7Ii8+PC9nPjwhLS1yZXZlcnNlIGxpbmsgQ291bnRlciB0byBUaW1lQ291bnRlci0tPjxnIGlkPSJsaW5rX0NvdW50ZXJfVGltZUNvdW50ZXIiPjxwYXRoIGNvZGVMaW5lPSI0NyIgZD0iTTMzMy45Myw1MDUuNTcgQzM0MC4xMyw1MTkuNTQgMzQ2LjgxLDUzNC42MiAzNTIuMTYsNTQ2LjY4ICIgZmlsbD0ibm9uZSIgaWQ9IkNvdW50ZXItYmFja3RvLVRpbWVDb3VudGVyIiBzdHlsZT0ic3Ryb2tlOiMxODE4MTg7c3Ryb2tlLXdpZHRoOjEuMDsiLz48cG9seWdvbiBmaWxsPSJub25lIiBwb2ludHM9IjMyNy40MSw1MDguMTIsMzI1LjcsNDg3LDM0MC4yLDUwMi40NSwzMjcuNDEsNTA4LjEyIiBzdHlsZT0ic3Ryb2tlOiMxODE4MTg7c3Ryb2tlLXdpZHRoOjEuMDsiLz48L2c+PCEtLXJldmVyc2UgbGluayBUaWxlIHRvIFNoYXJrVGlsZS0tPjxnIGlkPSJsaW5rX1RpbGVfU2hhcmtUaWxlIj48cGF0aCBjb2RlTGluZT0iNDkiIGQ9Ik0xNDMuNDUsNjA3LjY0IEMxMjMuODQsNjIzLjE1IDEwMS40MSw2NDAuODkgODMuOTgsNjU0LjY4ICIgZmlsbD0ibm9uZSIgaWQ9IlRpbGUtYmFja3RvLVNoYXJrVGlsZSIgc3R5bGU9InN0cm9rZTojMTgxODE4O3N0cm9rZS13aWR0aDoxLjA7Ii8+PHBvbHlnb24gZmlsbD0ibm9uZSIgcG9pbnRzPSIxMzkuNCw2MDEuOTIsMTU5LjQyLDU5NSwxNDguMDgsNjEyLjksMTM5LjQsNjAxLjkyIiBzdHlsZT0ic3Ryb2tlOiMxODE4MTg7c3Ryb2tlLXdpZHRoOjEuMDsiLz48L2c+PCEtLXJldmVyc2UgbGluayBUaWxlIHRvIFZhY2FudFRpbGUtLT48ZyBpZD0ibGlua19UaWxlX1ZhY2FudFRpbGUiPjxwYXRoIGNvZGVMaW5lPSI1MCIgZD0iTTE4OC41LDYxNS4wMiBDMTg4LjUsNjI4LjU4IDE4OC41LDY0My4wNCAxODguNSw2NTQuNjggIiBmaWxsPSJub25lIiBpZD0iVGlsZS1iYWNrdG8tVmFjYW50VGlsZSIgc3R5bGU9InN0cm9rZTojMTgxODE4O3N0cm9rZS13aWR0aDoxLjA7Ii8+PHBvbHlnb24gZmlsbD0ibm9uZSIgcG9pbnRzPSIxODEuNSw2MTUsMTg4LjUsNTk1LDE5NS41LDYxNSwxODEuNSw2MTUiIHN0eWxlPSJzdHJva2U6IzE4MTgxODtzdHJva2Utd2lkdGg6MS4wOyIvPjwvZz48IS0tcmV2ZXJzZSBsaW5rIFRpbGUgdG8gTnVtYmVyT2ZUaWxlLS0+PGcgaWQ9ImxpbmtfVGlsZV9OdW1iZXJPZlRpbGUiPjxwYXRoIGNvZGVMaW5lPSI1MSIgZD0iTTIzNC43OSw2MDUuODQgQzI1Ni43Miw2MjEuODcgMjgyLjM0LDY0MC42IDMwMS45OSw2NTQuOTYgIiBmaWxsPSJub25lIiBpZD0iVGlsZS1iYWNrdG8tTnVtYmVyT2ZUaWxlIiBzdHlsZT0ic3Ryb2tlOiMxODE4MTg7c3Ryb2tlLXdpZHRoOjEuMDsiLz48cG9seWdvbiBmaWxsPSJub25lIiBwb2ludHM9IjIzMC41Niw2MTEuNDIsMjE4LjU0LDU5My45NiwyMzguODIsNjAwLjEyLDIzMC41Niw2MTEuNDIiIHN0eWxlPSJzdHJva2U6IzE4MTgxODtzdHJva2Utd2lkdGg6MS4wOyIvPjwvZz48IS0tbGluayBNYWluQ29udHJvbGxlciB0byBKQVdTR2FtZS0tPjxnIGlkPSJsaW5rX01haW5Db250cm9sbGVyX0pBV1NHYW1lIj48cGF0aCBjb2RlTGluZT0iNTMiIGQ9Ik0zNjEuNywyNzEgQzM1Mi43MSwyODcuMTQgMzQwLjY1LDMwOC44MiAzMzEuMSwzMjUuOTcgIiBmaWxsPSJub25lIiBpZD0iTWFpbkNvbnRyb2xsZXItdG8tSkFXU0dhbWUiIHN0eWxlPSJzdHJva2U6IzE4MTgxODtzdHJva2Utd2lkdGg6MS4wOyIvPjxwb2x5Z29uIGZpbGw9IiMxODE4MTgiIHBvaW50cz0iMzI4LjQ4LDMzMC42OCwzMzYuMzQ3NCwzMjQuNzU1MiwzMzAuOTA4MiwzMjYuMzA5MiwzMjkuMzU0MiwzMjAuODcsMzI4LjQ4LDMzMC42OCIgc3R5bGU9InN0cm9rZTojMTgxODE4O3N0cm9rZS13aWR0aDoxLjA7Ii8+PC9nPjwhLS1saW5rIG1haW5NZW51Q29udHJvbGxlciB0byBNYWluQXBwLS0+PGcgaWQ9ImxpbmtfbWFpbk1lbnVDb250cm9sbGVyX01haW5BcHAiPjxwYXRoIGNvZGVMaW5lPSI1NSIgZD0iTTQ1NS41LDU1IEM0NTUuNSw3MSA0NTUuNSw5Mi40NSA0NTUuNSwxMDkuNTMgIiBmaWxsPSJub25lIiBpZD0ibWFpbk1lbnVDb250cm9sbGVyLXRvLU1haW5BcHAiIHN0eWxlPSJzdHJva2U6IzE4MTgxODtzdHJva2Utd2lkdGg6MS4wOyIvPjxwb2x5Z29uIGZpbGw9IiMxODE4MTgiIHBvaW50cz0iNDU1LjUsMTE0LjY4LDQ1OS41LDEwNS42OCw0NTUuNSwxMDkuNjgsNDUxLjUsMTA1LjY4LDQ1NS41LDExNC42OCIgc3R5bGU9InN0cm9rZTojMTgxODE4O3N0cm9rZS13aWR0aDoxLjA7Ii8+PC9nPjwhLS1TUkM9W1JUMUQzZThtNDhSWF9QbzIyX0c2bldIOUQzNTE1blhUWnJXWmlJc2FxOUx3VF9jbkM1RXhWUnltbTVDZ1JEaWFueWdhSlBFeXUwREdaY2NWTmVlVFFhYlJ5SzN4dDVQSXRNWkRRY1N3UU1hd0xMZjZpX2dfNXlPcGJjWXdpMXdTbGFmeGw4VHotRkFpRGZzamJVOGxzdzJEM3hmXzk5VjZYUWo3NDY4VGQ2S0preWlNSm1PbXVtcnZLVUZ6MXlHWmFHQ1d0akVjUEZvNGpyd3pYVTBkSGd5bnB6WWFCVE9hS2tmOVhLWW5fLUo0dGd0ZFc4V25jUnkwXS0tPjwvZz48L3N2Zz4=;" vertex="1" parent="WIyWlLk6GJQsqaUBKTNV-1">
            <mxGeometry x="110" y="-70" width="480" height="563.31" as="geometry" />
          </mxCell>
        </UserObject>
        <UserObject label="" plantUmlData="{&#xa;  &quot;data&quot;: &quot;@startuml\n\nclass MainApp {\n}\n\nclass JAWSGame {\n}\n\nclass SharkField {\n}\n\nclass Counter {\n}\n\nclass TimeCounter {\n}\n\nclass Tile {\n}\n\nclass SharkTile {\n}\n\nclass VacantTile {\n}\n\nclass NumberOfTile {\n}\n\nclass MainController {\n}\n\nclass BarController {\n}\n\nclass mainMenuController {\n}\n\nMainApp --&gt; MainController\nMainApp --&gt; BarController\nMainApp --&gt; JAWSGame\n\nJAWSGame --&gt; SharkField\nJAWSGame --&gt; Counter\nJAWSGame --&gt; TimeCounter\n\nSharkField --&gt; Tile\nJAWSGame --&gt; Counter\nCounter &lt;|-- TimeCounter\n\nTile &lt;|-- SharkTile\nTile &lt;|-- VacantTile\nTile &lt;|-- NumberOfTile\n\nMainController --&gt; JAWSGame\nBarController --&gt; MainApp\nmainMenuController --&gt; MainApp\n\nTile \&quot;1\&quot; --&gt; \&quot;1..*\&quot; SharkField : contains\n\nTile &lt;|-- Button\nTile \&quot;1\&quot; -- \&quot;0..1\&quot; SharkTile : creates\nTile \&quot;1\&quot; -- \&quot;0..1\&quot; VacantTile : creates\nTile \&quot;1\&quot; -- \&quot;0..1\&quot; NumberOfTile : creates\n\nCounter \&quot;1\&quot; -- \&quot;0..1\&quot; JAWSGame : belongs to\nTimeCounter \&quot;1\&quot; -- \&quot;0..1\&quot; JAWSGame : belongs to\n\nSharkField \&quot;1\&quot; --&gt; \&quot;1..*\&quot; Tile : contains\n\nMainController \&quot;1\&quot; --&gt; \&quot;1..*\&quot; Button : handles\nmainMenuController \&quot;1\&quot; --&gt; \&quot;1..*\&quot; Button : handles\n\n@enduml\n&quot;,&#xa;  &quot;format&quot;: &quot;svg&quot;&#xa;}" id="FxuM8H2C9ezcy_0ipnlq-1">
          <mxCell style="shape=image;noLabel=1;verticalAlign=top;aspect=fixed;imageAspect=0;image=data:image/svg+xml,PD94bWwgdmVyc2lvbj0iMS4wIiBlbmNvZGluZz0idXMtYXNjaWkiIHN0YW5kYWxvbmU9Im5vIj8+PHN2ZyB4bWxucz0iaHR0cDovL3d3dy53My5vcmcvMjAwMC9zdmciIHhtbG5zOnhsaW5rPSJodHRwOi8vd3d3LnczLm9yZy8xOTk5L3hsaW5rIiBjb250ZW50U3R5bGVUeXBlPSJ0ZXh0L2NzcyIgaGVpZ2h0PSI3NThweCIgcHJlc2VydmVBc3BlY3RSYXRpbz0ibm9uZSIgc3R5bGU9IndpZHRoOjc2NHB4O2hlaWdodDo3NThweDtiYWNrZ3JvdW5kOiNGRkZGRkY7IiB2ZXJzaW9uPSIxLjEiIHZpZXdCb3g9IjAgMCA3NjQgNzU4IiB3aWR0aD0iNzY0cHgiIHpvb21BbmRQYW49Im1hZ25pZnkiPjxkZWZzLz48Zz48IS0tY2xhc3MgTWFpbkFwcC0tPjxnIGlkPSJlbGVtX01haW5BcHAiPjxyZWN0IGNvZGVMaW5lPSIxIiBmaWxsPSIjRjFGMUYxIiBoZWlnaHQ9IjQ4IiBpZD0iTWFpbkFwcCIgcng9IjIuNSIgcnk9IjIuNSIgc3R5bGU9InN0cm9rZTojMTgxODE4O3N0cm9rZS13aWR0aDowLjU7IiB3aWR0aD0iODEiIHg9IjU0NiIgeT0iMTE2Ii8+PGVsbGlwc2UgY3g9IjU2MSIgY3k9IjEzMiIgZmlsbD0iI0FERDFCMiIgcng9IjExIiByeT0iMTEiIHN0eWxlPSJzdHJva2U6IzE4MTgxODtzdHJva2Utd2lkdGg6MS4wOyIvPjxwYXRoIGQ9Ik01NTguNjI1LDEzNi4yNSBMNTU4LjYyNSwxMzggTDU2My41NjI1LDEzOCBMNTYzLjU2MjUsMTM2LjI1IEw1NTguNjI1LDEzNi4yNSBaIE01NTkuMzEyNSwxMzYuOTM3NSBRNTU5LjMxMjUsMTM2LjkzNzUgNTU5LjMxMjUsMTI3Ljc1IEw1NTcuNTYyNSwxMjcuNzUgUTU1Ny41NjI1LDEyNy43NSA1NTcuNTYyNSwxMzYuOTM3NSBMNTU5LjMxMjUsMTM2LjkzNzUgWiBNNTYyLjg3NSwxMzYuOTM3NSBMNTY0LjYyNSwxMzYuOTM3NSBRNTY0LjYyNSwxMzYuOTM3NSA1NjQuNjI1LDEzNC4xMjUgTDU2Mi44NzUsMTM0LjEyNSBRNTYyLjg3NSwxMzQuMTI1IDU2Mi44NzUsMTM2LjkzNzUgWiBNNTYyLjg3NSwxMjcuNzUgUTU2Mi44NzUsMTI3Ljc1IDU2Mi44NzUsMTMwLjU2MjUgTDU2NC42MjUsMTMwLjU2MjUgUTU2NC42MjUsMTMwLjU2MjUgNTY0LjYyNSwxMjcuNzUgTDU2Mi44NzUsMTI3Ljc1IFogTTU1OC42MjUsMTI4LjQzNzUgTDU2My41NjI1LDEyOC40Mzc1IEw1NjMuNTYyNSwxMjYuNjg3NSBMNTU4LjYyNSwxMjYuNjg3NSBMNTU4LjYyNSwxMjguNDM3NSBaICIgZmlsbD0iIzAwMDAwMCIvPjx0ZXh0IGZpbGw9IiMwMDAwMDAiIGZvbnQtZmFtaWx5PSJzYW5zLXNlcmlmIiBmb250LXNpemU9IjE0IiBsZW5ndGhBZGp1c3Q9InNwYWNpbmciIHRleHRMZW5ndGg9IjQ5IiB4PSI1NzUiIHk9IjEzNy43NDIyIj5NYWluQXBwPC90ZXh0PjxsaW5lIHN0eWxlPSJzdHJva2U6IzE4MTgxODtzdHJva2Utd2lkdGg6MC41OyIgeDE9IjU0NyIgeDI9IjYyNiIgeTE9IjE0OCIgeTI9IjE0OCIvPjxsaW5lIHN0eWxlPSJzdHJva2U6IzE4MTgxODtzdHJva2Utd2lkdGg6MC41OyIgeDE9IjU0NyIgeDI9IjYyNiIgeTE9IjE1NiIgeTI9IjE1NiIvPjwvZz48IS0tY2xhc3MgSkFXU0dhbWUtLT48ZyBpZD0iZWxlbV9KQVdTR2FtZSI+PHJlY3QgY29kZUxpbmU9IjQiIGZpbGw9IiNGMUYxRjEiIGhlaWdodD0iNDgiIGlkPSJKQVdTR2FtZSIgcng9IjIuNSIgcnk9IjIuNSIgc3R5bGU9InN0cm9rZTojMTgxODE4O3N0cm9rZS13aWR0aDowLjU7IiB3aWR0aD0iOTAiIHg9IjI0Ni41IiB5PSIzMzQiLz48ZWxsaXBzZSBjeD0iMjYxLjUiIGN5PSIzNTAiIGZpbGw9IiNBREQxQjIiIHJ4PSIxMSIgcnk9IjExIiBzdHlsZT0ic3Ryb2tlOiMxODE4MTg7c3Ryb2tlLXdpZHRoOjEuMDsiLz48cGF0aCBkPSJNMjU5LjEyNSwzNTQuMjUgTDI1OS4xMjUsMzU2IEwyNjQuMDYyNSwzNTYgTDI2NC4wNjI1LDM1NC4yNSBMMjU5LjEyNSwzNTQuMjUgWiBNMjU5LjgxMjUsMzU0LjkzNzUgUTI1OS44MTI1LDM1NC45Mzc1IDI1OS44MTI1LDM0NS43NSBMMjU4LjA2MjUsMzQ1Ljc1IFEyNTguMDYyNSwzNDUuNzUgMjU4LjA2MjUsMzU0LjkzNzUgTDI1OS44MTI1LDM1NC45Mzc1IFogTTI2My4zNzUsMzU0LjkzNzUgTDI2NS4xMjUsMzU0LjkzNzUgUTI2NS4xMjUsMzU0LjkzNzUgMjY1LjEyNSwzNTIuMTI1IEwyNjMuMzc1LDM1Mi4xMjUgUTI2My4zNzUsMzUyLjEyNSAyNjMuMzc1LDM1NC45Mzc1IFogTTI2My4zNzUsMzQ1Ljc1IFEyNjMuMzc1LDM0NS43NSAyNjMuMzc1LDM0OC41NjI1IEwyNjUuMTI1LDM0OC41NjI1IFEyNjUuMTI1LDM0OC41NjI1IDI2NS4xMjUsMzQ1Ljc1IEwyNjMuMzc1LDM0NS43NSBaIE0yNTkuMTI1LDM0Ni40Mzc1IEwyNjQuMDYyNSwzNDYuNDM3NSBMMjY0LjA2MjUsMzQ0LjY4NzUgTDI1OS4xMjUsMzQ0LjY4NzUgTDI1OS4xMjUsMzQ2LjQzNzUgWiAiIGZpbGw9IiMwMDAwMDAiLz48dGV4dCBmaWxsPSIjMDAwMDAwIiBmb250LWZhbWlseT0ic2Fucy1zZXJpZiIgZm9udC1zaXplPSIxNCIgbGVuZ3RoQWRqdXN0PSJzcGFjaW5nIiB0ZXh0TGVuZ3RoPSI1OCIgeD0iMjc1LjUiIHk9IjM1NS43NDIyIj5KQVdTR2FtZTwvdGV4dD48bGluZSBzdHlsZT0ic3Ryb2tlOiMxODE4MTg7c3Ryb2tlLXdpZHRoOjAuNTsiIHgxPSIyNDcuNSIgeDI9IjMzNS41IiB5MT0iMzY2IiB5Mj0iMzY2Ii8+PGxpbmUgc3R5bGU9InN0cm9rZTojMTgxODE4O3N0cm9rZS13aWR0aDowLjU7IiB4MT0iMjQ3LjUiIHgyPSIzMzUuNSIgeTE9IjM3NCIgeTI9IjM3NCIvPjwvZz48IS0tY2xhc3MgU2hhcmtGaWVsZC0tPjxnIGlkPSJlbGVtX1NoYXJrRmllbGQiPjxyZWN0IGNvZGVMaW5lPSI3IiBmaWxsPSIjRjFGMUYxIiBoZWlnaHQ9IjQ4IiBpZD0iU2hhcmtGaWVsZCIgcng9IjIuNSIgcnk9IjIuNSIgc3R5bGU9InN0cm9rZTojMTgxODE4O3N0cm9rZS13aWR0aDowLjU7IiB3aWR0aD0iMTAyIiB4PSIxMDQuNSIgeT0iNDU3Ii8+PGVsbGlwc2UgY3g9IjExOS41IiBjeT0iNDczIiBmaWxsPSIjQUREMUIyIiByeD0iMTEiIHJ5PSIxMSIgc3R5bGU9InN0cm9rZTojMTgxODE4O3N0cm9rZS13aWR0aDoxLjA7Ii8+PHBhdGggZD0iTTExNy4xMjUsNDc3LjI1IEwxMTcuMTI1LDQ3OSBMMTIyLjA2MjUsNDc5IEwxMjIuMDYyNSw0NzcuMjUgTDExNy4xMjUsNDc3LjI1IFogTTExNy44MTI1LDQ3Ny45Mzc1IFExMTcuODEyNSw0NzcuOTM3NSAxMTcuODEyNSw0NjguNzUgTDExNi4wNjI1LDQ2OC43NSBRMTE2LjA2MjUsNDY4Ljc1IDExNi4wNjI1LDQ3Ny45Mzc1IEwxMTcuODEyNSw0NzcuOTM3NSBaIE0xMjEuMzc1LDQ3Ny45Mzc1IEwxMjMuMTI1LDQ3Ny45Mzc1IFExMjMuMTI1LDQ3Ny45Mzc1IDEyMy4xMjUsNDc1LjEyNSBMMTIxLjM3NSw0NzUuMTI1IFExMjEuMzc1LDQ3NS4xMjUgMTIxLjM3NSw0NzcuOTM3NSBaIE0xMjEuMzc1LDQ2OC43NSBRMTIxLjM3NSw0NjguNzUgMTIxLjM3NSw0NzEuNTYyNSBMMTIzLjEyNSw0NzEuNTYyNSBRMTIzLjEyNSw0NzEuNTYyNSAxMjMuMTI1LDQ2OC43NSBMMTIxLjM3NSw0NjguNzUgWiBNMTE3LjEyNSw0NjkuNDM3NSBMMTIyLjA2MjUsNDY5LjQzNzUgTDEyMi4wNjI1LDQ2Ny42ODc1IEwxMTcuMTI1LDQ2Ny42ODc1IEwxMTcuMTI1LDQ2OS40Mzc1IFogIiBmaWxsPSIjMDAwMDAwIi8+PHRleHQgZmlsbD0iIzAwMDAwMCIgZm9udC1mYW1pbHk9InNhbnMtc2VyaWYiIGZvbnQtc2l6ZT0iMTQiIGxlbmd0aEFkanVzdD0ic3BhY2luZyIgdGV4dExlbmd0aD0iNzAiIHg9IjEzMy41IiB5PSI0NzguNzQyMiI+U2hhcmtGaWVsZDwvdGV4dD48bGluZSBzdHlsZT0ic3Ryb2tlOiMxODE4MTg7c3Ryb2tlLXdpZHRoOjAuNTsiIHgxPSIxMDUuNSIgeDI9IjIwNS41IiB5MT0iNDg5IiB5Mj0iNDg5Ii8+PGxpbmUgc3R5bGU9InN0cm9rZTojMTgxODE4O3N0cm9rZS13aWR0aDowLjU7IiB4MT0iMTA1LjUiIHgyPSIyMDUuNSIgeTE9IjQ5NyIgeTI9IjQ5NyIvPjwvZz48IS0tY2xhc3MgQ291bnRlci0tPjxnIGlkPSJlbGVtX0NvdW50ZXIiPjxyZWN0IGNvZGVMaW5lPSIxMCIgZmlsbD0iI0YxRjFGMSIgaGVpZ2h0PSI0OCIgaWQ9IkNvdW50ZXIiIHJ4PSIyLjUiIHJ5PSIyLjUiIHN0eWxlPSJzdHJva2U6IzE4MTgxODtzdHJva2Utd2lkdGg6MC41OyIgd2lkdGg9IjgxIiB4PSIyNDIiIHk9IjQ1NyIvPjxlbGxpcHNlIGN4PSIyNTciIGN5PSI0NzMiIGZpbGw9IiNBREQxQjIiIHJ4PSIxMSIgcnk9IjExIiBzdHlsZT0ic3Ryb2tlOiMxODE4MTg7c3Ryb2tlLXdpZHRoOjEuMDsiLz48cGF0aCBkPSJNMjU0LjYyNSw0NzcuMjUgTDI1NC42MjUsNDc5IEwyNTkuNTYyNSw0NzkgTDI1OS41NjI1LDQ3Ny4yNSBMMjU0LjYyNSw0NzcuMjUgWiBNMjU1LjMxMjUsNDc3LjkzNzUgUTI1NS4zMTI1LDQ3Ny45Mzc1IDI1NS4zMTI1LDQ2OC43NSBMMjUzLjU2MjUsNDY4Ljc1IFEyNTMuNTYyNSw0NjguNzUgMjUzLjU2MjUsNDc3LjkzNzUgTDI1NS4zMTI1LDQ3Ny45Mzc1IFogTTI1OC44NzUsNDc3LjkzNzUgTDI2MC42MjUsNDc3LjkzNzUgUTI2MC42MjUsNDc3LjkzNzUgMjYwLjYyNSw0NzUuMTI1IEwyNTguODc1LDQ3NS4xMjUgUTI1OC44NzUsNDc1LjEyNSAyNTguODc1LDQ3Ny45Mzc1IFogTTI1OC44NzUsNDY4Ljc1IFEyNTguODc1LDQ2OC43NSAyNTguODc1LDQ3MS41NjI1IEwyNjAuNjI1LDQ3MS41NjI1IFEyNjAuNjI1LDQ3MS41NjI1IDI2MC42MjUsNDY4Ljc1IEwyNTguODc1LDQ2OC43NSBaIE0yNTQuNjI1LDQ2OS40Mzc1IEwyNTkuNTYyNSw0NjkuNDM3NSBMMjU5LjU2MjUsNDY3LjY4NzUgTDI1NC42MjUsNDY3LjY4NzUgTDI1NC42MjUsNDY5LjQzNzUgWiAiIGZpbGw9IiMwMDAwMDAiLz48dGV4dCBmaWxsPSIjMDAwMDAwIiBmb250LWZhbWlseT0ic2Fucy1zZXJpZiIgZm9udC1zaXplPSIxNCIgbGVuZ3RoQWRqdXN0PSJzcGFjaW5nIiB0ZXh0TGVuZ3RoPSI0OSIgeD0iMjcxIiB5PSI0NzguNzQyMiI+Q291bnRlcjwvdGV4dD48bGluZSBzdHlsZT0ic3Ryb2tlOiMxODE4MTg7c3Ryb2tlLXdpZHRoOjAuNTsiIHgxPSIyNDMiIHgyPSIzMjIiIHkxPSI0ODkiIHkyPSI0ODkiLz48bGluZSBzdHlsZT0ic3Ryb2tlOiMxODE4MTg7c3Ryb2tlLXdpZHRoOjAuNTsiIHgxPSIyNDMiIHgyPSIzMjIiIHkxPSI0OTciIHkyPSI0OTciLz48L2c+PCEtLWNsYXNzIFRpbWVDb3VudGVyLS0+PGcgaWQ9ImVsZW1fVGltZUNvdW50ZXIiPjxyZWN0IGNvZGVMaW5lPSIxMyIgZmlsbD0iI0YxRjFGMSIgaGVpZ2h0PSI0OCIgaWQ9IlRpbWVDb3VudGVyIiByeD0iMi41IiByeT0iMi41IiBzdHlsZT0ic3Ryb2tlOiMxODE4MTg7c3Ryb2tlLXdpZHRoOjAuNTsiIHdpZHRoPSIxMTAiIHg9IjMyMS41IiB5PSI1ODAiLz48ZWxsaXBzZSBjeD0iMzM2LjUiIGN5PSI1OTYiIGZpbGw9IiNBREQxQjIiIHJ4PSIxMSIgcnk9IjExIiBzdHlsZT0ic3Ryb2tlOiMxODE4MTg7c3Ryb2tlLXdpZHRoOjEuMDsiLz48cGF0aCBkPSJNMzM0LjEyNSw2MDAuMjUgTDMzNC4xMjUsNjAyIEwzMzkuMDYyNSw2MDIgTDMzOS4wNjI1LDYwMC4yNSBMMzM0LjEyNSw2MDAuMjUgWiBNMzM0LjgxMjUsNjAwLjkzNzUgUTMzNC44MTI1LDYwMC45Mzc1IDMzNC44MTI1LDU5MS43NSBMMzMzLjA2MjUsNTkxLjc1IFEzMzMuMDYyNSw1OTEuNzUgMzMzLjA2MjUsNjAwLjkzNzUgTDMzNC44MTI1LDYwMC45Mzc1IFogTTMzOC4zNzUsNjAwLjkzNzUgTDM0MC4xMjUsNjAwLjkzNzUgUTM0MC4xMjUsNjAwLjkzNzUgMzQwLjEyNSw1OTguMTI1IEwzMzguMzc1LDU5OC4xMjUgUTMzOC4zNzUsNTk4LjEyNSAzMzguMzc1LDYwMC45Mzc1IFogTTMzOC4zNzUsNTkxLjc1IFEzMzguMzc1LDU5MS43NSAzMzguMzc1LDU5NC41NjI1IEwzNDAuMTI1LDU5NC41NjI1IFEzNDAuMTI1LDU5NC41NjI1IDM0MC4xMjUsNTkxLjc1IEwzMzguMzc1LDU5MS43NSBaIE0zMzQuMTI1LDU5Mi40Mzc1IEwzMzkuMDYyNSw1OTIuNDM3NSBMMzM5LjA2MjUsNTkwLjY4NzUgTDMzNC4xMjUsNTkwLjY4NzUgTDMzNC4xMjUsNTkyLjQzNzUgWiAiIGZpbGw9IiMwMDAwMDAiLz48dGV4dCBmaWxsPSIjMDAwMDAwIiBmb250LWZhbWlseT0ic2Fucy1zZXJpZiIgZm9udC1zaXplPSIxNCIgbGVuZ3RoQWRqdXN0PSJzcGFjaW5nIiB0ZXh0TGVuZ3RoPSI3OCIgeD0iMzUwLjUiIHk9IjYwMS43NDIyIj5UaW1lQ291bnRlcjwvdGV4dD48bGluZSBzdHlsZT0ic3Ryb2tlOiMxODE4MTg7c3Ryb2tlLXdpZHRoOjAuNTsiIHgxPSIzMjIuNSIgeDI9IjQzMC41IiB5MT0iNjEyIiB5Mj0iNjEyIi8+PGxpbmUgc3R5bGU9InN0cm9rZTojMTgxODE4O3N0cm9rZS13aWR0aDowLjU7IiB4MT0iMzIyLjUiIHgyPSI0MzAuNSIgeTE9IjYyMCIgeTI9IjYyMCIvPjwvZz48IS0tY2xhc3MgVGlsZS0tPjxnIGlkPSJlbGVtX1RpbGUiPjxyZWN0IGNvZGVMaW5lPSIxNiIgZmlsbD0iI0YxRjFGMSIgaGVpZ2h0PSI0OCIgaWQ9IlRpbGUiIHJ4PSIyLjUiIHJ5PSIyLjUiIHN0eWxlPSJzdHJva2U6IzE4MTgxODtzdHJva2Utd2lkdGg6MC41OyIgd2lkdGg9IjYwIiB4PSIxNzguNSIgeT0iNTgwIi8+PGVsbGlwc2UgY3g9IjE5My41IiBjeT0iNTk2IiBmaWxsPSIjQUREMUIyIiByeD0iMTEiIHJ5PSIxMSIgc3R5bGU9InN0cm9rZTojMTgxODE4O3N0cm9rZS13aWR0aDoxLjA7Ii8+PHBhdGggZD0iTTE5MS4xMjUsNjAwLjI1IEwxOTEuMTI1LDYwMiBMMTk2LjA2MjUsNjAyIEwxOTYuMDYyNSw2MDAuMjUgTDE5MS4xMjUsNjAwLjI1IFogTTE5MS44MTI1LDYwMC45Mzc1IFExOTEuODEyNSw2MDAuOTM3NSAxOTEuODEyNSw1OTEuNzUgTDE5MC4wNjI1LDU5MS43NSBRMTkwLjA2MjUsNTkxLjc1IDE5MC4wNjI1LDYwMC45Mzc1IEwxOTEuODEyNSw2MDAuOTM3NSBaIE0xOTUuMzc1LDYwMC45Mzc1IEwxOTcuMTI1LDYwMC45Mzc1IFExOTcuMTI1LDYwMC45Mzc1IDE5Ny4xMjUsNTk4LjEyNSBMMTk1LjM3NSw1OTguMTI1IFExOTUuMzc1LDU5OC4xMjUgMTk1LjM3NSw2MDAuOTM3NSBaIE0xOTUuMzc1LDU5MS43NSBRMTk1LjM3NSw1OTEuNzUgMTk1LjM3NSw1OTQuNTYyNSBMMTk3LjEyNSw1OTQuNTYyNSBRMTk3LjEyNSw1OTQuNTYyNSAxOTcuMTI1LDU5MS43NSBMMTk1LjM3NSw1OTEuNzUgWiBNMTkxLjEyNSw1OTIuNDM3NSBMMTk2LjA2MjUsNTkyLjQzNzUgTDE5Ni4wNjI1LDU5MC42ODc1IEwxOTEuMTI1LDU5MC42ODc1IEwxOTEuMTI1LDU5Mi40Mzc1IFogIiBmaWxsPSIjMDAwMDAwIi8+PHRleHQgZmlsbD0iIzAwMDAwMCIgZm9udC1mYW1pbHk9InNhbnMtc2VyaWYiIGZvbnQtc2l6ZT0iMTQiIGxlbmd0aEFkanVzdD0ic3BhY2luZyIgdGV4dExlbmd0aD0iMjgiIHg9IjIwNy41IiB5PSI2MDEuNzQyMiI+VGlsZTwvdGV4dD48bGluZSBzdHlsZT0ic3Ryb2tlOiMxODE4MTg7c3Ryb2tlLXdpZHRoOjAuNTsiIHgxPSIxNzkuNSIgeDI9IjIzNy41IiB5MT0iNjEyIiB5Mj0iNjEyIi8+PGxpbmUgc3R5bGU9InN0cm9rZTojMTgxODE4O3N0cm9rZS13aWR0aDowLjU7IiB4MT0iMTc5LjUiIHgyPSIyMzcuNSIgeTE9IjYyMCIgeTI9IjYyMCIvPjwvZz48IS0tY2xhc3MgU2hhcmtUaWxlLS0+PGcgaWQ9ImVsZW1fU2hhcmtUaWxlIj48cmVjdCBjb2RlTGluZT0iMTkiIGZpbGw9IiNGMUYxRjEiIGhlaWdodD0iNDgiIGlkPSJTaGFya1RpbGUiIHJ4PSIyLjUiIHJ5PSIyLjUiIHN0eWxlPSJzdHJva2U6IzE4MTgxODtzdHJva2Utd2lkdGg6MC41OyIgd2lkdGg9Ijk1IiB4PSI3IiB5PSI3MDMiLz48ZWxsaXBzZSBjeD0iMjIiIGN5PSI3MTkiIGZpbGw9IiNBREQxQjIiIHJ4PSIxMSIgcnk9IjExIiBzdHlsZT0ic3Ryb2tlOiMxODE4MTg7c3Ryb2tlLXdpZHRoOjEuMDsiLz48cGF0aCBkPSJNMTkuNjI1LDcyMy4yNSBMMTkuNjI1LDcyNSBMMjQuNTYyNSw3MjUgTDI0LjU2MjUsNzIzLjI1IEwxOS42MjUsNzIzLjI1IFogTTIwLjMxMjUsNzIzLjkzNzUgUTIwLjMxMjUsNzIzLjkzNzUgMjAuMzEyNSw3MTQuNzUgTDE4LjU2MjUsNzE0Ljc1IFExOC41NjI1LDcxNC43NSAxOC41NjI1LDcyMy45Mzc1IEwyMC4zMTI1LDcyMy45Mzc1IFogTTIzLjg3NSw3MjMuOTM3NSBMMjUuNjI1LDcyMy45Mzc1IFEyNS42MjUsNzIzLjkzNzUgMjUuNjI1LDcyMS4xMjUgTDIzLjg3NSw3MjEuMTI1IFEyMy44NzUsNzIxLjEyNSAyMy44NzUsNzIzLjkzNzUgWiBNMjMuODc1LDcxNC43NSBRMjMuODc1LDcxNC43NSAyMy44NzUsNzE3LjU2MjUgTDI1LjYyNSw3MTcuNTYyNSBRMjUuNjI1LDcxNy41NjI1IDI1LjYyNSw3MTQuNzUgTDIzLjg3NSw3MTQuNzUgWiBNMTkuNjI1LDcxNS40Mzc1IEwyNC41NjI1LDcxNS40Mzc1IEwyNC41NjI1LDcxMy42ODc1IEwxOS42MjUsNzEzLjY4NzUgTDE5LjYyNSw3MTUuNDM3NSBaICIgZmlsbD0iIzAwMDAwMCIvPjx0ZXh0IGZpbGw9IiMwMDAwMDAiIGZvbnQtZmFtaWx5PSJzYW5zLXNlcmlmIiBmb250LXNpemU9IjE0IiBsZW5ndGhBZGp1c3Q9InNwYWNpbmciIHRleHRMZW5ndGg9IjYzIiB4PSIzNiIgeT0iNzI0Ljc0MjIiPlNoYXJrVGlsZTwvdGV4dD48bGluZSBzdHlsZT0ic3Ryb2tlOiMxODE4MTg7c3Ryb2tlLXdpZHRoOjAuNTsiIHgxPSI4IiB4Mj0iMTAxIiB5MT0iNzM1IiB5Mj0iNzM1Ii8+PGxpbmUgc3R5bGU9InN0cm9rZTojMTgxODE4O3N0cm9rZS13aWR0aDowLjU7IiB4MT0iOCIgeDI9IjEwMSIgeTE9Ijc0MyIgeTI9Ijc0MyIvPjwvZz48IS0tY2xhc3MgVmFjYW50VGlsZS0tPjxnIGlkPSJlbGVtX1ZhY2FudFRpbGUiPjxyZWN0IGNvZGVMaW5lPSIyMiIgZmlsbD0iI0YxRjFGMSIgaGVpZ2h0PSI0OCIgaWQ9IlZhY2FudFRpbGUiIHJ4PSIyLjUiIHJ5PSIyLjUiIHN0eWxlPSJzdHJva2U6IzE4MTgxODtzdHJva2Utd2lkdGg6MC41OyIgd2lkdGg9IjEwMiIgeD0iMTU3LjUiIHk9IjcwMyIvPjxlbGxpcHNlIGN4PSIxNzIuNSIgY3k9IjcxOSIgZmlsbD0iI0FERDFCMiIgcng9IjExIiByeT0iMTEiIHN0eWxlPSJzdHJva2U6IzE4MTgxODtzdHJva2Utd2lkdGg6MS4wOyIvPjxwYXRoIGQ9Ik0xNzAuMTI1LDcyMy4yNSBMMTcwLjEyNSw3MjUgTDE3NS4wNjI1LDcyNSBMMTc1LjA2MjUsNzIzLjI1IEwxNzAuMTI1LDcyMy4yNSBaIE0xNzAuODEyNSw3MjMuOTM3NSBRMTcwLjgxMjUsNzIzLjkzNzUgMTcwLjgxMjUsNzE0Ljc1IEwxNjkuMDYyNSw3MTQuNzUgUTE2OS4wNjI1LDcxNC43NSAxNjkuMDYyNSw3MjMuOTM3NSBMMTcwLjgxMjUsNzIzLjkzNzUgWiBNMTc0LjM3NSw3MjMuOTM3NSBMMTc2LjEyNSw3MjMuOTM3NSBRMTc2LjEyNSw3MjMuOTM3NSAxNzYuMTI1LDcyMS4xMjUgTDE3NC4zNzUsNzIxLjEyNSBRMTc0LjM3NSw3MjEuMTI1IDE3NC4zNzUsNzIzLjkzNzUgWiBNMTc0LjM3NSw3MTQuNzUgUTE3NC4zNzUsNzE0Ljc1IDE3NC4zNzUsNzE3LjU2MjUgTDE3Ni4xMjUsNzE3LjU2MjUgUTE3Ni4xMjUsNzE3LjU2MjUgMTc2LjEyNSw3MTQuNzUgTDE3NC4zNzUsNzE0Ljc1IFogTTE3MC4xMjUsNzE1LjQzNzUgTDE3NS4wNjI1LDcxNS40Mzc1IEwxNzUuMDYyNSw3MTMuNjg3NSBMMTcwLjEyNSw3MTMuNjg3NSBMMTcwLjEyNSw3MTUuNDM3NSBaICIgZmlsbD0iIzAwMDAwMCIvPjx0ZXh0IGZpbGw9IiMwMDAwMDAiIGZvbnQtZmFtaWx5PSJzYW5zLXNlcmlmIiBmb250LXNpemU9IjE0IiBsZW5ndGhBZGp1c3Q9InNwYWNpbmciIHRleHRMZW5ndGg9IjcwIiB4PSIxODYuNSIgeT0iNzI0Ljc0MjIiPlZhY2FudFRpbGU8L3RleHQ+PGxpbmUgc3R5bGU9InN0cm9rZTojMTgxODE4O3N0cm9rZS13aWR0aDowLjU7IiB4MT0iMTU4LjUiIHgyPSIyNTguNSIgeTE9IjczNSIgeTI9IjczNSIvPjxsaW5lIHN0eWxlPSJzdHJva2U6IzE4MTgxODtzdHJva2Utd2lkdGg6MC41OyIgeDE9IjE1OC41IiB4Mj0iMjU4LjUiIHkxPSI3NDMiIHkyPSI3NDMiLz48L2c+PCEtLWNsYXNzIE51bWJlck9mVGlsZS0tPjxnIGlkPSJlbGVtX051bWJlck9mVGlsZSI+PHJlY3QgY29kZUxpbmU9IjI1IiBmaWxsPSIjRjFGMUYxIiBoZWlnaHQ9IjQ4IiBpZD0iTnVtYmVyT2ZUaWxlIiByeD0iMi41IiByeT0iMi41IiBzdHlsZT0ic3Ryb2tlOiMxODE4MTg7c3Ryb2tlLXdpZHRoOjAuNTsiIHdpZHRoPSIxMTciIHg9IjMwNSIgeT0iNzAzIi8+PGVsbGlwc2UgY3g9IjMyMCIgY3k9IjcxOSIgZmlsbD0iI0FERDFCMiIgcng9IjExIiByeT0iMTEiIHN0eWxlPSJzdHJva2U6IzE4MTgxODtzdHJva2Utd2lkdGg6MS4wOyIvPjxwYXRoIGQ9Ik0zMTcuNjI1LDcyMy4yNSBMMzE3LjYyNSw3MjUgTDMyMi41NjI1LDcyNSBMMzIyLjU2MjUsNzIzLjI1IEwzMTcuNjI1LDcyMy4yNSBaIE0zMTguMzEyNSw3MjMuOTM3NSBRMzE4LjMxMjUsNzIzLjkzNzUgMzE4LjMxMjUsNzE0Ljc1IEwzMTYuNTYyNSw3MTQuNzUgUTMxNi41NjI1LDcxNC43NSAzMTYuNTYyNSw3MjMuOTM3NSBMMzE4LjMxMjUsNzIzLjkzNzUgWiBNMzIxLjg3NSw3MjMuOTM3NSBMMzIzLjYyNSw3MjMuOTM3NSBRMzIzLjYyNSw3MjMuOTM3NSAzMjMuNjI1LDcyMS4xMjUgTDMyMS44NzUsNzIxLjEyNSBRMzIxLjg3NSw3MjEuMTI1IDMyMS44NzUsNzIzLjkzNzUgWiBNMzIxLjg3NSw3MTQuNzUgUTMyMS44NzUsNzE0Ljc1IDMyMS44NzUsNzE3LjU2MjUgTDMyMy42MjUsNzE3LjU2MjUgUTMyMy42MjUsNzE3LjU2MjUgMzIzLjYyNSw3MTQuNzUgTDMyMS44NzUsNzE0Ljc1IFogTTMxNy42MjUsNzE1LjQzNzUgTDMyMi41NjI1LDcxNS40Mzc1IEwzMjIuNTYyNSw3MTMuNjg3NSBMMzE3LjYyNSw3MTMuNjg3NSBMMzE3LjYyNSw3MTUuNDM3NSBaICIgZmlsbD0iIzAwMDAwMCIvPjx0ZXh0IGZpbGw9IiMwMDAwMDAiIGZvbnQtZmFtaWx5PSJzYW5zLXNlcmlmIiBmb250LXNpemU9IjE0IiBsZW5ndGhBZGp1c3Q9InNwYWNpbmciIHRleHRMZW5ndGg9Ijg1IiB4PSIzMzQiIHk9IjcyNC43NDIyIj5OdW1iZXJPZlRpbGU8L3RleHQ+PGxpbmUgc3R5bGU9InN0cm9rZTojMTgxODE4O3N0cm9rZS13aWR0aDowLjU7IiB4MT0iMzA2IiB4Mj0iNDIxIiB5MT0iNzM1IiB5Mj0iNzM1Ii8+PGxpbmUgc3R5bGU9InN0cm9rZTojMTgxODE4O3N0cm9rZS13aWR0aDowLjU7IiB4MT0iMzA2IiB4Mj0iNDIxIiB5MT0iNzQzIiB5Mj0iNzQzIi8+PC9nPjwhLS1jbGFzcyBNYWluQ29udHJvbGxlci0tPjxnIGlkPSJlbGVtX01haW5Db250cm9sbGVyIj48cmVjdCBjb2RlTGluZT0iMjgiIGZpbGw9IiNGMUYxRjEiIGhlaWdodD0iNDgiIGlkPSJNYWluQ29udHJvbGxlciIgcng9IjIuNSIgcnk9IjIuNSIgc3R5bGU9InN0cm9rZTojMTgxODE4O3N0cm9rZS13aWR0aDowLjU7IiB3aWR0aD0iMTMwIiB4PSIzNTkuNSIgeT0iMjI1Ii8+PGVsbGlwc2UgY3g9IjM3NC41IiBjeT0iMjQxIiBmaWxsPSIjQUREMUIyIiByeD0iMTEiIHJ5PSIxMSIgc3R5bGU9InN0cm9rZTojMTgxODE4O3N0cm9rZS13aWR0aDoxLjA7Ii8+PHBhdGggZD0iTTM3Mi4xMjUsMjQ1LjI1IEwzNzIuMTI1LDI0NyBMMzc3LjA2MjUsMjQ3IEwzNzcuMDYyNSwyNDUuMjUgTDM3Mi4xMjUsMjQ1LjI1IFogTTM3Mi44MTI1LDI0NS45Mzc1IFEzNzIuODEyNSwyNDUuOTM3NSAzNzIuODEyNSwyMzYuNzUgTDM3MS4wNjI1LDIzNi43NSBRMzcxLjA2MjUsMjM2Ljc1IDM3MS4wNjI1LDI0NS45Mzc1IEwzNzIuODEyNSwyNDUuOTM3NSBaIE0zNzYuMzc1LDI0NS45Mzc1IEwzNzguMTI1LDI0NS45Mzc1IFEzNzguMTI1LDI0NS45Mzc1IDM3OC4xMjUsMjQzLjEyNSBMMzc2LjM3NSwyNDMuMTI1IFEzNzYuMzc1LDI0My4xMjUgMzc2LjM3NSwyNDUuOTM3NSBaIE0zNzYuMzc1LDIzNi43NSBRMzc2LjM3NSwyMzYuNzUgMzc2LjM3NSwyMzkuNTYyNSBMMzc4LjEyNSwyMzkuNTYyNSBRMzc4LjEyNSwyMzkuNTYyNSAzNzguMTI1LDIzNi43NSBMMzc2LjM3NSwyMzYuNzUgWiBNMzcyLjEyNSwyMzcuNDM3NSBMMzc3LjA2MjUsMjM3LjQzNzUgTDM3Ny4wNjI1LDIzNS42ODc1IEwzNzIuMTI1LDIzNS42ODc1IEwzNzIuMTI1LDIzNy40Mzc1IFogIiBmaWxsPSIjMDAwMDAwIi8+PHRleHQgZmlsbD0iIzAwMDAwMCIgZm9udC1mYW1pbHk9InNhbnMtc2VyaWYiIGZvbnQtc2l6ZT0iMTQiIGxlbmd0aEFkanVzdD0ic3BhY2luZyIgdGV4dExlbmd0aD0iOTgiIHg9IjM4OC41IiB5PSIyNDYuNzQyMiI+TWFpbkNvbnRyb2xsZXI8L3RleHQ+PGxpbmUgc3R5bGU9InN0cm9rZTojMTgxODE4O3N0cm9rZS13aWR0aDowLjU7IiB4MT0iMzYwLjUiIHgyPSI0ODguNSIgeTE9IjI1NyIgeTI9IjI1NyIvPjxsaW5lIHN0eWxlPSJzdHJva2U6IzE4MTgxODtzdHJva2Utd2lkdGg6MC41OyIgeDE9IjM2MC41IiB4Mj0iNDg4LjUiIHkxPSIyNjUiIHkyPSIyNjUiLz48L2c+PCEtLWNsYXNzIEJhckNvbnRyb2xsZXItLT48ZyBpZD0iZWxlbV9CYXJDb250cm9sbGVyIj48cmVjdCBjb2RlTGluZT0iMzEiIGZpbGw9IiNGMUYxRjEiIGhlaWdodD0iNDgiIGlkPSJCYXJDb250cm9sbGVyIiByeD0iMi41IiByeT0iMi41IiBzdHlsZT0ic3Ryb2tlOiMxODE4MTg7c3Ryb2tlLXdpZHRoOjAuNTsiIHdpZHRoPSIxMjMiIHg9IjUyNSIgeT0iMjI1Ii8+PGVsbGlwc2UgY3g9IjU0MCIgY3k9IjI0MSIgZmlsbD0iI0FERDFCMiIgcng9IjExIiByeT0iMTEiIHN0eWxlPSJzdHJva2U6IzE4MTgxODtzdHJva2Utd2lkdGg6MS4wOyIvPjxwYXRoIGQ9Ik01MzcuNjI1LDI0NS4yNSBMNTM3LjYyNSwyNDcgTDU0Mi41NjI1LDI0NyBMNTQyLjU2MjUsMjQ1LjI1IEw1MzcuNjI1LDI0NS4yNSBaIE01MzguMzEyNSwyNDUuOTM3NSBRNTM4LjMxMjUsMjQ1LjkzNzUgNTM4LjMxMjUsMjM2Ljc1IEw1MzYuNTYyNSwyMzYuNzUgUTUzNi41NjI1LDIzNi43NSA1MzYuNTYyNSwyNDUuOTM3NSBMNTM4LjMxMjUsMjQ1LjkzNzUgWiBNNTQxLjg3NSwyNDUuOTM3NSBMNTQzLjYyNSwyNDUuOTM3NSBRNTQzLjYyNSwyNDUuOTM3NSA1NDMuNjI1LDI0My4xMjUgTDU0MS44NzUsMjQzLjEyNSBRNTQxLjg3NSwyNDMuMTI1IDU0MS44NzUsMjQ1LjkzNzUgWiBNNTQxLjg3NSwyMzYuNzUgUTU0MS44NzUsMjM2Ljc1IDU0MS44NzUsMjM5LjU2MjUgTDU0My42MjUsMjM5LjU2MjUgUTU0My42MjUsMjM5LjU2MjUgNTQzLjYyNSwyMzYuNzUgTDU0MS44NzUsMjM2Ljc1IFogTTUzNy42MjUsMjM3LjQzNzUgTDU0Mi41NjI1LDIzNy40Mzc1IEw1NDIuNTYyNSwyMzUuNjg3NSBMNTM3LjYyNSwyMzUuNjg3NSBMNTM3LjYyNSwyMzcuNDM3NSBaICIgZmlsbD0iIzAwMDAwMCIvPjx0ZXh0IGZpbGw9IiMwMDAwMDAiIGZvbnQtZmFtaWx5PSJzYW5zLXNlcmlmIiBmb250LXNpemU9IjE0IiBsZW5ndGhBZGp1c3Q9InNwYWNpbmciIHRleHRMZW5ndGg9IjkxIiB4PSI1NTQiIHk9IjI0Ni43NDIyIj5CYXJDb250cm9sbGVyPC90ZXh0PjxsaW5lIHN0eWxlPSJzdHJva2U6IzE4MTgxODtzdHJva2Utd2lkdGg6MC41OyIgeDE9IjUyNiIgeDI9IjY0NyIgeTE9IjI1NyIgeTI9IjI1NyIvPjxsaW5lIHN0eWxlPSJzdHJva2U6IzE4MTgxODtzdHJva2Utd2lkdGg6MC41OyIgeDE9IjUyNiIgeDI9IjY0NyIgeTE9IjI2NSIgeTI9IjI2NSIvPjwvZz48IS0tY2xhc3MgbWFpbk1lbnVDb250cm9sbGVyLS0+PGcgaWQ9ImVsZW1fbWFpbk1lbnVDb250cm9sbGVyIj48cmVjdCBjb2RlTGluZT0iMzQiIGZpbGw9IiNGMUYxRjEiIGhlaWdodD0iNDgiIGlkPSJtYWluTWVudUNvbnRyb2xsZXIiIHJ4PSIyLjUiIHJ5PSIyLjUiIHN0eWxlPSJzdHJva2U6IzE4MTgxODtzdHJva2Utd2lkdGg6MC41OyIgd2lkdGg9IjE1OSIgeD0iNTcwIiB5PSI3Ii8+PGVsbGlwc2UgY3g9IjU4NSIgY3k9IjIzIiBmaWxsPSIjQUREMUIyIiByeD0iMTEiIHJ5PSIxMSIgc3R5bGU9InN0cm9rZTojMTgxODE4O3N0cm9rZS13aWR0aDoxLjA7Ii8+PHBhdGggZD0iTTU4Mi42MjUsMjcuMjUgTDU4Mi42MjUsMjkgTDU4Ny41NjI1LDI5IEw1ODcuNTYyNSwyNy4yNSBMNTgyLjYyNSwyNy4yNSBaIE01ODMuMzEyNSwyNy45Mzc1IFE1ODMuMzEyNSwyNy45Mzc1IDU4My4zMTI1LDE4Ljc1IEw1ODEuNTYyNSwxOC43NSBRNTgxLjU2MjUsMTguNzUgNTgxLjU2MjUsMjcuOTM3NSBMNTgzLjMxMjUsMjcuOTM3NSBaIE01ODYuODc1LDI3LjkzNzUgTDU4OC42MjUsMjcuOTM3NSBRNTg4LjYyNSwyNy45Mzc1IDU4OC42MjUsMjUuMTI1IEw1ODYuODc1LDI1LjEyNSBRNTg2Ljg3NSwyNS4xMjUgNTg2Ljg3NSwyNy45Mzc1IFogTTU4Ni44NzUsMTguNzUgUTU4Ni44NzUsMTguNzUgNTg2Ljg3NSwyMS41NjI1IEw1ODguNjI1LDIxLjU2MjUgUTU4OC42MjUsMjEuNTYyNSA1ODguNjI1LDE4Ljc1IEw1ODYuODc1LDE4Ljc1IFogTTU4Mi42MjUsMTkuNDM3NSBMNTg3LjU2MjUsMTkuNDM3NSBMNTg3LjU2MjUsMTcuNjg3NSBMNTgyLjYyNSwxNy42ODc1IEw1ODIuNjI1LDE5LjQzNzUgWiAiIGZpbGw9IiMwMDAwMDAiLz48dGV4dCBmaWxsPSIjMDAwMDAwIiBmb250LWZhbWlseT0ic2Fucy1zZXJpZiIgZm9udC1zaXplPSIxNCIgbGVuZ3RoQWRqdXN0PSJzcGFjaW5nIiB0ZXh0TGVuZ3RoPSIxMjciIHg9IjU5OSIgeT0iMjguNzQyMiI+bWFpbk1lbnVDb250cm9sbGVyPC90ZXh0PjxsaW5lIHN0eWxlPSJzdHJva2U6IzE4MTgxODtzdHJva2Utd2lkdGg6MC41OyIgeDE9IjU3MSIgeDI9IjcyOCIgeTE9IjM5IiB5Mj0iMzkiLz48bGluZSBzdHlsZT0ic3Ryb2tlOiMxODE4MTg7c3Ryb2tlLXdpZHRoOjAuNTsiIHgxPSI1NzEiIHgyPSI3MjgiIHkxPSI0NyIgeTI9IjQ3Ii8+PC9nPjwhLS1jbGFzcyBCdXR0b24tLT48ZyBpZD0iZWxlbV9CdXR0b24iPjxyZWN0IGZpbGw9IiNGMUYxRjEiIGhlaWdodD0iNDgiIGlkPSJCdXR0b24iIHJ4PSIyLjUiIHJ5PSIyLjUiIHN0eWxlPSJzdHJva2U6IzE4MTgxODtzdHJva2Utd2lkdGg6MC41OyIgd2lkdGg9Ijc0IiB4PSI1NjcuNSIgeT0iNzAzIi8+PGVsbGlwc2UgY3g9IjU4Mi41IiBjeT0iNzE5IiBmaWxsPSIjQUREMUIyIiByeD0iMTEiIHJ5PSIxMSIgc3R5bGU9InN0cm9rZTojMTgxODE4O3N0cm9rZS13aWR0aDoxLjA7Ii8+PHBhdGggZD0iTTU4MC4xMjUsNzIzLjI1IEw1ODAuMTI1LDcyNSBMNTg1LjA2MjUsNzI1IEw1ODUuMDYyNSw3MjMuMjUgTDU4MC4xMjUsNzIzLjI1IFogTTU4MC44MTI1LDcyMy45Mzc1IFE1ODAuODEyNSw3MjMuOTM3NSA1ODAuODEyNSw3MTQuNzUgTDU3OS4wNjI1LDcxNC43NSBRNTc5LjA2MjUsNzE0Ljc1IDU3OS4wNjI1LDcyMy45Mzc1IEw1ODAuODEyNSw3MjMuOTM3NSBaIE01ODQuMzc1LDcyMy45Mzc1IEw1ODYuMTI1LDcyMy45Mzc1IFE1ODYuMTI1LDcyMy45Mzc1IDU4Ni4xMjUsNzIxLjEyNSBMNTg0LjM3NSw3MjEuMTI1IFE1ODQuMzc1LDcyMS4xMjUgNTg0LjM3NSw3MjMuOTM3NSBaIE01ODQuMzc1LDcxNC43NSBRNTg0LjM3NSw3MTQuNzUgNTg0LjM3NSw3MTcuNTYyNSBMNTg2LjEyNSw3MTcuNTYyNSBRNTg2LjEyNSw3MTcuNTYyNSA1ODYuMTI1LDcxNC43NSBMNTg0LjM3NSw3MTQuNzUgWiBNNTgwLjEyNSw3MTUuNDM3NSBMNTg1LjA2MjUsNzE1LjQzNzUgTDU4NS4wNjI1LDcxMy42ODc1IEw1ODAuMTI1LDcxMy42ODc1IEw1ODAuMTI1LDcxNS40Mzc1IFogIiBmaWxsPSIjMDAwMDAwIi8+PHRleHQgZmlsbD0iIzAwMDAwMCIgZm9udC1mYW1pbHk9InNhbnMtc2VyaWYiIGZvbnQtc2l6ZT0iMTQiIGxlbmd0aEFkanVzdD0ic3BhY2luZyIgdGV4dExlbmd0aD0iNDIiIHg9IjU5Ni41IiB5PSI3MjQuNzQyMiI+QnV0dG9uPC90ZXh0PjxsaW5lIHN0eWxlPSJzdHJva2U6IzE4MTgxODtzdHJva2Utd2lkdGg6MC41OyIgeDE9IjU2OC41IiB4Mj0iNjQwLjUiIHkxPSI3MzUiIHkyPSI3MzUiLz48bGluZSBzdHlsZT0ic3Ryb2tlOiMxODE4MTg7c3Ryb2tlLXdpZHRoOjAuNTsiIHgxPSI1NjguNSIgeDI9IjY0MC41IiB5MT0iNzQzIiB5Mj0iNzQzIi8+PC9nPjwhLS1saW5rIE1haW5BcHAgdG8gTWFpbkNvbnRyb2xsZXItLT48ZyBpZD0ibGlua19NYWluQXBwX01haW5Db250cm9sbGVyIj48cGF0aCBjb2RlTGluZT0iMzciIGQ9Ik01NTEuMzUsMTY0LjIyIEM1MjUuNTYsMTgxLjI1IDQ5MC41MSwyMDQuNCA0NjMuOCwyMjIuMDQgIiBmaWxsPSJub25lIiBpZD0iTWFpbkFwcC10by1NYWluQ29udHJvbGxlciIgc3R5bGU9InN0cm9rZTojMTgxODE4O3N0cm9rZS13aWR0aDoxLjA7Ii8+PHBvbHlnb24gZmlsbD0iIzE4MTgxOCIgcG9pbnRzPSI0NTkuNTgsMjI0LjgzLDQ2OS4yOTM4LDIyMy4yMDQ0LDQ2My43NTEyLDIyMi4wNzMsNDY0Ljg4MjYsMjE2LjUzMDQsNDU5LjU4LDIyNC44MyIgc3R5bGU9InN0cm9rZTojMTgxODE4O3N0cm9rZS13aWR0aDoxLjA7Ii8+PC9nPjwhLS1saW5rIE1haW5BcHAgdG8gQmFyQ29udHJvbGxlci0tPjxnIGlkPSJsaW5rX01haW5BcHBfQmFyQ29udHJvbGxlciI+PHBhdGggY29kZUxpbmU9IjM4IiBkPSJNNTc1Ljc3LDE2NC4yMiBDNTczLjMzLDE4MC40OCA1NzMuMSwyMDIuMzIgNTc1LjA5LDIxOS42MiAiIGZpbGw9Im5vbmUiIGlkPSJNYWluQXBwLXRvLUJhckNvbnRyb2xsZXIiIHN0eWxlPSJzdHJva2U6IzE4MTgxODtzdHJva2Utd2lkdGg6MS4wOyIvPjxwb2x5Z29uIGZpbGw9IiMxODE4MTgiIHBvaW50cz0iNTc1Ljc4LDIyNC44Myw1NzguNTYyNiwyMTUuMzgyNCw1NzUuMTIyOSwyMTkuODczNCw1NzAuNjMyLDIxNi40MzM3LDU3NS43OCwyMjQuODMiIHN0eWxlPSJzdHJva2U6IzE4MTgxODtzdHJva2Utd2lkdGg6MS4wOyIvPjwvZz48IS0tbGluayBCYXJDb250cm9sbGVyIHRvIE1haW5BcHAtLT48ZyBpZD0ibGlua19CYXJDb250cm9sbGVyX01haW5BcHAiPjxwYXRoIGNvZGVMaW5lPSI1NCIgZD0iTTU5Ny44NSwyMjQuODMgQzYwMC40NSwyMDguNTcgNjAwLjY5LDE4Ni43NCA1OTguNTksMTY5LjQzICIgZmlsbD0ibm9uZSIgaWQ9IkJhckNvbnRyb2xsZXItdG8tTWFpbkFwcCIgc3R5bGU9InN0cm9rZTojMTgxODE4O3N0cm9rZS13aWR0aDoxLjA7Ii8+PHBvbHlnb24gZmlsbD0iIzE4MTgxOCIgcG9pbnRzPSI1OTcuODYsMTY0LjIyLDU5NS4xMzQ3LDE3My42ODQzLDU5OC41NDcxLDE2OS4xNzI2LDYwMy4wNTg4LDE3Mi41ODUsNTk3Ljg2LDE2NC4yMiIgc3R5bGU9InN0cm9rZTojMTgxODE4O3N0cm9rZS13aWR0aDoxLjA7Ii8+PC9nPjwhLS1saW5rIE1haW5BcHAgdG8gSkFXU0dhbWUtLT48ZyBpZD0ibGlua19NYWluQXBwX0pBV1NHYW1lIj48cGF0aCBjb2RlTGluZT0iMzkiIGQ9Ik01NDUuODcsMTQ0LjQxIEM0OTIuMjksMTUwLjk5IDM5OC4xOCwxNzAuMDkgMzQxLjUsMjI1IEMzMTIuNjMsMjUyLjk2IDMwMC4yMywyOTkuMjggMjk1LjA1LDMyOC45NSAiIGZpbGw9Im5vbmUiIGlkPSJNYWluQXBwLXRvLUpBV1NHYW1lIiBzdHlsZT0ic3Ryb2tlOiMxODE4MTg7c3Ryb2tlLXdpZHRoOjEuMDsiLz48cG9seWdvbiBmaWxsPSIjMTgxODE4IiBwb2ludHM9IjI5NC4yMiwzMzMuOTMsMjk5LjYzMzYsMzI1LjcwMjQsMjk1LjAzNSwzMjguOTk2OSwyOTEuNzQwNiwzMjQuMzk4MywyOTQuMjIsMzMzLjkzIiBzdHlsZT0ic3Ryb2tlOiMxODE4MTg7c3Ryb2tlLXdpZHRoOjEuMDsiLz48L2c+PCEtLWxpbmsgSkFXU0dhbWUgdG8gU2hhcmtGaWVsZC0tPjxnIGlkPSJsaW5rX0pBV1NHYW1lX1NoYXJrRmllbGQiPjxwYXRoIGNvZGVMaW5lPSI0MSIgZD0iTTI2NS42LDM4Mi4wNCBDMjQyLjc3LDQwMi4zNSAyMDkuNTIsNDMxLjk0IDE4NS41Myw0NTMuMjggIiBmaWxsPSJub25lIiBpZD0iSkFXU0dhbWUtdG8tU2hhcmtGaWVsZCIgc3R5bGU9InN0cm9rZTojMTgxODE4O3N0cm9rZS13aWR0aDoxLjA7Ii8+PHBvbHlnb24gZmlsbD0iIzE4MTgxOCIgcG9pbnRzPSIxODEuNzcsNDU2LjYzLDE5MS4xNDc3LDQ1My42MjAzLDE4NS40OTk5LDQ1My4zMDAyLDE4NS44MjAxLDQ0Ny42NTI0LDE4MS43Nyw0NTYuNjMiIHN0eWxlPSJzdHJva2U6IzE4MTgxODtzdHJva2Utd2lkdGg6MS4wOyIvPjwvZz48IS0tbGluayBKQVdTR2FtZSB0byBDb3VudGVyLS0+PGcgaWQ9ImxpbmtfSkFXU0dhbWVfQ291bnRlciI+PHBhdGggY29kZUxpbmU9IjQyIiBkPSJNMjUzLjQ1LDM4Mi4yMyBDMjQ1LjY2LDM5MC44OSAyMzkuMDMsNDAxLjI1IDIzNS41LDQxMiBDMjMwLjk4LDQyNS43NyAyMzYuMiw0NDAuNTQgMjQ0LjkyLDQ1Mi43OSAiIGZpbGw9Im5vbmUiIGlkPSJKQVdTR2FtZS10by1Db3VudGVyIiBzdHlsZT0ic3Ryb2tlOiMxODE4MTg7c3Ryb2tlLXdpZHRoOjEuMDsiLz48cG9seWdvbiBmaWxsPSIjMTgxODE4IiBwb2ludHM9IjI0OCw0NTYuODQsMjQ1LjczOTgsNDQ3LjI1NCwyNDQuOTc0OSw0NTIuODU4OSwyMzkuMzcsNDUyLjA5NDEsMjQ4LDQ1Ni44NCIgc3R5bGU9InN0cm9rZTojMTgxODE4O3N0cm9rZS13aWR0aDoxLjA7Ii8+PC9nPjwhLS1saW5rIEpBV1NHYW1lIHRvIENvdW50ZXItLT48ZyBpZD0ibGlua19KQVdTR2FtZV9Db3VudGVyIj48cGF0aCBjb2RlTGluZT0iNDYiIGQ9Ik0yODYuNDMsMzgyLjIzIEMyODAuNjYsMzkwLjg5IDI3NC4wMyw0MDEuMjUgMjcwLjUsNDEyIEMyNjYuMDYsNDI1LjUzIDI3MS4wMiw0NDAuMDMgMjc2LjY2LDQ1Mi4xNSAiIGZpbGw9Im5vbmUiIGlkPSJKQVdTR2FtZS10by1Db3VudGVyLTEiIHN0eWxlPSJzdHJva2U6IzE4MTgxODtzdHJva2Utd2lkdGg6MS4wOyIvPjxwb2x5Z29uIGZpbGw9IiMxODE4MTgiIHBvaW50cz0iMjc4LjkzLDQ1Ni44NCwyNzguNjIxMiw0NDYuOTk2LDI3Ni43NTcxLDQ1Mi4zMzY5LDI3MS40MTYyLDQ1MC40NzI3LDI3OC45Myw0NTYuODQiIHN0eWxlPSJzdHJva2U6IzE4MTgxODtzdHJva2Utd2lkdGg6MS4wOyIvPjwvZz48IS0tbGluayBDb3VudGVyIHRvIEpBV1NHYW1lLS0+PGcgaWQ9ImxpbmtfQ291bnRlcl9KQVdTR2FtZSI+PHBhdGggY29kZUxpbmU9IjY0IiBkPSJNMjgzLjEyLDQ1NyBDMjgzLjU4LDQ0My44MSAyODQuMzIsNDI2Ljk2IDI4NS41LDQxMiBDMjg2LjI3LDQwMi4yMSAyODcuNDMsMzkxLjQ1IDI4OC41MywzODIuMTkgIiBmaWxsPSJub25lIiBpZD0iQ291bnRlci1KQVdTR2FtZSIgc3R5bGU9InN0cm9rZTojMTgxODE4O3N0cm9rZS13aWR0aDoxLjA7Ii8+PHRleHQgZmlsbD0iIzAwMDAwMCIgZm9udC1mYW1pbHk9InNhbnMtc2VyaWYiIGZvbnQtc2l6ZT0iMTMiIGxlbmd0aEFkanVzdD0ic3BhY2luZyIgdGV4dExlbmd0aD0iNjgiIHg9IjI4Ni41IiB5PSI0MjUuMjg5MSI+YmVsb25ncyB0bzwvdGV4dD48dGV4dCBmaWxsPSIjMDAwMDAwIiBmb250LWZhbWlseT0ic2Fucy1zZXJpZiIgZm9udC1zaXplPSIxMyIgbGVuZ3RoQWRqdXN0PSJzcGFjaW5nIiB0ZXh0TGVuZ3RoPSI3IiB4PSIyNzUuMjc0IiB5PSI0NDcuNDYzOSI+MTwvdGV4dD48dGV4dCBmaWxsPSIjMDAwMDAwIiBmb250LWZhbWlseT0ic2Fucy1zZXJpZiIgZm9udC1zaXplPSIxMyIgbGVuZ3RoQWRqdXN0PSJzcGFjaW5nIiB0ZXh0TGVuZ3RoPSIyNiIgeD0iMjU4LjQzNzciIHk9IjQwMi40NjA1Ij4wLi4xPC90ZXh0PjwvZz48IS0tbGluayBKQVdTR2FtZSB0byBUaW1lQ291bnRlci0tPjxnIGlkPSJsaW5rX0pBV1NHYW1lX1RpbWVDb3VudGVyIj48cGF0aCBjb2RlTGluZT0iNDMiIGQ9Ik0zMzIuMDcsMzgyLjAzIEMzNDIuNzQsMzkwLjExIDM1My4wNiw0MDAuMTcgMzU5LjUsNDEyIEMzODcuNzcsNDYzLjkgMzg1LjAxLDUzNS42NyAzODAuNjYsNTc0Ljc5ICIgZmlsbD0ibm9uZSIgaWQ9IkpBV1NHYW1lLXRvLVRpbWVDb3VudGVyIiBzdHlsZT0ic3Ryb2tlOiMxODE4MTg7c3Ryb2tlLXdpZHRoOjEuMDsiLz48cG9seWdvbiBmaWxsPSIjMTgxODE4IiBwb2ludHM9IjM4MC4wNiw1NzkuODYsMzg1LjA4ODQsNTcxLjM5MTUsMzgwLjY0NjcsNTc0Ljg5NDUsMzc3LjE0MzcsNTcwLjQ1MjgsMzgwLjA2LDU3OS44NiIgc3R5bGU9InN0cm9rZTojMTgxODE4O3N0cm9rZS13aWR0aDoxLjA7Ii8+PC9nPjwhLS1saW5rIFRpbWVDb3VudGVyIHRvIEpBV1NHYW1lLS0+PGcgaWQ9ImxpbmtfVGltZUNvdW50ZXJfSkFXU0dhbWUiPjxwYXRoIGNvZGVMaW5lPSI2NSIgZD0iTTM5NC44Myw1NzkuODIgQzQwMC43Miw1NzEgNDA2LjQ5LDU2MC41MyA0MDkuNSw1NTAgQzQyNi41Myw0OTAuNDEgNDI5LjgyLDQ1OS4wNyAzODkuNSw0MTIgQzM3NS40NywzOTUuNjIgMzU1LjA3LDM4My40NiAzMzYuNTEsMzc0Ljk0ICIgZmlsbD0ibm9uZSIgaWQ9IlRpbWVDb3VudGVyLUpBV1NHYW1lIiBzdHlsZT0ic3Ryb2tlOiMxODE4MTg7c3Ryb2tlLXdpZHRoOjEuMDsiLz48dGV4dCBmaWxsPSIjMDAwMDAwIiBmb250LWZhbWlseT0ic2Fucy1zZXJpZiIgZm9udC1zaXplPSIxMyIgbGVuZ3RoQWRqdXN0PSJzcGFjaW5nIiB0ZXh0TGVuZ3RoPSI2OCIgeD0iNDIyLjUiIHk9IjQ4Ni43ODkxIj5iZWxvbmdzIHRvPC90ZXh0Pjx0ZXh0IGZpbGw9IiMwMDAwMDAiIGZvbnQtZmFtaWx5PSJzYW5zLXNlcmlmIiBmb250LXNpemU9IjEzIiBsZW5ndGhBZGp1c3Q9InNwYWNpbmciIHRleHRMZW5ndGg9IjciIHg9IjM5Mi4xODYzIiB5PSI1NzAuMjMxMSI+MTwvdGV4dD48dGV4dCBmaWxsPSIjMDAwMDAwIiBmb250LWZhbWlseT0ic2Fucy1zZXJpZiIgZm9udC1zaXplPSIxMyIgbGVuZ3RoQWRqdXN0PSJzcGFjaW5nIiB0ZXh0TGVuZ3RoPSIyNiIgeD0iMzQ0LjY2NzciIHk9IjM3NS43NjE1Ij4wLi4xPC90ZXh0PjwvZz48IS0tbGluayBTaGFya0ZpZWxkIHRvIFRpbGUtLT48ZyBpZD0ibGlua19TaGFya0ZpZWxkX1RpbGUiPjxwYXRoIGNvZGVMaW5lPSI0NSIgZD0iTTEzMy45OSw1MDUuMDkgQzEyNC4yMyw1MTguNDYgMTE2LjQ4LDUzNS40NiAxMjQuNSw1NTAgQzEzNC45Myw1NjguOTEgMTU1LjI1LDU4MiAxNzMuMyw1OTAuNDQgIiBmaWxsPSJub25lIiBpZD0iU2hhcmtGaWVsZC10by1UaWxlIiBzdHlsZT0ic3Ryb2tlOiMxODE4MTg7c3Ryb2tlLXdpZHRoOjEuMDsiLz48cG9seWdvbiBmaWxsPSIjMTgxODE4IiBwb2ludHM9IjE3OC4zMiw1OTIuNywxNzEuNzYyOCw1ODUuMzUxMywxNzMuNzYyOCw1OTAuNjQyOCwxNjguNDcxMyw1OTIuNjQyOSwxNzguMzIsNTkyLjciIHN0eWxlPSJzdHJva2U6IzE4MTgxODtzdHJva2Utd2lkdGg6MS4wOyIvPjwvZz48IS0tbGluayBUaWxlIHRvIFNoYXJrRmllbGQtLT48ZyBpZD0ibGlua19UaWxlX1NoYXJrRmllbGQiPjxwYXRoIGNvZGVMaW5lPSI1NyIgZD0iTTIxNy42OSw1NzkuNyBDMjIxLjU5LDU2Ni4xMSAyMjMuOTMsNTQ4Ljk1IDIxNy41LDUzNSBDMjEyLjg3LDUyNC45NCAyMDUuMjgsNTE2LjA4IDE5Ni45Nyw1MDguNjMgIiBmaWxsPSJub25lIiBpZD0iVGlsZS10by1TaGFya0ZpZWxkIiBzdHlsZT0ic3Ryb2tlOiMxODE4MTg7c3Ryb2tlLXdpZHRoOjEuMDsiLz48cG9seWdvbiBmaWxsPSIjMTgxODE4IiBwb2ludHM9IjE5Mi44NSw1MDUuMDgsMTk3LjA2MzYsNTEzLjk4MiwxOTYuNjQwMiw1MDguMzQxLDIwMi4yODEyLDUwNy45MTc3LDE5Mi44NSw1MDUuMDgiIHN0eWxlPSJzdHJva2U6IzE4MTgxODtzdHJva2Utd2lkdGg6MS4wOyIvPjx0ZXh0IGZpbGw9IiMwMDAwMDAiIGZvbnQtZmFtaWx5PSJzYW5zLXNlcmlmIiBmb250LXNpemU9IjEzIiBsZW5ndGhBZGp1c3Q9InNwYWNpbmciIHRleHRMZW5ndGg9IjU0IiB4PSIyMjIuNSIgeT0iNTQ4LjI4OTEiPmNvbnRhaW5zPC90ZXh0Pjx0ZXh0IGZpbGw9IiMwMDAwMDAiIGZvbnQtZmFtaWx5PSJzYW5zLXNlcmlmIiBmb250LXNpemU9IjEzIiBsZW5ndGhBZGp1c3Q9InNwYWNpbmciIHRleHRMZW5ndGg9IjciIHg9IjIxMi4yOTAzIiB5PSI1NzAuNDU1MSI+MTwvdGV4dD48dGV4dCBmaWxsPSIjMDAwMDAwIiBmb250LWZhbWlseT0ic2Fucy1zZXJpZiIgZm9udC1zaXplPSIxMyIgbGVuZ3RoQWRqdXN0PSJzcGFjaW5nIiB0ZXh0TGVuZ3RoPSIyNSIgeD0iMTc0LjIxNzgiIHk9IjUyNS4zMjIzIj4xLi4qPC90ZXh0PjwvZz48IS0tbGluayBTaGFya0ZpZWxkIHRvIFRpbGUtLT48ZyBpZD0ibGlua19TaGFya0ZpZWxkX1RpbGUiPjxwYXRoIGNvZGVMaW5lPSI2NyIgZD0iTTE1MC4xMSw1MDUuMjUgQzE0OC4wOSw1MTguODIgMTQ3LjU0LDUzNS45OCAxNTMuNSw1NTAgQzE1OC4wNSw1NjAuNyAxNjUuOTMsNTcwLjI4IDE3NC4zMyw1NzguMjYgIiBmaWxsPSJub25lIiBpZD0iU2hhcmtGaWVsZC10by1UaWxlLTEiIHN0eWxlPSJzdHJva2U6IzE4MTgxODtzdHJva2Utd2lkdGg6MS4wOyIvPjxwb2x5Z29uIGZpbGw9IiMxODE4MTgiIHBvaW50cz0iMTc4LjQ4LDU4Mi4wNSwxNzQuNTM5LDU3My4wMjQsMTc0Ljc5MDcsNTc4LjY3NTMsMTY5LjEzOTQsNTc4LjkyNjksMTc4LjQ4LDU4Mi4wNSIgc3R5bGU9InN0cm9rZTojMTgxODE4O3N0cm9rZS13aWR0aDoxLjA7Ii8+PHRleHQgZmlsbD0iIzAwMDAwMCIgZm9udC1mYW1pbHk9InNhbnMtc2VyaWYiIGZvbnQtc2l6ZT0iMTMiIGxlbmd0aEFkanVzdD0ic3BhY2luZyIgdGV4dExlbmd0aD0iNTQiIHg9IjE1NC41IiB5PSI1NDguMjg5MSI+Y29udGFpbnM8L3RleHQ+PHRleHQgZmlsbD0iIzAwMDAwMCIgZm9udC1mYW1pbHk9InNhbnMtc2VyaWYiIGZvbnQtc2l6ZT0iMTMiIGxlbmd0aEFkanVzdD0ic3BhY2luZyIgdGV4dExlbmd0aD0iNyIgeD0iMTQwLjk0MzEiIHk9IjUyNS4xNDU4Ij4xPC90ZXh0Pjx0ZXh0IGZpbGw9IiMwMDAwMDAiIGZvbnQtZmFtaWx5PSJzYW5zLXNlcmlmIiBmb250LXNpemU9IjEzIiBsZW5ndGhBZGp1c3Q9InNwYWNpbmciIHRleHRMZW5ndGg9IjI1IiB4PSIxNDUuMzc0NiIgeT0iNTc2LjAwMjkiPjEuLio8L3RleHQ+PC9nPjwhLS1yZXZlcnNlIGxpbmsgQ291bnRlciB0byBUaW1lQ291bnRlci0tPjxnIGlkPSJsaW5rX0NvdW50ZXJfVGltZUNvdW50ZXIiPjxwYXRoIGNvZGVMaW5lPSI0NyIgZD0iTTMxMi43NSw1MjAuOTMgQzMyNy43Nyw1NDAuMjggMzQ1LjQzLDU2MyAzNTguMzQsNTc5LjYzICIgZmlsbD0ibm9uZSIgaWQ9IkNvdW50ZXItYmFja3RvLVRpbWVDb3VudGVyIiBzdHlsZT0ic3Ryb2tlOiMxODE4MTg7c3Ryb2tlLXdpZHRoOjEuMDsiLz48cG9seWdvbiBmaWxsPSJub25lIiBwb2ludHM9IjMwNy4xNCw1MjUuMTMsMzAwLjQsNTA1LjA0LDMxOC4yLDUxNi41NCwzMDcuMTQsNTI1LjEzIiBzdHlsZT0ic3Ryb2tlOiMxODE4MTg7c3Ryb2tlLXdpZHRoOjEuMDsiLz48L2c+PCEtLXJldmVyc2UgbGluayBUaWxlIHRvIFNoYXJrVGlsZS0tPjxnIGlkPSJsaW5rX1RpbGVfU2hhcmtUaWxlIj48cGF0aCBjb2RlTGluZT0iNDkiIGQ9Ik0xNTguNTUsNjEyLjI2IEMxMjguODgsNjE5LjE0IDkyLjgxLDYzMi40NCA3MC41LDY1OCBDNTkuODEsNjcwLjI0IDU1LjkzLDY4OC4zIDU0LjY2LDcwMi43MyAiIGZpbGw9Im5vbmUiIGlkPSJUaWxlLWJhY2t0by1TaGFya1RpbGUiIHN0eWxlPSJzdHJva2U6IzE4MTgxODtzdHJva2Utd2lkdGg6MS4wOyIvPjxwb2x5Z29uIGZpbGw9Im5vbmUiIHBvaW50cz0iMTU3LjMsNjA1LjM3LDE3OC4yOCw2MDguMzgsMTYwLjAxLDYxOS4xMSwxNTcuMyw2MDUuMzciIHN0eWxlPSJzdHJva2U6IzE4MTgxODtzdHJva2Utd2lkdGg6MS4wOyIvPjwvZz48IS0tbGluayBUaWxlIHRvIFNoYXJrVGlsZS0tPjxnIGlkPSJsaW5rX1RpbGVfU2hhcmtUaWxlIj48cGF0aCBjb2RlTGluZT0iNjAiIGQ9Ik0xNzkuMTcsNjI4LjA0IEMxNTEuODYsNjQ5LjUxIDExMS4zNSw2ODEuMzQgODMuOTgsNzAyLjg0ICIgZmlsbD0ibm9uZSIgaWQ9IlRpbGUtU2hhcmtUaWxlIiBzdHlsZT0ic3Ryb2tlOiMxODE4MTg7c3Ryb2tlLXdpZHRoOjEuMDsiLz48dGV4dCBmaWxsPSIjMDAwMDAwIiBmb250LWZhbWlseT0ic2Fucy1zZXJpZiIgZm9udC1zaXplPSIxMyIgbGVuZ3RoQWRqdXN0PSJzcGFjaW5nIiB0ZXh0TGVuZ3RoPSI0OCIgeD0iMTQyLjUiIHk9IjY3MS4yODkxIj5jcmVhdGVzPC90ZXh0Pjx0ZXh0IGZpbGw9IiMwMDAwMDAiIGZvbnQtZmFtaWx5PSJzYW5zLXNlcmlmIiBmb250LXNpemU9IjEzIiBsZW5ndGhBZGp1c3Q9InNwYWNpbmciIHRleHRMZW5ndGg9IjciIHg9IjE2My43NTczIiB5PSI2NDguMjcyMSI+MTwvdGV4dD48dGV4dCBmaWxsPSIjMDAwMDAwIiBmb250LWZhbWlseT0ic2Fucy1zZXJpZiIgZm9udC1zaXplPSIxMyIgbGVuZ3RoQWRqdXN0PSJzcGFjaW5nIiB0ZXh0TGVuZ3RoPSIyNiIgeD0iNjIuODIxIiB5PSI2OTMuMjU2OSI+MC4uMTwvdGV4dD48L2c+PCEtLXJldmVyc2UgbGluayBUaWxlIHRvIFZhY2FudFRpbGUtLT48ZyBpZD0ibGlua19UaWxlX1ZhY2FudFRpbGUiPjxwYXRoIGNvZGVMaW5lPSI1MCIgZD0iTTIwMi4zMyw2NDguMTEgQzIwMiw2NTEuNDUgMjAxLjcxLDY1NC43OCAyMDEuNSw2NTggQzIwMC41Miw2NzIuOTIgMjAyLjIsNjg5LjYzIDIwNC4xNiw3MDIuNzUgIiBmaWxsPSJub25lIiBpZD0iVGlsZS1iYWNrdG8tVmFjYW50VGlsZSIgc3R5bGU9InN0cm9rZTojMTgxODE4O3N0cm9rZS13aWR0aDoxLjA7Ii8+PHBvbHlnb24gZmlsbD0ibm9uZSIgcG9pbnRzPSIxOTUuMzksNjQ3LjE1LDIwNC43Nyw2MjguMTUsMjA5LjI5LDY0OC44NiwxOTUuMzksNjQ3LjE1IiBzdHlsZT0ic3Ryb2tlOiMxODE4MTg7c3Ryb2tlLXdpZHRoOjEuMDsiLz48L2c+PCEtLWxpbmsgVGlsZSB0byBWYWNhbnRUaWxlLS0+PGcgaWQ9ImxpbmtfVGlsZV9WYWNhbnRUaWxlIj48cGF0aCBjb2RlTGluZT0iNjEiIGQ9Ik0yMDguNSw2MjguMDQgQzIwOC41LDY0OS40NCAyMDguNSw2ODEuMTMgMjA4LjUsNzAyLjYzICIgZmlsbD0ibm9uZSIgaWQ9IlRpbGUtVmFjYW50VGlsZSIgc3R5bGU9InN0cm9rZTojMTgxODE4O3N0cm9rZS13aWR0aDoxLjA7Ii8+PHRleHQgZmlsbD0iIzAwMDAwMCIgZm9udC1mYW1pbHk9InNhbnMtc2VyaWYiIGZvbnQtc2l6ZT0iMTMiIGxlbmd0aEFkanVzdD0ic3BhY2luZyIgdGV4dExlbmd0aD0iNDgiIHg9IjIwOS41IiB5PSI2NzEuMjg5MSI+Y3JlYXRlczwvdGV4dD48dGV4dCBmaWxsPSIjMDAwMDAwIiBmb250LWZhbWlseT0ic2Fucy1zZXJpZiIgZm9udC1zaXplPSIxMyIgbGVuZ3RoQWRqdXN0PSJzcGFjaW5nIiB0ZXh0TGVuZ3RoPSI3IiB4PSIyMDAuNjAzMSIgeT0iNjQ4LjI3MjEiPjE8L3RleHQ+PHRleHQgZmlsbD0iIzAwMDAwMCIgZm9udC1mYW1pbHk9InNhbnMtc2VyaWYiIGZvbnQtc2l6ZT0iMTMiIGxlbmd0aEFkanVzdD0ic3BhY2luZyIgdGV4dExlbmd0aD0iMjYiIHg9IjE3OC44NDM4IiB5PSI2OTMuMzY1NCI+MC4uMTwvdGV4dD48L2c+PCEtLXJldmVyc2UgbGluayBUaWxlIHRvIE51bWJlck9mVGlsZS0tPjxnIGlkPSJsaW5rX1RpbGVfTnVtYmVyT2ZUaWxlIj48cGF0aCBjb2RlTGluZT0iNTEiIGQ9Ik0yNTMuOTcsNjQwLjUgQzI3OS43NCw2NjAuNjEgMzExLjIzLDY4NS4yIDMzMy44Myw3MDIuODQgIiBmaWxsPSJub25lIiBpZD0iVGlsZS1iYWNrdG8tTnVtYmVyT2ZUaWxlIiBzdHlsZT0ic3Ryb2tlOiMxODE4MTg7c3Ryb2tlLXdpZHRoOjEuMDsiLz48cG9seWdvbiBmaWxsPSJub25lIiBwb2ludHM9IjI0OS40OCw2NDUuODcsMjM4LjAyLDYyOC4wNCwyNTguMDksNjM0LjgzLDI0OS40OCw2NDUuODciIHN0eWxlPSJzdHJva2U6IzE4MTgxODtzdHJva2Utd2lkdGg6MS4wOyIvPjwvZz48IS0tbGluayBUaWxlIHRvIE51bWJlck9mVGlsZS0tPjxnIGlkPSJsaW5rX1RpbGVfTnVtYmVyT2ZUaWxlIj48cGF0aCBjb2RlTGluZT0iNjIiIGQ9Ik0yMzguOSw2MTYuMTUgQzI2MC44OSw2MjUuMiAyOTAuNDgsNjM5LjQ4IDMxMi41LDY1OCBDMzI3LjUyLDY3MC42MyAzNDAuNyw2ODguNDkgMzQ5LjksNzAyLjc0ICIgZmlsbD0ibm9uZSIgaWQ9IlRpbGUtTnVtYmVyT2ZUaWxlIiBzdHlsZT0ic3Ryb2tlOiMxODE4MTg7c3Ryb2tlLXdpZHRoOjEuMDsiLz48dGV4dCBmaWxsPSIjMDAwMDAwIiBmb250LWZhbWlseT0ic2Fucy1zZXJpZiIgZm9udC1zaXplPSIxMyIgbGVuZ3RoQWRqdXN0PSJzcGFjaW5nIiB0ZXh0TGVuZ3RoPSI0OCIgeD0iMzI4LjUiIHk9IjY3MS4yODkxIj5jcmVhdGVzPC90ZXh0Pjx0ZXh0IGZpbGw9IiMwMDAwMDAiIGZvbnQtZmFtaWx5PSJzYW5zLXNlcmlmIiBmb250LXNpemU9IjEzIiBsZW5ndGhBZGp1c3Q9InNwYWNpbmciIHRleHRMZW5ndGg9IjciIHg9IjI0Ni4zMTU2IiB5PSI2MTYuNzc1Ij4xPC90ZXh0Pjx0ZXh0IGZpbGw9IiMwMDAwMDAiIGZvbnQtZmFtaWx5PSJzYW5zLXNlcmlmIiBmb250LXNpemU9IjEzIiBsZW5ndGhBZGp1c3Q9InNwYWNpbmciIHRleHRMZW5ndGg9IjI2IiB4PSIzMTYuNDE4OCIgeT0iNjkzLjUwNjQiPjAuLjE8L3RleHQ+PC9nPjwhLS1saW5rIE1haW5Db250cm9sbGVyIHRvIEpBV1NHYW1lLS0+PGcgaWQ9ImxpbmtfTWFpbkNvbnRyb2xsZXJfSkFXU0dhbWUiPjxwYXRoIGNvZGVMaW5lPSI1MyIgZD0iTTM5NS42NCwyNzMuMjIgQzM3NC42NCwyOTAuMTEgMzQ2LjE3LDMxMy4wMiAzMjQuMzEsMzMwLjYxICIgZmlsbD0ibm9uZSIgaWQ9Ik1haW5Db250cm9sbGVyLXRvLUpBV1NHYW1lIiBzdHlsZT0ic3Ryb2tlOiMxODE4MTg7c3Ryb2tlLXdpZHRoOjEuMDsiLz48cG9seWdvbiBmaWxsPSIjMTgxODE4IiBwb2ludHM9IjMyMC4zLDMzMy44MywzMjkuODE3NiwzMzEuMjk3MywzMjQuMTkzMiwzMzAuNjkyNiwzMjQuNzk3OCwzMjUuMDY4MiwzMjAuMywzMzMuODMiIHN0eWxlPSJzdHJva2U6IzE4MTgxODtzdHJva2Utd2lkdGg6MS4wOyIvPjwvZz48IS0tbGluayBtYWluTWVudUNvbnRyb2xsZXIgdG8gTWFpbkFwcC0tPjxnIGlkPSJsaW5rX21haW5NZW51Q29udHJvbGxlcl9NYWluQXBwIj48cGF0aCBjb2RlTGluZT0iNTUiIGQ9Ik02MzUuODMsNTUuMjIgQzYyNi4wOSw3MS43NiA2MTIuOTUsOTQuMDcgNjAyLjY5LDExMS41MSAiIGZpbGw9Im5vbmUiIGlkPSJtYWluTWVudUNvbnRyb2xsZXItdG8tTWFpbkFwcCIgc3R5bGU9InN0cm9rZTojMTgxODE4O3N0cm9rZS13aWR0aDoxLjA7Ii8+PHBvbHlnb24gZmlsbD0iIzE4MTgxOCIgcG9pbnRzPSI2MDAuMTQsMTE1LjgzLDYwOC4xNTU5LDExMC4xMDc2LDYwMi42Nzg4LDExMS41MjI1LDYwMS4yNjM5LDEwNi4wNDU1LDYwMC4xNCwxMTUuODMiIHN0eWxlPSJzdHJva2U6IzE4MTgxODtzdHJva2Utd2lkdGg6MS4wOyIvPjwvZz48IS0tcmV2ZXJzZSBsaW5rIFRpbGUgdG8gQnV0dG9uLS0+PGcgaWQ9ImxpbmtfVGlsZV9CdXR0b24iPjxwYXRoIGNvZGVMaW5lPSI1OSIgZD0iTTI1Ny44LDYxOS42MiBDMjkzLjMzLDYzMC4xOSAzNDIuNDEsNjQ0Ljg2IDM4NS41LDY1OCBDNDQ5LjQ3LDY3Ny41MSA1MjMuOCw3MDAuNyA1NjcuMzQsNzE0LjMzICIgZmlsbD0ibm9uZSIgaWQ9IlRpbGUtYmFja3RvLUJ1dHRvbiIgc3R5bGU9InN0cm9rZTojMTgxODE4O3N0cm9rZS13aWR0aDoxLjA7Ii8+PHBvbHlnb24gZmlsbD0ibm9uZSIgcG9pbnRzPSIyNTUuNzcsNjI2LjMyLDIzOC41OSw2MTMuOTEsMjU5Ljc2LDYxMi45LDI1NS43Nyw2MjYuMzIiIHN0eWxlPSJzdHJva2U6IzE4MTgxODtzdHJva2Utd2lkdGg6MS4wOyIvPjwvZz48IS0tbGluayBNYWluQ29udHJvbGxlciB0byBCdXR0b24tLT48ZyBpZD0ibGlua19NYWluQ29udHJvbGxlcl9CdXR0b24iPjxwYXRoIGNvZGVMaW5lPSI2OSIgZD0iTTQ4NC45NCwyNzMuMDMgQzUzNy4yMywyOTQuOSA2MDQuNSwzMjguNTUgNjA0LjUsMzU3IEM2MDQuNSwzNTcgNjA0LjUsMzU3IDYwNC41LDYwNSBDNjA0LjUsNjM2Ljc3IDYwNC41LDY3My4yNCA2MDQuNSw2OTcuNzYgIiBmaWxsPSJub25lIiBpZD0iTWFpbkNvbnRyb2xsZXItdG8tQnV0dG9uIiBzdHlsZT0ic3Ryb2tlOiMxODE4MTg7c3Ryb2tlLXdpZHRoOjEuMDsiLz48cG9seWdvbiBmaWxsPSIjMTgxODE4IiBwb2ludHM9IjYwNC41LDcwMi44LDYwOC41LDY5My44LDYwNC41LDY5Ny44LDYwMC41LDY5My44LDYwNC41LDcwMi44IiBzdHlsZT0ic3Ryb2tlOiMxODE4MTg7c3Ryb2tlLXdpZHRoOjEuMDsiLz48dGV4dCBmaWxsPSIjMDAwMDAwIiBmb250LWZhbWlseT0ic2Fucy1zZXJpZiIgZm9udC1zaXplPSIxMyIgbGVuZ3RoQWRqdXN0PSJzcGFjaW5nIiB0ZXh0TGVuZ3RoPSI0OCIgeD0iNjA1LjUiIHk9IjQ4Ni43ODkxIj5oYW5kbGVzPC90ZXh0Pjx0ZXh0IGZpbGw9IiMwMDAwMDAiIGZvbnQtZmFtaWx5PSJzYW5zLXNlcmlmIiBmb250LXNpemU9IjEzIiBsZW5ndGhBZGp1c3Q9InNwYWNpbmciIHRleHRMZW5ndGg9IjciIHg9IjQ5Mi41MzA5IiB5PSIyOTMuMjU5NSI+MTwvdGV4dD48dGV4dCBmaWxsPSIjMDAwMDAwIiBmb250LWZhbWlseT0ic2Fucy1zZXJpZiIgZm9udC1zaXplPSIxMyIgbGVuZ3RoQWRqdXN0PSJzcGFjaW5nIiB0ZXh0TGVuZ3RoPSIyNSIgeD0iNTc1LjgyODEiIHk9IjY5My4yMDUyIj4xLi4qPC90ZXh0PjwvZz48IS0tbGluayBtYWluTWVudUNvbnRyb2xsZXIgdG8gQnV0dG9uLS0+PGcgaWQ9ImxpbmtfbWFpbk1lbnVDb250cm9sbGVyX0J1dHRvbiI+PHBhdGggY29kZUxpbmU9IjcwIiBkPSJNNjcwLjc3LDU1LjEzIEM2ODcuMzIsNzUuNiA3MDcuNSwxMDcuMDkgNzA3LjUsMTM5IEM3MDcuNSwxMzkgNzA3LjUsMTM5IDcwNy41LDYwNSBDNzA3LjUsNjQ0Ljk3IDY3NC41MSw2NzguNDUgNjQ1Ljg3LDY5OS45OSAiIGZpbGw9Im5vbmUiIGlkPSJtYWluTWVudUNvbnRyb2xsZXItdG8tQnV0dG9uIiBzdHlsZT0ic3Ryb2tlOiMxODE4MTg7c3Ryb2tlLXdpZHRoOjEuMDsiLz48cG9seWdvbiBmaWxsPSIjMTgxODE4IiBwb2ludHM9IjY0MS42OSw3MDMuMDgsNjUxLjMwNzMsNzAwLjk1NjgsNjQ1LjcxMzgsNzAwLjExMjEsNjQ2LjU1ODYsNjk0LjUxODYsNjQxLjY5LDcwMy4wOCIgc3R5bGU9InN0cm9rZTojMTgxODE4O3N0cm9rZS13aWR0aDoxLjA7Ii8+PHRleHQgZmlsbD0iIzAwMDAwMCIgZm9udC1mYW1pbHk9InNhbnMtc2VyaWYiIGZvbnQtc2l6ZT0iMTMiIGxlbmd0aEFkanVzdD0ic3BhY2luZyIgdGV4dExlbmd0aD0iNDgiIHg9IjcwOC41IiB5PSIzNjMuNzg5MSI+aGFuZGxlczwvdGV4dD48dGV4dCBmaWxsPSIjMDAwMDAwIiBmb250LWZhbWlseT0ic2Fucy1zZXJpZiIgZm9udC1zaXplPSIxMyIgbGVuZ3RoQWRqdXN0PSJzcGFjaW5nIiB0ZXh0TGVuZ3RoPSI3IiB4PSI2NjguMzIzNiIgeT0iNzUuMzg1MSI+MTwvdGV4dD48dGV4dCBmaWxsPSIjMDAwMDAwIiBmb250LWZhbWlseT0ic2Fucy1zZXJpZiIgZm9udC1zaXplPSIxMyIgbGVuZ3RoQWRqdXN0PSJzcGFjaW5nIiB0ZXh0TGVuZ3RoPSIyNSIgeD0iNjQ5LjYwOTMiIHk9IjY5Ny41OTM3Ij4xLi4qPC90ZXh0PjwvZz48IS0tU1JDPVtaUERESm1DWDQ0M2xfMGgyaVNia3Q2alpKRGVjY2ZaSzdjaHFKQlVadFNYMjAtbjlfVV9JTk01ZGFBWk5Ebl8wY3c1THFaYy1iUHJVZFNfeWROcW9yZXhlVmxNeWx2Q3pPQk9fSVZqc3N1NHdPaGVuV19QV0NOaGlVWVhZelJEVjNmemFBeE5Gd1NGRzd5M2tOZDkta1ZkNlE2LURLbEltalJKYkcxekFqZzI3RjFlYkxETERyZlE0STV5SVlTZU9JXzhrVUJQNi1SU1cyZjR2bmYzbEFRUVd0MkF3bGx3ZUFqZll6M05ZOTFrbnNKTTJNRkxhMVBhWXh3SUFleFVXV25LU3VfMXFjY1o0STRMSnJtazFqc2w5c3IwT2FYci1tTmhtdGNYU295TExOSlMyQkxBZWoyMHprNThRTWdyVnl5WW9wUGI5Q3lyRTRyZG8wb1laTm50dFhrNGx5OXp5RkVuQ0pCbjZLZkJEOTRrVkQ4TTJhekg3NVV2VDZDT1Y5THkwXS0tPjwvZz48L3N2Zz4=;" vertex="1" parent="WIyWlLk6GJQsqaUBKTNV-1">
            <mxGeometry x="30" y="-170" width="764" height="758" as="geometry" />
          </mxCell>
        </UserObject>
        <UserObject label="" plantUmlData="{&#xa;  &quot;data&quot;: &quot;@startuml\n\nclass MainApp {\n}\n\nclass JAWSGame {\n}\n\nclass SharkField {\n}\n\nclass Counter {\n  - counterValue: Int\n  + displayCounterValue(): String\n}\n\nclass TimeCounter {\n  - counterValue: Int\n  - timeCounterTimer: Timer\n  + displayCounterValue(): String\n  + startTimeCounter(label: Label): Unit\n  + stopTimeCounter(): Unit\n}\n\nclass Tile {\n  - isClicked: Boolean\n  + openTile(tileButton: Button): Unit\n}\n\nclass SharkTile {\n}\n\nclass VacantTile {\n}\n\nclass NumberOfTile {\n  - number: Int\n  + incrementNumber(): Unit\n}\n\nclass MainController {\n  + handleClick(event: ActionEvent): Unit\n}\n\nclass BarController {\n}\n\nclass mainMenuController {\n}\n\nMainApp --&gt; MainController\nMainApp --&gt; BarController\nMainApp --&gt; JAWSGame\n\nJAWSGame --&gt; SharkField\nJAWSGame --&gt; Counter\nJAWSGame --&gt; TimeCounter\n\nSharkField --&gt; Tile\n\nCounter &lt;|-- TimeCounter\n\nTile &lt;|-- SharkTile\nTile &lt;|-- VacantTile\nTile &lt;|-- NumberOfTile\n\nMainController --&gt; JAWSGame\n\nBarController --&gt; MainApp\nmainMenuController --&gt; MainApp\n\nTile \&quot;1\&quot; --&gt; \&quot;1..*\&quot; SharkField : contains\n\nTile &lt;|-- Button\nTile \&quot;1\&quot; -- \&quot;0..1\&quot; SharkTile : creates\nTile \&quot;1\&quot; -- \&quot;0..1\&quot; VacantTile : creates\nTile \&quot;1\&quot; -- \&quot;0..1\&quot; NumberOfTile : creates\n\nCounter \&quot;1\&quot; -- \&quot;0..1\&quot; JAWSGame : belongs to\nTimeCounter \&quot;1\&quot; -- \&quot;0..1\&quot; JAWSGame : belongs to\n\nSharkField \&quot;1\&quot; --&gt; \&quot;1..*\&quot; Tile : contains\n\nMainController \&quot;1\&quot; --&gt; \&quot;1..*\&quot; Button : handles\nmainMenuController \&quot;1\&quot; --&gt; \&quot;1..*\&quot; Button : handles\n\n@enduml\n&quot;,&#xa;  &quot;format&quot;: &quot;svg&quot;&#xa;}" id="FxuM8H2C9ezcy_0ipnlq-2">
          <mxCell style="shape=image;noLabel=1;verticalAlign=top;aspect=fixed;imageAspect=0;image=data:image/svg+xml,PD94bWwgdmVyc2lvbj0iMS4wIiBlbmNvZGluZz0idXMtYXNjaWkiIHN0YW5kYWxvbmU9Im5vIj8+PHN2ZyB4bWxucz0iaHR0cDovL3d3dy53My5vcmcvMjAwMC9zdmciIHhtbG5zOnhsaW5rPSJodHRwOi8vd3d3LnczLm9yZy8xOTk5L3hsaW5rIiBjb250ZW50U3R5bGVUeXBlPSJ0ZXh0L2NzcyIgaGVpZ2h0PSI5MDdweCIgcHJlc2VydmVBc3BlY3RSYXRpbz0ibm9uZSIgc3R5bGU9IndpZHRoOjk4MXB4O2hlaWdodDo5MDdweDtiYWNrZ3JvdW5kOiNGRkZGRkY7IiB2ZXJzaW9uPSIxLjEiIHZpZXdCb3g9IjAgMCA5ODEgOTA3IiB3aWR0aD0iOTgxcHgiIHpvb21BbmRQYW49Im1hZ25pZnkiPjxkZWZzLz48Zz48IS0tY2xhc3MgTWFpbkFwcC0tPjxnIGlkPSJlbGVtX01haW5BcHAiPjxyZWN0IGNvZGVMaW5lPSIxIiBmaWxsPSIjRjFGMUYxIiBoZWlnaHQ9IjQ4IiBpZD0iTWFpbkFwcCIgcng9IjIuNSIgcnk9IjIuNSIgc3R5bGU9InN0cm9rZTojMTgxODE4O3N0cm9rZS13aWR0aDowLjU7IiB3aWR0aD0iODEiIHg9Ijc2OSIgeT0iMTE2Ii8+PGVsbGlwc2UgY3g9Ijc4NCIgY3k9IjEzMiIgZmlsbD0iI0FERDFCMiIgcng9IjExIiByeT0iMTEiIHN0eWxlPSJzdHJva2U6IzE4MTgxODtzdHJva2Utd2lkdGg6MS4wOyIvPjxwYXRoIGQ9Ik03ODEuNjI1LDEzNi4yNSBMNzgxLjYyNSwxMzggTDc4Ni41NjI1LDEzOCBMNzg2LjU2MjUsMTM2LjI1IEw3ODEuNjI1LDEzNi4yNSBaIE03ODIuMzEyNSwxMzYuOTM3NSBRNzgyLjMxMjUsMTM2LjkzNzUgNzgyLjMxMjUsMTI3Ljc1IEw3ODAuNTYyNSwxMjcuNzUgUTc4MC41NjI1LDEyNy43NSA3ODAuNTYyNSwxMzYuOTM3NSBMNzgyLjMxMjUsMTM2LjkzNzUgWiBNNzg1Ljg3NSwxMzYuOTM3NSBMNzg3LjYyNSwxMzYuOTM3NSBRNzg3LjYyNSwxMzYuOTM3NSA3ODcuNjI1LDEzNC4xMjUgTDc4NS44NzUsMTM0LjEyNSBRNzg1Ljg3NSwxMzQuMTI1IDc4NS44NzUsMTM2LjkzNzUgWiBNNzg1Ljg3NSwxMjcuNzUgUTc4NS44NzUsMTI3Ljc1IDc4NS44NzUsMTMwLjU2MjUgTDc4Ny42MjUsMTMwLjU2MjUgUTc4Ny42MjUsMTMwLjU2MjUgNzg3LjYyNSwxMjcuNzUgTDc4NS44NzUsMTI3Ljc1IFogTTc4MS42MjUsMTI4LjQzNzUgTDc4Ni41NjI1LDEyOC40Mzc1IEw3ODYuNTYyNSwxMjYuNjg3NSBMNzgxLjYyNSwxMjYuNjg3NSBMNzgxLjYyNSwxMjguNDM3NSBaICIgZmlsbD0iIzAwMDAwMCIvPjx0ZXh0IGZpbGw9IiMwMDAwMDAiIGZvbnQtZmFtaWx5PSJzYW5zLXNlcmlmIiBmb250LXNpemU9IjE0IiBsZW5ndGhBZGp1c3Q9InNwYWNpbmciIHRleHRMZW5ndGg9IjQ5IiB4PSI3OTgiIHk9IjEzNy43NDIyIj5NYWluQXBwPC90ZXh0PjxsaW5lIHN0eWxlPSJzdHJva2U6IzE4MTgxODtzdHJva2Utd2lkdGg6MC41OyIgeDE9Ijc3MCIgeDI9Ijg0OSIgeTE9IjE0OCIgeTI9IjE0OCIvPjxsaW5lIHN0eWxlPSJzdHJva2U6IzE4MTgxODtzdHJva2Utd2lkdGg6MC41OyIgeDE9Ijc3MCIgeDI9Ijg0OSIgeTE9IjE1NiIgeTI9IjE1NiIvPjwvZz48IS0tY2xhc3MgSkFXU0dhbWUtLT48ZyBpZD0iZWxlbV9KQVdTR2FtZSI+PHJlY3QgY29kZUxpbmU9IjQiIGZpbGw9IiNGMUYxRjEiIGhlaWdodD0iNDgiIGlkPSJKQVdTR2FtZSIgcng9IjIuNSIgcnk9IjIuNSIgc3R5bGU9InN0cm9rZTojMTgxODE4O3N0cm9rZS13aWR0aDowLjU7IiB3aWR0aD0iOTAiIHg9IjM4Mi41IiB5PSIzNDkiLz48ZWxsaXBzZSBjeD0iMzk3LjUiIGN5PSIzNjUiIGZpbGw9IiNBREQxQjIiIHJ4PSIxMSIgcnk9IjExIiBzdHlsZT0ic3Ryb2tlOiMxODE4MTg7c3Ryb2tlLXdpZHRoOjEuMDsiLz48cGF0aCBkPSJNMzk1LjEyNSwzNjkuMjUgTDM5NS4xMjUsMzcxIEw0MDAuMDYyNSwzNzEgTDQwMC4wNjI1LDM2OS4yNSBMMzk1LjEyNSwzNjkuMjUgWiBNMzk1LjgxMjUsMzY5LjkzNzUgUTM5NS44MTI1LDM2OS45Mzc1IDM5NS44MTI1LDM2MC43NSBMMzk0LjA2MjUsMzYwLjc1IFEzOTQuMDYyNSwzNjAuNzUgMzk0LjA2MjUsMzY5LjkzNzUgTDM5NS44MTI1LDM2OS45Mzc1IFogTTM5OS4zNzUsMzY5LjkzNzUgTDQwMS4xMjUsMzY5LjkzNzUgUTQwMS4xMjUsMzY5LjkzNzUgNDAxLjEyNSwzNjcuMTI1IEwzOTkuMzc1LDM2Ny4xMjUgUTM5OS4zNzUsMzY3LjEyNSAzOTkuMzc1LDM2OS45Mzc1IFogTTM5OS4zNzUsMzYwLjc1IFEzOTkuMzc1LDM2MC43NSAzOTkuMzc1LDM2My41NjI1IEw0MDEuMTI1LDM2My41NjI1IFE0MDEuMTI1LDM2My41NjI1IDQwMS4xMjUsMzYwLjc1IEwzOTkuMzc1LDM2MC43NSBaIE0zOTUuMTI1LDM2MS40Mzc1IEw0MDAuMDYyNSwzNjEuNDM3NSBMNDAwLjA2MjUsMzU5LjY4NzUgTDM5NS4xMjUsMzU5LjY4NzUgTDM5NS4xMjUsMzYxLjQzNzUgWiAiIGZpbGw9IiMwMDAwMDAiLz48dGV4dCBmaWxsPSIjMDAwMDAwIiBmb250LWZhbWlseT0ic2Fucy1zZXJpZiIgZm9udC1zaXplPSIxNCIgbGVuZ3RoQWRqdXN0PSJzcGFjaW5nIiB0ZXh0TGVuZ3RoPSI1OCIgeD0iNDExLjUiIHk9IjM3MC43NDIyIj5KQVdTR2FtZTwvdGV4dD48bGluZSBzdHlsZT0ic3Ryb2tlOiMxODE4MTg7c3Ryb2tlLXdpZHRoOjAuNTsiIHgxPSIzODMuNSIgeDI9IjQ3MS41IiB5MT0iMzgxIiB5Mj0iMzgxIi8+PGxpbmUgc3R5bGU9InN0cm9rZTojMTgxODE4O3N0cm9rZS13aWR0aDowLjU7IiB4MT0iMzgzLjUiIHgyPSI0NzEuNSIgeTE9IjM4OSIgeTI9IjM4OSIvPjwvZz48IS0tY2xhc3MgU2hhcmtGaWVsZC0tPjxnIGlkPSJlbGVtX1NoYXJrRmllbGQiPjxyZWN0IGNvZGVMaW5lPSI3IiBmaWxsPSIjRjFGMUYxIiBoZWlnaHQ9IjQ4IiBpZD0iU2hhcmtGaWVsZCIgcng9IjIuNSIgcnk9IjIuNSIgc3R5bGU9InN0cm9rZTojMTgxODE4O3N0cm9rZS13aWR0aDowLjU7IiB3aWR0aD0iMTAyIiB4PSIxMTYuNSIgeT0iNDg3Ii8+PGVsbGlwc2UgY3g9IjEzMS41IiBjeT0iNTAzIiBmaWxsPSIjQUREMUIyIiByeD0iMTEiIHJ5PSIxMSIgc3R5bGU9InN0cm9rZTojMTgxODE4O3N0cm9rZS13aWR0aDoxLjA7Ii8+PHBhdGggZD0iTTEyOS4xMjUsNTA3LjI1IEwxMjkuMTI1LDUwOSBMMTM0LjA2MjUsNTA5IEwxMzQuMDYyNSw1MDcuMjUgTDEyOS4xMjUsNTA3LjI1IFogTTEyOS44MTI1LDUwNy45Mzc1IFExMjkuODEyNSw1MDcuOTM3NSAxMjkuODEyNSw0OTguNzUgTDEyOC4wNjI1LDQ5OC43NSBRMTI4LjA2MjUsNDk4Ljc1IDEyOC4wNjI1LDUwNy45Mzc1IEwxMjkuODEyNSw1MDcuOTM3NSBaIE0xMzMuMzc1LDUwNy45Mzc1IEwxMzUuMTI1LDUwNy45Mzc1IFExMzUuMTI1LDUwNy45Mzc1IDEzNS4xMjUsNTA1LjEyNSBMMTMzLjM3NSw1MDUuMTI1IFExMzMuMzc1LDUwNS4xMjUgMTMzLjM3NSw1MDcuOTM3NSBaIE0xMzMuMzc1LDQ5OC43NSBRMTMzLjM3NSw0OTguNzUgMTMzLjM3NSw1MDEuNTYyNSBMMTM1LjEyNSw1MDEuNTYyNSBRMTM1LjEyNSw1MDEuNTYyNSAxMzUuMTI1LDQ5OC43NSBMMTMzLjM3NSw0OTguNzUgWiBNMTI5LjEyNSw0OTkuNDM3NSBMMTM0LjA2MjUsNDk5LjQzNzUgTDEzNC4wNjI1LDQ5Ny42ODc1IEwxMjkuMTI1LDQ5Ny42ODc1IEwxMjkuMTI1LDQ5OS40Mzc1IFogIiBmaWxsPSIjMDAwMDAwIi8+PHRleHQgZmlsbD0iIzAwMDAwMCIgZm9udC1mYW1pbHk9InNhbnMtc2VyaWYiIGZvbnQtc2l6ZT0iMTQiIGxlbmd0aEFkanVzdD0ic3BhY2luZyIgdGV4dExlbmd0aD0iNzAiIHg9IjE0NS41IiB5PSI1MDguNzQyMiI+U2hhcmtGaWVsZDwvdGV4dD48bGluZSBzdHlsZT0ic3Ryb2tlOiMxODE4MTg7c3Ryb2tlLXdpZHRoOjAuNTsiIHgxPSIxMTcuNSIgeDI9IjIxNy41IiB5MT0iNTE5IiB5Mj0iNTE5Ii8+PGxpbmUgc3R5bGU9InN0cm9rZTojMTgxODE4O3N0cm9rZS13aWR0aDowLjU7IiB4MT0iMTE3LjUiIHgyPSIyMTcuNSIgeTE9IjUyNyIgeTI9IjUyNyIvPjwvZz48IS0tY2xhc3MgQ291bnRlci0tPjxnIGlkPSJlbGVtX0NvdW50ZXIiPjxyZWN0IGNvZGVMaW5lPSIxMCIgZmlsbD0iI0YxRjFGMSIgaGVpZ2h0PSI3Ny45Njg4IiBpZD0iQ291bnRlciIgcng9IjIuNSIgcnk9IjIuNSIgc3R5bGU9InN0cm9rZTojMTgxODE4O3N0cm9rZS13aWR0aDowLjU7IiB3aWR0aD0iMjMxIiB4PSIyNTQiIHk9IjQ3MiIvPjxlbGxpcHNlIGN4PSIzNDAuNzUiIGN5PSI0ODgiIGZpbGw9IiNBREQxQjIiIHJ4PSIxMSIgcnk9IjExIiBzdHlsZT0ic3Ryb2tlOiMxODE4MTg7c3Ryb2tlLXdpZHRoOjEuMDsiLz48cGF0aCBkPSJNMzM4LjM3NSw0OTIuMjUgTDMzOC4zNzUsNDk0IEwzNDMuMzEyNSw0OTQgTDM0My4zMTI1LDQ5Mi4yNSBMMzM4LjM3NSw0OTIuMjUgWiBNMzM5LjA2MjUsNDkyLjkzNzUgUTMzOS4wNjI1LDQ5Mi45Mzc1IDMzOS4wNjI1LDQ4My43NSBMMzM3LjMxMjUsNDgzLjc1IFEzMzcuMzEyNSw0ODMuNzUgMzM3LjMxMjUsNDkyLjkzNzUgTDMzOS4wNjI1LDQ5Mi45Mzc1IFogTTM0Mi42MjUsNDkyLjkzNzUgTDM0NC4zNzUsNDkyLjkzNzUgUTM0NC4zNzUsNDkyLjkzNzUgMzQ0LjM3NSw0OTAuMTI1IEwzNDIuNjI1LDQ5MC4xMjUgUTM0Mi42MjUsNDkwLjEyNSAzNDIuNjI1LDQ5Mi45Mzc1IFogTTM0Mi42MjUsNDgzLjc1IFEzNDIuNjI1LDQ4My43NSAzNDIuNjI1LDQ4Ni41NjI1IEwzNDQuMzc1LDQ4Ni41NjI1IFEzNDQuMzc1LDQ4Ni41NjI1IDM0NC4zNzUsNDgzLjc1IEwzNDIuNjI1LDQ4My43NSBaIE0zMzguMzc1LDQ4NC40Mzc1IEwzNDMuMzEyNSw0ODQuNDM3NSBMMzQzLjMxMjUsNDgyLjY4NzUgTDMzOC4zNzUsNDgyLjY4NzUgTDMzOC4zNzUsNDg0LjQzNzUgWiAiIGZpbGw9IiMwMDAwMDAiLz48dGV4dCBmaWxsPSIjMDAwMDAwIiBmb250LWZhbWlseT0ic2Fucy1zZXJpZiIgZm9udC1zaXplPSIxNCIgbGVuZ3RoQWRqdXN0PSJzcGFjaW5nIiB0ZXh0TGVuZ3RoPSI0OSIgeD0iMzYxLjI1IiB5PSI0OTMuNzQyMiI+Q291bnRlcjwvdGV4dD48bGluZSBzdHlsZT0ic3Ryb2tlOiMxODE4MTg7c3Ryb2tlLXdpZHRoOjAuNTsiIHgxPSIyNTUiIHgyPSI0ODQiIHkxPSI1MDQiIHkyPSI1MDQiLz48cmVjdCBmaWxsPSJub25lIiBoZWlnaHQ9IjYiIHN0eWxlPSJzdHJva2U6I0M4MjkzMDtzdHJva2Utd2lkdGg6MS4wOyIgd2lkdGg9IjYiIHg9IjI2MiIgeT0iNTEzLjk5MjIiLz48dGV4dCBmaWxsPSIjMDAwMDAwIiBmb250LWZhbWlseT0ic2Fucy1zZXJpZiIgZm9udC1zaXplPSIxNCIgbGVuZ3RoQWRqdXN0PSJzcGFjaW5nIiB0ZXh0TGVuZ3RoPSIxMTkiIHg9IjI3NCIgeT0iNTIxLjIzNDQiPmNvdW50ZXJWYWx1ZTogSW50PC90ZXh0PjxsaW5lIHN0eWxlPSJzdHJva2U6IzE4MTgxODtzdHJva2Utd2lkdGg6MC41OyIgeDE9IjI1NSIgeDI9IjQ4NCIgeTE9IjUyNi45ODQ0IiB5Mj0iNTI2Ljk4NDQiLz48ZWxsaXBzZSBjeD0iMjY1IiBjeT0iNTM5Ljk3NjYiIGZpbGw9IiM4NEJFODQiIHJ4PSIzIiByeT0iMyIgc3R5bGU9InN0cm9rZTojMDM4MDQ4O3N0cm9rZS13aWR0aDoxLjA7Ii8+PHRleHQgZmlsbD0iIzAwMDAwMCIgZm9udC1mYW1pbHk9InNhbnMtc2VyaWYiIGZvbnQtc2l6ZT0iMTQiIGxlbmd0aEFkanVzdD0ic3BhY2luZyIgdGV4dExlbmd0aD0iMjA1IiB4PSIyNzQiIHk9IjU0NC4yMTg4Ij5kaXNwbGF5Q291bnRlclZhbHVlKCk6IFN0cmluZzwvdGV4dD48L2c+PCEtLWNsYXNzIFRpbWVDb3VudGVyLS0+PGcgaWQ9ImVsZW1fVGltZUNvdW50ZXIiPjxyZWN0IGNvZGVMaW5lPSIxNSIgZmlsbD0iI0YxRjFGMSIgaGVpZ2h0PSIxMjIuOTIxOSIgaWQ9IlRpbWVDb3VudGVyIiByeD0iMi41IiByeT0iMi41IiBzdHlsZT0ic3Ryb2tlOiMxODE4MTg7c3Ryb2tlLXdpZHRoOjAuNTsiIHdpZHRoPSIyODEiIHg9IjM5OCIgeT0iNjI1Ii8+PGVsbGlwc2UgY3g9IjQ5NS4yNSIgY3k9IjY0MSIgZmlsbD0iI0FERDFCMiIgcng9IjExIiByeT0iMTEiIHN0eWxlPSJzdHJva2U6IzE4MTgxODtzdHJva2Utd2lkdGg6MS4wOyIvPjxwYXRoIGQ9Ik00OTIuODc1LDY0NS4yNSBMNDkyLjg3NSw2NDcgTDQ5Ny44MTI1LDY0NyBMNDk3LjgxMjUsNjQ1LjI1IEw0OTIuODc1LDY0NS4yNSBaIE00OTMuNTYyNSw2NDUuOTM3NSBRNDkzLjU2MjUsNjQ1LjkzNzUgNDkzLjU2MjUsNjM2Ljc1IEw0OTEuODEyNSw2MzYuNzUgUTQ5MS44MTI1LDYzNi43NSA0OTEuODEyNSw2NDUuOTM3NSBMNDkzLjU2MjUsNjQ1LjkzNzUgWiBNNDk3LjEyNSw2NDUuOTM3NSBMNDk4Ljg3NSw2NDUuOTM3NSBRNDk4Ljg3NSw2NDUuOTM3NSA0OTguODc1LDY0My4xMjUgTDQ5Ny4xMjUsNjQzLjEyNSBRNDk3LjEyNSw2NDMuMTI1IDQ5Ny4xMjUsNjQ1LjkzNzUgWiBNNDk3LjEyNSw2MzYuNzUgUTQ5Ny4xMjUsNjM2Ljc1IDQ5Ny4xMjUsNjM5LjU2MjUgTDQ5OC44NzUsNjM5LjU2MjUgUTQ5OC44NzUsNjM5LjU2MjUgNDk4Ljg3NSw2MzYuNzUgTDQ5Ny4xMjUsNjM2Ljc1IFogTTQ5Mi44NzUsNjM3LjQzNzUgTDQ5Ny44MTI1LDYzNy40Mzc1IEw0OTcuODEyNSw2MzUuNjg3NSBMNDkyLjg3NSw2MzUuNjg3NSBMNDkyLjg3NSw2MzcuNDM3NSBaICIgZmlsbD0iIzAwMDAwMCIvPjx0ZXh0IGZpbGw9IiMwMDAwMDAiIGZvbnQtZmFtaWx5PSJzYW5zLXNlcmlmIiBmb250LXNpemU9IjE0IiBsZW5ndGhBZGp1c3Q9InNwYWNpbmciIHRleHRMZW5ndGg9Ijc4IiB4PSI1MTUuNzUiIHk9IjY0Ni43NDIyIj5UaW1lQ291bnRlcjwvdGV4dD48bGluZSBzdHlsZT0ic3Ryb2tlOiMxODE4MTg7c3Ryb2tlLXdpZHRoOjAuNTsiIHgxPSIzOTkiIHgyPSI2NzgiIHkxPSI2NTciIHkyPSI2NTciLz48cmVjdCBmaWxsPSJub25lIiBoZWlnaHQ9IjYiIHN0eWxlPSJzdHJva2U6I0M4MjkzMDtzdHJva2Utd2lkdGg6MS4wOyIgd2lkdGg9IjYiIHg9IjQwNiIgeT0iNjY2Ljk5MjIiLz48dGV4dCBmaWxsPSIjMDAwMDAwIiBmb250LWZhbWlseT0ic2Fucy1zZXJpZiIgZm9udC1zaXplPSIxNCIgbGVuZ3RoQWRqdXN0PSJzcGFjaW5nIiB0ZXh0TGVuZ3RoPSIxMTkiIHg9IjQxOCIgeT0iNjc0LjIzNDQiPmNvdW50ZXJWYWx1ZTogSW50PC90ZXh0PjxyZWN0IGZpbGw9Im5vbmUiIGhlaWdodD0iNiIgc3R5bGU9InN0cm9rZTojQzgyOTMwO3N0cm9rZS13aWR0aDoxLjA7IiB3aWR0aD0iNiIgeD0iNDA2IiB5PSI2ODEuOTc2NiIvPjx0ZXh0IGZpbGw9IiMwMDAwMDAiIGZvbnQtZmFtaWx5PSJzYW5zLXNlcmlmIiBmb250LXNpemU9IjE0IiBsZW5ndGhBZGp1c3Q9InNwYWNpbmciIHRleHRMZW5ndGg9IjE2NCIgeD0iNDE4IiB5PSI2ODkuMjE4OCI+dGltZUNvdW50ZXJUaW1lcjogVGltZXI8L3RleHQ+PGxpbmUgc3R5bGU9InN0cm9rZTojMTgxODE4O3N0cm9rZS13aWR0aDowLjU7IiB4MT0iMzk5IiB4Mj0iNjc4IiB5MT0iNjk0Ljk2ODgiIHkyPSI2OTQuOTY4OCIvPjxlbGxpcHNlIGN4PSI0MDkiIGN5PSI3MDcuOTYwOSIgZmlsbD0iIzg0QkU4NCIgcng9IjMiIHJ5PSIzIiBzdHlsZT0ic3Ryb2tlOiMwMzgwNDg7c3Ryb2tlLXdpZHRoOjEuMDsiLz48dGV4dCBmaWxsPSIjMDAwMDAwIiBmb250LWZhbWlseT0ic2Fucy1zZXJpZiIgZm9udC1zaXplPSIxNCIgbGVuZ3RoQWRqdXN0PSJzcGFjaW5nIiB0ZXh0TGVuZ3RoPSIyMDUiIHg9IjQxOCIgeT0iNzEyLjIwMzEiPmRpc3BsYXlDb3VudGVyVmFsdWUoKTogU3RyaW5nPC90ZXh0PjxlbGxpcHNlIGN4PSI0MDkiIGN5PSI3MjIuOTQ1MyIgZmlsbD0iIzg0QkU4NCIgcng9IjMiIHJ5PSIzIiBzdHlsZT0ic3Ryb2tlOiMwMzgwNDg7c3Ryb2tlLXdpZHRoOjEuMDsiLz48dGV4dCBmaWxsPSIjMDAwMDAwIiBmb250LWZhbWlseT0ic2Fucy1zZXJpZiIgZm9udC1zaXplPSIxNCIgbGVuZ3RoQWRqdXN0PSJzcGFjaW5nIiB0ZXh0TGVuZ3RoPSIyNTUiIHg9IjQxOCIgeT0iNzI3LjE4NzUiPnN0YXJ0VGltZUNvdW50ZXIobGFiZWw6IExhYmVsKTogVW5pdDwvdGV4dD48ZWxsaXBzZSBjeD0iNDA5IiBjeT0iNzM3LjkyOTciIGZpbGw9IiM4NEJFODQiIHJ4PSIzIiByeT0iMyIgc3R5bGU9InN0cm9rZTojMDM4MDQ4O3N0cm9rZS13aWR0aDoxLjA7Ii8+PHRleHQgZmlsbD0iIzAwMDAwMCIgZm9udC1mYW1pbHk9InNhbnMtc2VyaWYiIGZvbnQtc2l6ZT0iMTQiIGxlbmd0aEFkanVzdD0ic3BhY2luZyIgdGV4dExlbmd0aD0iMTY0IiB4PSI0MTgiIHk9Ijc0Mi4xNzE5Ij5zdG9wVGltZUNvdW50ZXIoKTogVW5pdDwvdGV4dD48L2c+PCEtLWNsYXNzIFRpbGUtLT48ZyBpZD0iZWxlbV9UaWxlIj48cmVjdCBjb2RlTGluZT0iMjMiIGZpbGw9IiNGMUYxRjEiIGhlaWdodD0iNzcuOTY4OCIgaWQ9IlRpbGUiIHJ4PSIyLjUiIHJ5PSIyLjUiIHN0eWxlPSJzdHJva2U6IzE4MTgxODtzdHJva2Utd2lkdGg6MC41OyIgd2lkdGg9IjI2NiIgeD0iODAuNSIgeT0iNjQ3LjUiLz48ZWxsaXBzZSBjeD0iMTk1LjI1IiBjeT0iNjYzLjUiIGZpbGw9IiNBREQxQjIiIHJ4PSIxMSIgcnk9IjExIiBzdHlsZT0ic3Ryb2tlOiMxODE4MTg7c3Ryb2tlLXdpZHRoOjEuMDsiLz48cGF0aCBkPSJNMTkyLjg3NSw2NjcuNzUgTDE5Mi44NzUsNjY5LjUgTDE5Ny44MTI1LDY2OS41IEwxOTcuODEyNSw2NjcuNzUgTDE5Mi44NzUsNjY3Ljc1IFogTTE5My41NjI1LDY2OC40Mzc1IFExOTMuNTYyNSw2NjguNDM3NSAxOTMuNTYyNSw2NTkuMjUgTDE5MS44MTI1LDY1OS4yNSBRMTkxLjgxMjUsNjU5LjI1IDE5MS44MTI1LDY2OC40Mzc1IEwxOTMuNTYyNSw2NjguNDM3NSBaIE0xOTcuMTI1LDY2OC40Mzc1IEwxOTguODc1LDY2OC40Mzc1IFExOTguODc1LDY2OC40Mzc1IDE5OC44NzUsNjY1LjYyNSBMMTk3LjEyNSw2NjUuNjI1IFExOTcuMTI1LDY2NS42MjUgMTk3LjEyNSw2NjguNDM3NSBaIE0xOTcuMTI1LDY1OS4yNSBRMTk3LjEyNSw2NTkuMjUgMTk3LjEyNSw2NjIuMDYyNSBMMTk4Ljg3NSw2NjIuMDYyNSBRMTk4Ljg3NSw2NjIuMDYyNSAxOTguODc1LDY1OS4yNSBMMTk3LjEyNSw2NTkuMjUgWiBNMTkyLjg3NSw2NTkuOTM3NSBMMTk3LjgxMjUsNjU5LjkzNzUgTDE5Ny44MTI1LDY1OC4xODc1IEwxOTIuODc1LDY1OC4xODc1IEwxOTIuODc1LDY1OS45Mzc1IFogIiBmaWxsPSIjMDAwMDAwIi8+PHRleHQgZmlsbD0iIzAwMDAwMCIgZm9udC1mYW1pbHk9InNhbnMtc2VyaWYiIGZvbnQtc2l6ZT0iMTQiIGxlbmd0aEFkanVzdD0ic3BhY2luZyIgdGV4dExlbmd0aD0iMjgiIHg9IjIxNS43NSIgeT0iNjY5LjI0MjIiPlRpbGU8L3RleHQ+PGxpbmUgc3R5bGU9InN0cm9rZTojMTgxODE4O3N0cm9rZS13aWR0aDowLjU7IiB4MT0iODEuNSIgeDI9IjM0NS41IiB5MT0iNjc5LjUiIHkyPSI2NzkuNSIvPjxyZWN0IGZpbGw9Im5vbmUiIGhlaWdodD0iNiIgc3R5bGU9InN0cm9rZTojQzgyOTMwO3N0cm9rZS13aWR0aDoxLjA7IiB3aWR0aD0iNiIgeD0iODguNSIgeT0iNjg5LjQ5MjIiLz48dGV4dCBmaWxsPSIjMDAwMDAwIiBmb250LWZhbWlseT0ic2Fucy1zZXJpZiIgZm9udC1zaXplPSIxNCIgbGVuZ3RoQWRqdXN0PSJzcGFjaW5nIiB0ZXh0TGVuZ3RoPSIxMjYiIHg9IjEwMC41IiB5PSI2OTYuNzM0NCI+aXNDbGlja2VkOiBCb29sZWFuPC90ZXh0PjxsaW5lIHN0eWxlPSJzdHJva2U6IzE4MTgxODtzdHJva2Utd2lkdGg6MC41OyIgeDE9IjgxLjUiIHgyPSIzNDUuNSIgeTE9IjcwMi40ODQ0IiB5Mj0iNzAyLjQ4NDQiLz48ZWxsaXBzZSBjeD0iOTEuNSIgY3k9IjcxNS40NzY2IiBmaWxsPSIjODRCRTg0IiByeD0iMyIgcnk9IjMiIHN0eWxlPSJzdHJva2U6IzAzODA0ODtzdHJva2Utd2lkdGg6MS4wOyIvPjx0ZXh0IGZpbGw9IiMwMDAwMDAiIGZvbnQtZmFtaWx5PSJzYW5zLXNlcmlmIiBmb250LXNpemU9IjE0IiBsZW5ndGhBZGp1c3Q9InNwYWNpbmciIHRleHRMZW5ndGg9IjI0MCIgeD0iMTAwLjUiIHk9IjcxOS43MTg4Ij5vcGVuVGlsZSh0aWxlQnV0dG9uOiBCdXR0b24pOiBVbml0PC90ZXh0PjwvZz48IS0tY2xhc3MgU2hhcmtUaWxlLS0+PGcgaWQ9ImVsZW1fU2hhcmtUaWxlIj48cmVjdCBjb2RlTGluZT0iMjgiIGZpbGw9IiNGMUYxRjEiIGhlaWdodD0iNDgiIGlkPSJTaGFya1RpbGUiIHJ4PSIyLjUiIHJ5PSIyLjUiIHN0eWxlPSJzdHJva2U6IzE4MTgxODtzdHJva2Utd2lkdGg6MC41OyIgd2lkdGg9Ijk1IiB4PSI3IiB5PSI4MzgiLz48ZWxsaXBzZSBjeD0iMjIiIGN5PSI4NTQiIGZpbGw9IiNBREQxQjIiIHJ4PSIxMSIgcnk9IjExIiBzdHlsZT0ic3Ryb2tlOiMxODE4MTg7c3Ryb2tlLXdpZHRoOjEuMDsiLz48cGF0aCBkPSJNMTkuNjI1LDg1OC4yNSBMMTkuNjI1LDg2MCBMMjQuNTYyNSw4NjAgTDI0LjU2MjUsODU4LjI1IEwxOS42MjUsODU4LjI1IFogTTIwLjMxMjUsODU4LjkzNzUgUTIwLjMxMjUsODU4LjkzNzUgMjAuMzEyNSw4NDkuNzUgTDE4LjU2MjUsODQ5Ljc1IFExOC41NjI1LDg0OS43NSAxOC41NjI1LDg1OC45Mzc1IEwyMC4zMTI1LDg1OC45Mzc1IFogTTIzLjg3NSw4NTguOTM3NSBMMjUuNjI1LDg1OC45Mzc1IFEyNS42MjUsODU4LjkzNzUgMjUuNjI1LDg1Ni4xMjUgTDIzLjg3NSw4NTYuMTI1IFEyMy44NzUsODU2LjEyNSAyMy44NzUsODU4LjkzNzUgWiBNMjMuODc1LDg0OS43NSBRMjMuODc1LDg0OS43NSAyMy44NzUsODUyLjU2MjUgTDI1LjYyNSw4NTIuNTYyNSBRMjUuNjI1LDg1Mi41NjI1IDI1LjYyNSw4NDkuNzUgTDIzLjg3NSw4NDkuNzUgWiBNMTkuNjI1LDg1MC40Mzc1IEwyNC41NjI1LDg1MC40Mzc1IEwyNC41NjI1LDg0OC42ODc1IEwxOS42MjUsODQ4LjY4NzUgTDE5LjYyNSw4NTAuNDM3NSBaICIgZmlsbD0iIzAwMDAwMCIvPjx0ZXh0IGZpbGw9IiMwMDAwMDAiIGZvbnQtZmFtaWx5PSJzYW5zLXNlcmlmIiBmb250LXNpemU9IjE0IiBsZW5ndGhBZGp1c3Q9InNwYWNpbmciIHRleHRMZW5ndGg9IjYzIiB4PSIzNiIgeT0iODU5Ljc0MjIiPlNoYXJrVGlsZTwvdGV4dD48bGluZSBzdHlsZT0ic3Ryb2tlOiMxODE4MTg7c3Ryb2tlLXdpZHRoOjAuNTsiIHgxPSI4IiB4Mj0iMTAxIiB5MT0iODcwIiB5Mj0iODcwIi8+PGxpbmUgc3R5bGU9InN0cm9rZTojMTgxODE4O3N0cm9rZS13aWR0aDowLjU7IiB4MT0iOCIgeDI9IjEwMSIgeTE9Ijg3OCIgeTI9Ijg3OCIvPjwvZz48IS0tY2xhc3MgVmFjYW50VGlsZS0tPjxnIGlkPSJlbGVtX1ZhY2FudFRpbGUiPjxyZWN0IGNvZGVMaW5lPSIzMSIgZmlsbD0iI0YxRjFGMSIgaGVpZ2h0PSI0OCIgaWQ9IlZhY2FudFRpbGUiIHJ4PSIyLjUiIHJ5PSIyLjUiIHN0eWxlPSJzdHJva2U6IzE4MTgxODtzdHJva2Utd2lkdGg6MC41OyIgd2lkdGg9IjEwMiIgeD0iMTM4LjUiIHk9IjgzOCIvPjxlbGxpcHNlIGN4PSIxNTMuNSIgY3k9Ijg1NCIgZmlsbD0iI0FERDFCMiIgcng9IjExIiByeT0iMTEiIHN0eWxlPSJzdHJva2U6IzE4MTgxODtzdHJva2Utd2lkdGg6MS4wOyIvPjxwYXRoIGQ9Ik0xNTEuMTI1LDg1OC4yNSBMMTUxLjEyNSw4NjAgTDE1Ni4wNjI1LDg2MCBMMTU2LjA2MjUsODU4LjI1IEwxNTEuMTI1LDg1OC4yNSBaIE0xNTEuODEyNSw4NTguOTM3NSBRMTUxLjgxMjUsODU4LjkzNzUgMTUxLjgxMjUsODQ5Ljc1IEwxNTAuMDYyNSw4NDkuNzUgUTE1MC4wNjI1LDg0OS43NSAxNTAuMDYyNSw4NTguOTM3NSBMMTUxLjgxMjUsODU4LjkzNzUgWiBNMTU1LjM3NSw4NTguOTM3NSBMMTU3LjEyNSw4NTguOTM3NSBRMTU3LjEyNSw4NTguOTM3NSAxNTcuMTI1LDg1Ni4xMjUgTDE1NS4zNzUsODU2LjEyNSBRMTU1LjM3NSw4NTYuMTI1IDE1NS4zNzUsODU4LjkzNzUgWiBNMTU1LjM3NSw4NDkuNzUgUTE1NS4zNzUsODQ5Ljc1IDE1NS4zNzUsODUyLjU2MjUgTDE1Ny4xMjUsODUyLjU2MjUgUTE1Ny4xMjUsODUyLjU2MjUgMTU3LjEyNSw4NDkuNzUgTDE1NS4zNzUsODQ5Ljc1IFogTTE1MS4xMjUsODUwLjQzNzUgTDE1Ni4wNjI1LDg1MC40Mzc1IEwxNTYuMDYyNSw4NDguNjg3NSBMMTUxLjEyNSw4NDguNjg3NSBMMTUxLjEyNSw4NTAuNDM3NSBaICIgZmlsbD0iIzAwMDAwMCIvPjx0ZXh0IGZpbGw9IiMwMDAwMDAiIGZvbnQtZmFtaWx5PSJzYW5zLXNlcmlmIiBmb250LXNpemU9IjE0IiBsZW5ndGhBZGp1c3Q9InNwYWNpbmciIHRleHRMZW5ndGg9IjcwIiB4PSIxNjcuNSIgeT0iODU5Ljc0MjIiPlZhY2FudFRpbGU8L3RleHQ+PGxpbmUgc3R5bGU9InN0cm9rZTojMTgxODE4O3N0cm9rZS13aWR0aDowLjU7IiB4MT0iMTM5LjUiIHgyPSIyMzkuNSIgeTE9Ijg3MCIgeTI9Ijg3MCIvPjxsaW5lIHN0eWxlPSJzdHJva2U6IzE4MTgxODtzdHJva2Utd2lkdGg6MC41OyIgeDE9IjEzOS41IiB4Mj0iMjM5LjUiIHkxPSI4NzgiIHkyPSI4NzgiLz48L2c+PCEtLWNsYXNzIE51bWJlck9mVGlsZS0tPjxnIGlkPSJlbGVtX051bWJlck9mVGlsZSI+PHJlY3QgY29kZUxpbmU9IjM0IiBmaWxsPSIjRjFGMUYxIiBoZWlnaHQ9Ijc3Ljk2ODgiIGlkPSJOdW1iZXJPZlRpbGUiIHJ4PSIyLjUiIHJ5PSIyLjUiIHN0eWxlPSJzdHJva2U6IzE4MTgxODtzdHJva2Utd2lkdGg6MC41OyIgd2lkdGg9IjE5MSIgeD0iMjc2IiB5PSI4MjMiLz48ZWxsaXBzZSBjeD0iMzI0Ljc1IiBjeT0iODM5IiBmaWxsPSIjQUREMUIyIiByeD0iMTEiIHJ5PSIxMSIgc3R5bGU9InN0cm9rZTojMTgxODE4O3N0cm9rZS13aWR0aDoxLjA7Ii8+PHBhdGggZD0iTTMyMi4zNzUsODQzLjI1IEwzMjIuMzc1LDg0NSBMMzI3LjMxMjUsODQ1IEwzMjcuMzEyNSw4NDMuMjUgTDMyMi4zNzUsODQzLjI1IFogTTMyMy4wNjI1LDg0My45Mzc1IFEzMjMuMDYyNSw4NDMuOTM3NSAzMjMuMDYyNSw4MzQuNzUgTDMyMS4zMTI1LDgzNC43NSBRMzIxLjMxMjUsODM0Ljc1IDMyMS4zMTI1LDg0My45Mzc1IEwzMjMuMDYyNSw4NDMuOTM3NSBaIE0zMjYuNjI1LDg0My45Mzc1IEwzMjguMzc1LDg0My45Mzc1IFEzMjguMzc1LDg0My45Mzc1IDMyOC4zNzUsODQxLjEyNSBMMzI2LjYyNSw4NDEuMTI1IFEzMjYuNjI1LDg0MS4xMjUgMzI2LjYyNSw4NDMuOTM3NSBaIE0zMjYuNjI1LDgzNC43NSBRMzI2LjYyNSw4MzQuNzUgMzI2LjYyNSw4MzcuNTYyNSBMMzI4LjM3NSw4MzcuNTYyNSBRMzI4LjM3NSw4MzcuNTYyNSAzMjguMzc1LDgzNC43NSBMMzI2LjYyNSw4MzQuNzUgWiBNMzIyLjM3NSw4MzUuNDM3NSBMMzI3LjMxMjUsODM1LjQzNzUgTDMyNy4zMTI1LDgzMy42ODc1IEwzMjIuMzc1LDgzMy42ODc1IEwzMjIuMzc1LDgzNS40Mzc1IFogIiBmaWxsPSIjMDAwMDAwIi8+PHRleHQgZmlsbD0iIzAwMDAwMCIgZm9udC1mYW1pbHk9InNhbnMtc2VyaWYiIGZvbnQtc2l6ZT0iMTQiIGxlbmd0aEFkanVzdD0ic3BhY2luZyIgdGV4dExlbmd0aD0iODUiIHg9IjM0NS4yNSIgeT0iODQ0Ljc0MjIiPk51bWJlck9mVGlsZTwvdGV4dD48bGluZSBzdHlsZT0ic3Ryb2tlOiMxODE4MTg7c3Ryb2tlLXdpZHRoOjAuNTsiIHgxPSIyNzciIHgyPSI0NjYiIHkxPSI4NTUiIHkyPSI4NTUiLz48cmVjdCBmaWxsPSJub25lIiBoZWlnaHQ9IjYiIHN0eWxlPSJzdHJva2U6I0M4MjkzMDtzdHJva2Utd2lkdGg6MS4wOyIgd2lkdGg9IjYiIHg9IjI4NCIgeT0iODY0Ljk5MjIiLz48dGV4dCBmaWxsPSIjMDAwMDAwIiBmb250LWZhbWlseT0ic2Fucy1zZXJpZiIgZm9udC1zaXplPSIxNCIgbGVuZ3RoQWRqdXN0PSJzcGFjaW5nIiB0ZXh0TGVuZ3RoPSI3OCIgeD0iMjk2IiB5PSI4NzIuMjM0NCI+bnVtYmVyOiBJbnQ8L3RleHQ+PGxpbmUgc3R5bGU9InN0cm9rZTojMTgxODE4O3N0cm9rZS13aWR0aDowLjU7IiB4MT0iMjc3IiB4Mj0iNDY2IiB5MT0iODc3Ljk4NDQiIHkyPSI4NzcuOTg0NCIvPjxlbGxpcHNlIGN4PSIyODciIGN5PSI4OTAuOTc2NiIgZmlsbD0iIzg0QkU4NCIgcng9IjMiIHJ5PSIzIiBzdHlsZT0ic3Ryb2tlOiMwMzgwNDg7c3Ryb2tlLXdpZHRoOjEuMDsiLz48dGV4dCBmaWxsPSIjMDAwMDAwIiBmb250LWZhbWlseT0ic2Fucy1zZXJpZiIgZm9udC1zaXplPSIxNCIgbGVuZ3RoQWRqdXN0PSJzcGFjaW5nIiB0ZXh0TGVuZ3RoPSIxNjUiIHg9IjI5NiIgeT0iODk1LjIxODgiPmluY3JlbWVudE51bWJlcigpOiBVbml0PC90ZXh0PjwvZz48IS0tY2xhc3MgTWFpbkNvbnRyb2xsZXItLT48ZyBpZD0iZWxlbV9NYWluQ29udHJvbGxlciI+PHJlY3QgY29kZUxpbmU9IjM5IiBmaWxsPSIjRjFGMUYxIiBoZWlnaHQ9IjYyLjk4NDQiIGlkPSJNYWluQ29udHJvbGxlciIgcng9IjIuNSIgcnk9IjIuNSIgc3R5bGU9InN0cm9rZTojMTgxODE4O3N0cm9rZS13aWR0aDowLjU7IiB3aWR0aD0iMjg3IiB4PSI0MjYiIHk9IjIyNSIvPjxlbGxpcHNlIGN4PSI1MTYuMjUiIGN5PSIyNDEiIGZpbGw9IiNBREQxQjIiIHJ4PSIxMSIgcnk9IjExIiBzdHlsZT0ic3Ryb2tlOiMxODE4MTg7c3Ryb2tlLXdpZHRoOjEuMDsiLz48cGF0aCBkPSJNNTEzLjg3NSwyNDUuMjUgTDUxMy44NzUsMjQ3IEw1MTguODEyNSwyNDcgTDUxOC44MTI1LDI0NS4yNSBMNTEzLjg3NSwyNDUuMjUgWiBNNTE0LjU2MjUsMjQ1LjkzNzUgUTUxNC41NjI1LDI0NS45Mzc1IDUxNC41NjI1LDIzNi43NSBMNTEyLjgxMjUsMjM2Ljc1IFE1MTIuODEyNSwyMzYuNzUgNTEyLjgxMjUsMjQ1LjkzNzUgTDUxNC41NjI1LDI0NS45Mzc1IFogTTUxOC4xMjUsMjQ1LjkzNzUgTDUxOS44NzUsMjQ1LjkzNzUgUTUxOS44NzUsMjQ1LjkzNzUgNTE5Ljg3NSwyNDMuMTI1IEw1MTguMTI1LDI0My4xMjUgUTUxOC4xMjUsMjQzLjEyNSA1MTguMTI1LDI0NS45Mzc1IFogTTUxOC4xMjUsMjM2Ljc1IFE1MTguMTI1LDIzNi43NSA1MTguMTI1LDIzOS41NjI1IEw1MTkuODc1LDIzOS41NjI1IFE1MTkuODc1LDIzOS41NjI1IDUxOS44NzUsMjM2Ljc1IEw1MTguMTI1LDIzNi43NSBaIE01MTMuODc1LDIzNy40Mzc1IEw1MTguODEyNSwyMzcuNDM3NSBMNTE4LjgxMjUsMjM1LjY4NzUgTDUxMy44NzUsMjM1LjY4NzUgTDUxMy44NzUsMjM3LjQzNzUgWiAiIGZpbGw9IiMwMDAwMDAiLz48dGV4dCBmaWxsPSIjMDAwMDAwIiBmb250LWZhbWlseT0ic2Fucy1zZXJpZiIgZm9udC1zaXplPSIxNCIgbGVuZ3RoQWRqdXN0PSJzcGFjaW5nIiB0ZXh0TGVuZ3RoPSI5OCIgeD0iNTM2Ljc1IiB5PSIyNDYuNzQyMiI+TWFpbkNvbnRyb2xsZXI8L3RleHQ+PGxpbmUgc3R5bGU9InN0cm9rZTojMTgxODE4O3N0cm9rZS13aWR0aDowLjU7IiB4MT0iNDI3IiB4Mj0iNzEyIiB5MT0iMjU3IiB5Mj0iMjU3Ii8+PGxpbmUgc3R5bGU9InN0cm9rZTojMTgxODE4O3N0cm9rZS13aWR0aDowLjU7IiB4MT0iNDI3IiB4Mj0iNzEyIiB5MT0iMjY1IiB5Mj0iMjY1Ii8+PGVsbGlwc2UgY3g9IjQzNyIgY3k9IjI3Ny45OTIyIiBmaWxsPSIjODRCRTg0IiByeD0iMyIgcnk9IjMiIHN0eWxlPSJzdHJva2U6IzAzODA0ODtzdHJva2Utd2lkdGg6MS4wOyIvPjx0ZXh0IGZpbGw9IiMwMDAwMDAiIGZvbnQtZmFtaWx5PSJzYW5zLXNlcmlmIiBmb250LXNpemU9IjE0IiBsZW5ndGhBZGp1c3Q9InNwYWNpbmciIHRleHRMZW5ndGg9IjI2MSIgeD0iNDQ2IiB5PSIyODIuMjM0NCI+aGFuZGxlQ2xpY2soZXZlbnQ6IEFjdGlvbkV2ZW50KTogVW5pdDwvdGV4dD48L2c+PCEtLWNsYXNzIEJhckNvbnRyb2xsZXItLT48ZyBpZD0iZWxlbV9CYXJDb250cm9sbGVyIj48cmVjdCBjb2RlTGluZT0iNDMiIGZpbGw9IiNGMUYxRjEiIGhlaWdodD0iNDgiIGlkPSJCYXJDb250cm9sbGVyIiByeD0iMi41IiByeT0iMi41IiBzdHlsZT0ic3Ryb2tlOiMxODE4MTg7c3Ryb2tlLXdpZHRoOjAuNTsiIHdpZHRoPSIxMjMiIHg9Ijc0OCIgeT0iMjMyLjUiLz48ZWxsaXBzZSBjeD0iNzYzIiBjeT0iMjQ4LjUiIGZpbGw9IiNBREQxQjIiIHJ4PSIxMSIgcnk9IjExIiBzdHlsZT0ic3Ryb2tlOiMxODE4MTg7c3Ryb2tlLXdpZHRoOjEuMDsiLz48cGF0aCBkPSJNNzYwLjYyNSwyNTIuNzUgTDc2MC42MjUsMjU0LjUgTDc2NS41NjI1LDI1NC41IEw3NjUuNTYyNSwyNTIuNzUgTDc2MC42MjUsMjUyLjc1IFogTTc2MS4zMTI1LDI1My40Mzc1IFE3NjEuMzEyNSwyNTMuNDM3NSA3NjEuMzEyNSwyNDQuMjUgTDc1OS41NjI1LDI0NC4yNSBRNzU5LjU2MjUsMjQ0LjI1IDc1OS41NjI1LDI1My40Mzc1IEw3NjEuMzEyNSwyNTMuNDM3NSBaIE03NjQuODc1LDI1My40Mzc1IEw3NjYuNjI1LDI1My40Mzc1IFE3NjYuNjI1LDI1My40Mzc1IDc2Ni42MjUsMjUwLjYyNSBMNzY0Ljg3NSwyNTAuNjI1IFE3NjQuODc1LDI1MC42MjUgNzY0Ljg3NSwyNTMuNDM3NSBaIE03NjQuODc1LDI0NC4yNSBRNzY0Ljg3NSwyNDQuMjUgNzY0Ljg3NSwyNDcuMDYyNSBMNzY2LjYyNSwyNDcuMDYyNSBRNzY2LjYyNSwyNDcuMDYyNSA3NjYuNjI1LDI0NC4yNSBMNzY0Ljg3NSwyNDQuMjUgWiBNNzYwLjYyNSwyNDQuOTM3NSBMNzY1LjU2MjUsMjQ0LjkzNzUgTDc2NS41NjI1LDI0My4xODc1IEw3NjAuNjI1LDI0My4xODc1IEw3NjAuNjI1LDI0NC45Mzc1IFogIiBmaWxsPSIjMDAwMDAwIi8+PHRleHQgZmlsbD0iIzAwMDAwMCIgZm9udC1mYW1pbHk9InNhbnMtc2VyaWYiIGZvbnQtc2l6ZT0iMTQiIGxlbmd0aEFkanVzdD0ic3BhY2luZyIgdGV4dExlbmd0aD0iOTEiIHg9Ijc3NyIgeT0iMjU0LjI0MjIiPkJhckNvbnRyb2xsZXI8L3RleHQ+PGxpbmUgc3R5bGU9InN0cm9rZTojMTgxODE4O3N0cm9rZS13aWR0aDowLjU7IiB4MT0iNzQ5IiB4Mj0iODcwIiB5MT0iMjY0LjUiIHkyPSIyNjQuNSIvPjxsaW5lIHN0eWxlPSJzdHJva2U6IzE4MTgxODtzdHJva2Utd2lkdGg6MC41OyIgeDE9Ijc0OSIgeDI9Ijg3MCIgeTE9IjI3Mi41IiB5Mj0iMjcyLjUiLz48L2c+PCEtLWNsYXNzIG1haW5NZW51Q29udHJvbGxlci0tPjxnIGlkPSJlbGVtX21haW5NZW51Q29udHJvbGxlciI+PHJlY3QgY29kZUxpbmU9IjQ2IiBmaWxsPSIjRjFGMUYxIiBoZWlnaHQ9IjQ4IiBpZD0ibWFpbk1lbnVDb250cm9sbGVyIiByeD0iMi41IiByeT0iMi41IiBzdHlsZT0ic3Ryb2tlOiMxODE4MTg7c3Ryb2tlLXdpZHRoOjAuNTsiIHdpZHRoPSIxNTkiIHg9Ijc4NyIgeT0iNyIvPjxlbGxpcHNlIGN4PSI4MDIiIGN5PSIyMyIgZmlsbD0iI0FERDFCMiIgcng9IjExIiByeT0iMTEiIHN0eWxlPSJzdHJva2U6IzE4MTgxODtzdHJva2Utd2lkdGg6MS4wOyIvPjxwYXRoIGQ9Ik03OTkuNjI1LDI3LjI1IEw3OTkuNjI1LDI5IEw4MDQuNTYyNSwyOSBMODA0LjU2MjUsMjcuMjUgTDc5OS42MjUsMjcuMjUgWiBNODAwLjMxMjUsMjcuOTM3NSBRODAwLjMxMjUsMjcuOTM3NSA4MDAuMzEyNSwxOC43NSBMNzk4LjU2MjUsMTguNzUgUTc5OC41NjI1LDE4Ljc1IDc5OC41NjI1LDI3LjkzNzUgTDgwMC4zMTI1LDI3LjkzNzUgWiBNODAzLjg3NSwyNy45Mzc1IEw4MDUuNjI1LDI3LjkzNzUgUTgwNS42MjUsMjcuOTM3NSA4MDUuNjI1LDI1LjEyNSBMODAzLjg3NSwyNS4xMjUgUTgwMy44NzUsMjUuMTI1IDgwMy44NzUsMjcuOTM3NSBaIE04MDMuODc1LDE4Ljc1IFE4MDMuODc1LDE4Ljc1IDgwMy44NzUsMjEuNTYyNSBMODA1LjYyNSwyMS41NjI1IFE4MDUuNjI1LDIxLjU2MjUgODA1LjYyNSwxOC43NSBMODAzLjg3NSwxOC43NSBaIE03OTkuNjI1LDE5LjQzNzUgTDgwNC41NjI1LDE5LjQzNzUgTDgwNC41NjI1LDE3LjY4NzUgTDc5OS42MjUsMTcuNjg3NSBMNzk5LjYyNSwxOS40Mzc1IFogIiBmaWxsPSIjMDAwMDAwIi8+PHRleHQgZmlsbD0iIzAwMDAwMCIgZm9udC1mYW1pbHk9InNhbnMtc2VyaWYiIGZvbnQtc2l6ZT0iMTQiIGxlbmd0aEFkanVzdD0ic3BhY2luZyIgdGV4dExlbmd0aD0iMTI3IiB4PSI4MTYiIHk9IjI4Ljc0MjIiPm1haW5NZW51Q29udHJvbGxlcjwvdGV4dD48bGluZSBzdHlsZT0ic3Ryb2tlOiMxODE4MTg7c3Ryb2tlLXdpZHRoOjAuNTsiIHgxPSI3ODgiIHgyPSI5NDUiIHkxPSIzOSIgeTI9IjM5Ii8+PGxpbmUgc3R5bGU9InN0cm9rZTojMTgxODE4O3N0cm9rZS13aWR0aDowLjU7IiB4MT0iNzg4IiB4Mj0iOTQ1IiB5MT0iNDciIHkyPSI0NyIvPjwvZz48IS0tY2xhc3MgQnV0dG9uLS0+PGcgaWQ9ImVsZW1fQnV0dG9uIj48cmVjdCBmaWxsPSIjRjFGMUYxIiBoZWlnaHQ9IjQ4IiBpZD0iQnV0dG9uIiByeD0iMi41IiByeT0iMi41IiBzdHlsZT0ic3Ryb2tlOiMxODE4MTg7c3Ryb2tlLXdpZHRoOjAuNTsiIHdpZHRoPSI3NCIgeD0iNzI5LjUiIHk9IjgzOCIvPjxlbGxpcHNlIGN4PSI3NDQuNSIgY3k9Ijg1NCIgZmlsbD0iI0FERDFCMiIgcng9IjExIiByeT0iMTEiIHN0eWxlPSJzdHJva2U6IzE4MTgxODtzdHJva2Utd2lkdGg6MS4wOyIvPjxwYXRoIGQ9Ik03NDIuMTI1LDg1OC4yNSBMNzQyLjEyNSw4NjAgTDc0Ny4wNjI1LDg2MCBMNzQ3LjA2MjUsODU4LjI1IEw3NDIuMTI1LDg1OC4yNSBaIE03NDIuODEyNSw4NTguOTM3NSBRNzQyLjgxMjUsODU4LjkzNzUgNzQyLjgxMjUsODQ5Ljc1IEw3NDEuMDYyNSw4NDkuNzUgUTc0MS4wNjI1LDg0OS43NSA3NDEuMDYyNSw4NTguOTM3NSBMNzQyLjgxMjUsODU4LjkzNzUgWiBNNzQ2LjM3NSw4NTguOTM3NSBMNzQ4LjEyNSw4NTguOTM3NSBRNzQ4LjEyNSw4NTguOTM3NSA3NDguMTI1LDg1Ni4xMjUgTDc0Ni4zNzUsODU2LjEyNSBRNzQ2LjM3NSw4NTYuMTI1IDc0Ni4zNzUsODU4LjkzNzUgWiBNNzQ2LjM3NSw4NDkuNzUgUTc0Ni4zNzUsODQ5Ljc1IDc0Ni4zNzUsODUyLjU2MjUgTDc0OC4xMjUsODUyLjU2MjUgUTc0OC4xMjUsODUyLjU2MjUgNzQ4LjEyNSw4NDkuNzUgTDc0Ni4zNzUsODQ5Ljc1IFogTTc0Mi4xMjUsODUwLjQzNzUgTDc0Ny4wNjI1LDg1MC40Mzc1IEw3NDcuMDYyNSw4NDguNjg3NSBMNzQyLjEyNSw4NDguNjg3NSBMNzQyLjEyNSw4NTAuNDM3NSBaICIgZmlsbD0iIzAwMDAwMCIvPjx0ZXh0IGZpbGw9IiMwMDAwMDAiIGZvbnQtZmFtaWx5PSJzYW5zLXNlcmlmIiBmb250LXNpemU9IjE0IiBsZW5ndGhBZGp1c3Q9InNwYWNpbmciIHRleHRMZW5ndGg9IjQyIiB4PSI3NTguNSIgeT0iODU5Ljc0MjIiPkJ1dHRvbjwvdGV4dD48bGluZSBzdHlsZT0ic3Ryb2tlOiMxODE4MTg7c3Ryb2tlLXdpZHRoOjAuNTsiIHgxPSI3MzAuNSIgeDI9IjgwMi41IiB5MT0iODcwIiB5Mj0iODcwIi8+PGxpbmUgc3R5bGU9InN0cm9rZTojMTgxODE4O3N0cm9rZS13aWR0aDowLjU7IiB4MT0iNzMwLjUiIHgyPSI4MDIuNSIgeTE9Ijg3OCIgeTI9Ijg3OCIvPjwvZz48IS0tbGluayBNYWluQXBwIHRvIE1haW5Db250cm9sbGVyLS0+PGcgaWQ9ImxpbmtfTWFpbkFwcF9NYWluQ29udHJvbGxlciI+PHBhdGggY29kZUxpbmU9IjQ5IiBkPSJNNzY4Ljc5LDE2MC40MiBDNzMzLjA0LDE3Ny40OCA2ODAuMzIsMjAyLjYzIDYzOC4wNywyMjIuNzkgIiBmaWxsPSJub25lIiBpZD0iTWFpbkFwcC10by1NYWluQ29udHJvbGxlciIgc3R5bGU9InN0cm9rZTojMTgxODE4O3N0cm9rZS13aWR0aDoxLjA7Ii8+PHBvbHlnb24gZmlsbD0iIzE4MTgxOCIgcG9pbnRzPSI2MzMuNSwyMjQuOTcsNjQzLjM0NTUsMjI0LjcxMiw2MzguMDE0MywyMjIuODIwMyw2MzkuOTA2LDIxNy40ODkyLDYzMy41LDIyNC45NyIgc3R5bGU9InN0cm9rZTojMTgxODE4O3N0cm9rZS13aWR0aDoxLjA7Ii8+PC9nPjwhLS1saW5rIE1haW5BcHAgdG8gQmFyQ29udHJvbGxlci0tPjxnIGlkPSJsaW5rX01haW5BcHBfQmFyQ29udHJvbGxlciI+PHBhdGggY29kZUxpbmU9IjUwIiBkPSJNNzk5LjAyLDE2NC4xNyBDNzk2LjI1LDE4Mi4zMyA3OTYuMDIsMjA3LjY4IDc5OC4zMSwyMjcuMDYgIiBmaWxsPSJub25lIiBpZD0iTWFpbkFwcC10by1CYXJDb250cm9sbGVyIiBzdHlsZT0ic3Ryb2tlOiMxODE4MTg7c3Ryb2tlLXdpZHRoOjEuMDsiLz48cG9seWdvbiBmaWxsPSIjMTgxODE4IiBwb2ludHM9Ijc5OS4wMiwyMzIuMzYsODAxLjc3NTgsMjIyLjkwNDYsNzk4LjM0ODksMjI3LjQwNTIsNzkzLjg0ODIsMjIzLjk3ODMsNzk5LjAyLDIzMi4zNiIgc3R5bGU9InN0cm9rZTojMTgxODE4O3N0cm9rZS13aWR0aDoxLjA7Ii8+PC9nPjwhLS1saW5rIEJhckNvbnRyb2xsZXIgdG8gTWFpbkFwcC0tPjxnIGlkPSJsaW5rX0JhckNvbnRyb2xsZXJfTWFpbkFwcCI+PHBhdGggY29kZUxpbmU9IjY3IiBkPSJNODIwLjU5LDIzMi4zNiBDODIzLjUzLDIxNC4yMSA4MjMuNzgsMTg4Ljg3IDgyMS4zNSwxNjkuNDcgIiBmaWxsPSJub25lIiBpZD0iQmFyQ29udHJvbGxlci10by1NYWluQXBwIiBzdHlsZT0ic3Ryb2tlOiMxODE4MTg7c3Ryb2tlLXdpZHRoOjEuMDsiLz48cG9seWdvbiBmaWxsPSIjMTgxODE4IiBwb2ludHM9IjgyMC42LDE2NC4xNyw4MTcuOTI0NSwxNzMuNjQ4NSw4MjEuMzEzMSwxNjkuMTE4OSw4MjUuODQyNywxNzIuNTA3NSw4MjAuNiwxNjQuMTciIHN0eWxlPSJzdHJva2U6IzE4MTgxODtzdHJva2Utd2lkdGg6MS4wOyIvPjwvZz48IS0tbGluayBNYWluQXBwIHRvIEpBV1NHYW1lLS0+PGcgaWQ9ImxpbmtfTWFpbkFwcF9KQVdTR2FtZSI+PHBhdGggY29kZUxpbmU9IjUxIiBkPSJNNzY4Ljg2LDE0My4yNCBDNjc2LjE3LDE0OS4yNyA0NTMuNjgsMTY5LjM3IDQwOC41LDIyNSBDMzgxLjEzLDI1OC43IDM5OC4wOCwzMTEuODIgNDEyLjgzLDM0NC4xMyAiIGZpbGw9Im5vbmUiIGlkPSJNYWluQXBwLXRvLUpBV1NHYW1lIiBzdHlsZT0ic3Ryb2tlOiMxODE4MTg7c3Ryb2tlLXdpZHRoOjEuMDsiLz48cG9seWdvbiBmaWxsPSIjMTgxODE4IiBwb2ludHM9IjQxNC45OCwzNDguNzQsNDE0Ljc5NzEsMzM4Ljg5MjgsNDEyLjg2NDgsMzQ0LjIwOTQsNDA3LjU0ODIsMzQyLjI3NzIsNDE0Ljk4LDM0OC43NCIgc3R5bGU9InN0cm9rZTojMTgxODE4O3N0cm9rZS13aWR0aDoxLjA7Ii8+PC9nPjwhLS1saW5rIEpBV1NHYW1lIHRvIFNoYXJrRmllbGQtLT48ZyBpZD0ibGlua19KQVdTR2FtZV9TaGFya0ZpZWxkIj48cGF0aCBjb2RlTGluZT0iNTMiIGQ9Ik0zODIuMTUsMzk2LjggQzM0My4zMyw0MTYuNDIgMjg2LjAyLDQ0NS42NiAyMzYuNSw0NzIgQzIyOS4xLDQ3NS45MyAyMjEuMjksNDgwLjE2IDIxMy42OSw0ODQuMzIgIiBmaWxsPSJub25lIiBpZD0iSkFXU0dhbWUtdG8tU2hhcmtGaWVsZCIgc3R5bGU9InN0cm9rZTojMTgxODE4O3N0cm9rZS13aWR0aDoxLjA7Ii8+PHBvbHlnb24gZmlsbD0iIzE4MTgxOCIgcG9pbnRzPSIyMDguOTksNDg2Ljg5LDIxOC44MDU0LDQ4Ni4wNzg1LDIxMy4zNzYyLDQ4NC40ODk3LDIxNC45NjQ5LDQ3OS4wNjA2LDIwOC45OSw0ODYuODkiIHN0eWxlPSJzdHJva2U6IzE4MTgxODtzdHJva2Utd2lkdGg6MS4wOyIvPjwvZz48IS0tbGluayBKQVdTR2FtZSB0byBDb3VudGVyLS0+PGcgaWQ9ImxpbmtfSkFXU0dhbWVfQ291bnRlciI+PHBhdGggY29kZUxpbmU9IjU0IiBkPSJNNDA5LjIsMzk3LjI2IEM0MDIuODgsNDA2LjE3IDM5Ni4yMSw0MTYuNjggMzkxLjUsNDI3IEMzODUuODIsNDM5LjQ1IDM4MS4zOSw0NTMuNjUgMzc4LjAzLDQ2Ni43NCAiIGZpbGw9Im5vbmUiIGlkPSJKQVdTR2FtZS10by1Db3VudGVyIiBzdHlsZT0ic3Ryb2tlOiMxODE4MTg7c3Ryb2tlLXdpZHRoOjEuMDsiLz48cG9seWdvbiBmaWxsPSIjMTgxODE4IiBwb2ludHM9IjM3Ni43NSw0NzEuODgsMzgyLjc5MTksNDY0LjEwMjEsMzc3Ljk0OTIsNDY3LjAyNTksMzc1LjAyNTQsNDYyLjE4MzMsMzc2Ljc1LDQ3MS44OCIgc3R5bGU9InN0cm9rZTojMTgxODE4O3N0cm9rZS13aWR0aDoxLjA7Ii8+PC9nPjwhLS1saW5rIENvdW50ZXIgdG8gSkFXU0dhbWUtLT48ZyBpZD0ibGlua19Db3VudGVyX0pBV1NHYW1lIj48cGF0aCBjb2RlTGluZT0iNzciIGQ9Ik0zODUuNzYsNDcxLjg4IEMzOTYuMDIsNDQ3LjgyIDQwOC45Myw0MTcuNTMgNDE3LjY2LDM5Ny4wNyAiIGZpbGw9Im5vbmUiIGlkPSJDb3VudGVyLUpBV1NHYW1lIiBzdHlsZT0ic3Ryb2tlOiMxODE4MTg7c3Ryb2tlLXdpZHRoOjEuMDsiLz48dGV4dCBmaWxsPSIjMDAwMDAwIiBmb250LWZhbWlseT0ic2Fucy1zZXJpZiIgZm9udC1zaXplPSIxMyIgbGVuZ3RoQWRqdXN0PSJzcGFjaW5nIiB0ZXh0TGVuZ3RoPSI2OCIgeD0iNDA1LjUiIHk9IjQ0MC4yODkxIj5iZWxvbmdzIHRvPC90ZXh0Pjx0ZXh0IGZpbGw9IiMwMDAwMDAiIGZvbnQtZmFtaWx5PSJzYW5zLXNlcmlmIiBmb250LXNpemU9IjEzIiBsZW5ndGhBZGp1c3Q9InNwYWNpbmciIHRleHRMZW5ndGg9IjciIHg9IjM4MS4yNzIxIiB5PSI0NjIuMjgwNyI+MTwvdGV4dD48dGV4dCBmaWxsPSIjMDAwMDAwIiBmb250LWZhbWlseT0ic2Fucy1zZXJpZiIgZm9udC1zaXplPSIxMyIgbGVuZ3RoQWRqdXN0PSJzcGFjaW5nIiB0ZXh0TGVuZ3RoPSIyNiIgeD0iMzg1LjgwNzMiIHk9IjQxNy4zMDk3Ij4wLi4xPC90ZXh0PjwvZz48IS0tbGluayBKQVdTR2FtZSB0byBUaW1lQ291bnRlci0tPjxnIGlkPSJsaW5rX0pBV1NHYW1lX1RpbWVDb3VudGVyIj48cGF0aCBjb2RlTGluZT0iNTUiIGQ9Ik00NTUuNjksMzk3LjIyIEM0NjUuMDQsNDA1Ljg5IDQ3NC45Nyw0MTYuMjUgNDgyLjUsNDI3IEM1MjIuMzIsNDgzLjg0IDUzNC42NCw1NjMuNjUgNTM4LjA1LDYxOS41MSAiIGZpbGw9Im5vbmUiIGlkPSJKQVdTR2FtZS10by1UaW1lQ291bnRlciIgc3R5bGU9InN0cm9rZTojMTgxODE4O3N0cm9rZS13aWR0aDoxLjA7Ii8+PHBvbHlnb24gZmlsbD0iIzE4MTgxOCIgcG9pbnRzPSI1MzguMzUsNjI0Ljg0LDU0MS44Myw2MTUuNjI2NSw1MzguMDY0OCw2MTkuODQ4MSw1MzMuODQzMSw2MTYuMDgyOSw1MzguMzUsNjI0Ljg0IiBzdHlsZT0ic3Ryb2tlOiMxODE4MTg7c3Ryb2tlLXdpZHRoOjEuMDsiLz48L2c+PCEtLWxpbmsgVGltZUNvdW50ZXIgdG8gSkFXU0dhbWUtLT48ZyBpZD0ibGlua19UaW1lQ291bnRlcl9KQVdTR2FtZSI+PHBhdGggY29kZUxpbmU9Ijc4IiBkPSJNNTU2LjE4LDYyNC41NiBDNTU4LjM5LDYxNC43NSA1NjAuMjksNjA0LjY1IDU2MS41LDU5NSBDNTY4LjM1LDU0MC4yNCA1NjQuOTUsNTIzLjI2IDU0NC41LDQ3MiBDNTM1LjUsNDQ5LjQ0IDUzMS4xLDQ0My43MyA1MTMuNSw0MjcgQzUwMS41NSw0MTUuNjQgNDg2Ljc4LDQwNS40OCA0NzIuODcsMzk3LjE3ICIgZmlsbD0ibm9uZSIgaWQ9IlRpbWVDb3VudGVyLUpBV1NHYW1lIiBzdHlsZT0ic3Ryb2tlOiMxODE4MTg7c3Ryb2tlLXdpZHRoOjEuMDsiLz48dGV4dCBmaWxsPSIjMDAwMDAwIiBmb250LWZhbWlseT0ic2Fucy1zZXJpZiIgZm9udC1zaXplPSIxMyIgbGVuZ3RoQWRqdXN0PSJzcGFjaW5nIiB0ZXh0TGVuZ3RoPSI2OCIgeD0iNTY2LjUiIHk9IjUxNi43ODkxIj5iZWxvbmdzIHRvPC90ZXh0Pjx0ZXh0IGZpbGw9IiMwMDAwMDAiIGZvbnQtZmFtaWx5PSJzYW5zLXNlcmlmIiBmb250LXNpemU9IjEzIiBsZW5ndGhBZGp1c3Q9InNwYWNpbmciIHRleHRMZW5ndGg9IjciIHg9IjU1MC45MDgyIiB5PSI2MTUuNTY4NCI+MTwvdGV4dD48dGV4dCBmaWxsPSIjMDAwMDAwIiBmb250LWZhbWlseT0ic2Fucy1zZXJpZiIgZm9udC1zaXplPSIxMyIgbGVuZ3RoQWRqdXN0PSJzcGFjaW5nIiB0ZXh0TGVuZ3RoPSIyNiIgeD0iNDU1LjE2NDgiIHk9IjQxNy40MzU0Ij4wLi4xPC90ZXh0PjwvZz48IS0tbGluayBTaGFya0ZpZWxkIHRvIFRpbGUtLT48ZyBpZD0ibGlua19TaGFya0ZpZWxkX1RpbGUiPjxwYXRoIGNvZGVMaW5lPSI1NyIgZD0iTTE2MS4zLDUzNS4yOSBDMTU3LjgzLDU1Mi4xNCAxNTUuMTYsNTc1LjMyIDE2MC41LDU5NSBDMTY1LjA0LDYxMS43MiAxNzMuNTIsNjI4LjUyIDE4Mi40LDY0My4wMiAiIGZpbGw9Im5vbmUiIGlkPSJTaGFya0ZpZWxkLXRvLVRpbGUiIHN0eWxlPSJzdHJva2U6IzE4MTgxODtzdHJva2Utd2lkdGg6MS4wOyIvPjxwb2x5Z29uIGZpbGw9IiMxODE4MTgiIHBvaW50cz0iMTg1LjE2LDY0Ny40NCwxODMuNzk2OCw2MzcuNjg1OSwxODIuNTE2NCw2NDMuMTk2LDE3Ny4wMDY0LDY0MS45MTU3LDE4NS4xNiw2NDcuNDQiIHN0eWxlPSJzdHJva2U6IzE4MTgxODtzdHJva2Utd2lkdGg6MS4wOyIvPjwvZz48IS0tbGluayBUaWxlIHRvIFNoYXJrRmllbGQtLT48ZyBpZD0ibGlua19UaWxlX1NoYXJrRmllbGQiPjxwYXRoIGNvZGVMaW5lPSI3MCIgZD0iTTI0My4xNyw2NDcuMjIgQzI1NS4xNyw2MjYuODkgMjY0LDYwMS42OSAyNTMuNSw1ODAgQzI0NS4yNCw1NjIuOTMgMjMwLjM4LDU0OC44NSAyMTUuMzEsNTM4LjAxICIgZmlsbD0ibm9uZSIgaWQ9IlRpbGUtdG8tU2hhcmtGaWVsZCIgc3R5bGU9InN0cm9rZTojMTgxODE4O3N0cm9rZS13aWR0aDoxLjA7Ii8+PHBvbHlnb24gZmlsbD0iIzE4MTgxOCIgcG9pbnRzPSIyMTEuMDYsNTM1LjA0LDIxNi4xNTcsNTQzLjQ2NzQsMjE1LjE2MjIsNTM3Ljg5ODcsMjIwLjczMDksNTM2LjkwMzksMjExLjA2LDUzNS4wNCIgc3R5bGU9InN0cm9rZTojMTgxODE4O3N0cm9rZS13aWR0aDoxLjA7Ii8+PHRleHQgZmlsbD0iIzAwMDAwMCIgZm9udC1mYW1pbHk9InNhbnMtc2VyaWYiIGZvbnQtc2l6ZT0iMTMiIGxlbmd0aEFkanVzdD0ic3BhY2luZyIgdGV4dExlbmd0aD0iNTQiIHg9IjI1OS41IiB5PSI1OTMuMjg5MSI+Y29udGFpbnM8L3RleHQ+PHRleHQgZmlsbD0iIzAwMDAwMCIgZm9udC1mYW1pbHk9InNhbnMtc2VyaWYiIGZvbnQtc2l6ZT0iMTMiIGxlbmd0aEFkanVzdD0ic3BhY2luZyIgdGV4dExlbmd0aD0iNyIgeD0iMjQxLjE1ODciIHk9IjYzNy44NzI0Ij4xPC90ZXh0Pjx0ZXh0IGZpbGw9IiMwMDAwMDAiIGZvbnQtZmFtaWx5PSJzYW5zLXNlcmlmIiBmb250LXNpemU9IjEzIiBsZW5ndGhBZGp1c3Q9InNwYWNpbmciIHRleHRMZW5ndGg9IjI1IiB4PSIxOTQuMDE5MSIgeT0iNTU1LjI3MjEiPjEuLio8L3RleHQ+PC9nPjwhLS1saW5rIFNoYXJrRmllbGQgdG8gVGlsZS0tPjxnIGlkPSJsaW5rX1NoYXJrRmllbGRfVGlsZSI+PHBhdGggY29kZUxpbmU9IjgwIiBkPSJNMTczLjYxLDUzNS4wNCBDMTgwLjg1LDU2Mi4zNiAxOTMuMDgsNjA4LjQ4IDIwMi4wOSw2NDIuNDcgIiBmaWxsPSJub25lIiBpZD0iU2hhcmtGaWVsZC10by1UaWxlLTEiIHN0eWxlPSJzdHJva2U6IzE4MTgxODtzdHJva2Utd2lkdGg6MS4wOyIvPjxwb2x5Z29uIGZpbGw9IiMxODE4MTgiIHBvaW50cz0iMjAzLjQsNjQ3LjQsMjA0Ljk1NjcsNjM3LjY3NDksMjAyLjExNyw2NDIuNTY3NCwxOTcuMjI0NSw2MzkuNzI3NywyMDMuNCw2NDcuNCIgc3R5bGU9InN0cm9rZTojMTgxODE4O3N0cm9rZS13aWR0aDoxLjA7Ii8+PHRleHQgZmlsbD0iIzAwMDAwMCIgZm9udC1mYW1pbHk9InNhbnMtc2VyaWYiIGZvbnQtc2l6ZT0iMTMiIGxlbmd0aEFkanVzdD0ic3BhY2luZyIgdGV4dExlbmd0aD0iNTQiIHg9IjE5MC41IiB5PSI1OTMuMjg5MSI+Y29udGFpbnM8L3RleHQ+PHRleHQgZmlsbD0iIzAwMDAwMCIgZm9udC1mYW1pbHk9InNhbnMtc2VyaWYiIGZvbnQtc2l6ZT0iMTMiIGxlbmd0aEFkanVzdD0ic3BhY2luZyIgdGV4dExlbmd0aD0iNyIgeD0iMTY3LjI3ODgiIHk9IjU1NS4yNzIxIj4xPC90ZXh0Pjx0ZXh0IGZpbGw9IiMwMDAwMDAiIGZvbnQtZmFtaWx5PSJzYW5zLXNlcmlmIiBmb250LXNpemU9IjEzIiBsZW5ndGhBZGp1c3Q9InNwYWNpbmciIHRleHRMZW5ndGg9IjI1IiB4PSIxNzMuOTUwNiIgeT0iNjM3LjgwNDYiPjEuLio8L3RleHQ+PC9nPjwhLS1yZXZlcnNlIGxpbmsgQ291bnRlciB0byBUaW1lQ291bnRlci0tPjxnIGlkPSJsaW5rX0NvdW50ZXJfVGltZUNvdW50ZXIiPjxwYXRoIGNvZGVMaW5lPSI1OSIgZD0iTTQyMC43Niw1NjQuNjMgQzQzOS4yMSw1ODMuNTcgNDYwLjE4LDYwNS4wOSA0NzkuMjUsNjI0LjY3ICIgZmlsbD0ibm9uZSIgaWQ9IkNvdW50ZXItYmFja3RvLVRpbWVDb3VudGVyIiBzdHlsZT0ic3Ryb2tlOiMxODE4MTg7c3Ryb2tlLXdpZHRoOjEuMDsiLz48cG9seWdvbiBmaWxsPSJub25lIiBwb2ludHM9IjQxNS41Myw1NjkuMjksNDA2LjU5LDU1MC4wOCw0MjUuNTYsNTU5LjUyLDQxNS41Myw1NjkuMjkiIHN0eWxlPSJzdHJva2U6IzE4MTgxODtzdHJva2Utd2lkdGg6MS4wOyIvPjwvZz48IS0tcmV2ZXJzZSBsaW5rIFRpbGUgdG8gU2hhcmtUaWxlLS0+PGcgaWQ9ImxpbmtfVGlsZV9TaGFya1RpbGUiPjxwYXRoIGNvZGVMaW5lPSI2MSIgZD0iTTExNy4yNCw3MzcgQzEwMS40Nyw3NDguNjUgODYuNjcsNzYyLjMzIDc1LjUsNzc4IEM2Mi45MSw3OTUuNjcgNTcuODUsODIwLjE4IDU1LjgyLDgzNy45OSAiIGZpbGw9Im5vbmUiIGlkPSJUaWxlLWJhY2t0by1TaGFya1RpbGUiIHN0eWxlPSJzdHJva2U6IzE4MTgxODtzdHJva2Utd2lkdGg6MS4wOyIvPjxwb2x5Z29uIGZpbGw9Im5vbmUiIHBvaW50cz0iMTEzLjQ1LDczMS4xMSwxMzMuOTEsNzI1LjU5LDEyMS4zNiw3NDIuNjYsMTEzLjQ1LDczMS4xMSIgc3R5bGU9InN0cm9rZTojMTgxODE4O3N0cm9rZS13aWR0aDoxLjA7Ii8+PC9nPjwhLS1saW5rIFRpbGUgdG8gU2hhcmtUaWxlLS0+PGcgaWQ9ImxpbmtfVGlsZV9TaGFya1RpbGUiPjxwYXRoIGNvZGVMaW5lPSI3MyIgZD0iTTE3OC42MSw3MjUuNTggQzE0Ny4xNiw3NTkuODkgMTAxLjk1LDgwOS4yMyA3NS42Niw4MzcuOTEgIiBmaWxsPSJub25lIiBpZD0iVGlsZS1TaGFya1RpbGUiIHN0eWxlPSJzdHJva2U6IzE4MTgxODtzdHJva2Utd2lkdGg6MS4wOyIvPjx0ZXh0IGZpbGw9IiMwMDAwMDAiIGZvbnQtZmFtaWx5PSJzYW5zLXNlcmlmIiBmb250LXNpemU9IjEzIiBsZW5ndGhBZGp1c3Q9InNwYWNpbmciIHRleHRMZW5ndGg9IjQ4IiB4PSIxMzAuNSIgeT0iNzkxLjI4OTEiPmNyZWF0ZXM8L3RleHQ+PHRleHQgZmlsbD0iIzAwMDAwMCIgZm9udC1mYW1pbHk9InNhbnMtc2VyaWYiIGZvbnQtc2l6ZT0iMTMiIGxlbmd0aEFkanVzdD0ic3BhY2luZyIgdGV4dExlbmd0aD0iNyIgeD0iMTY1LjAxMTciIHk9Ijc0NS43ODQ0Ij4xPC90ZXh0Pjx0ZXh0IGZpbGw9IiMwMDAwMDAiIGZvbnQtZmFtaWx5PSJzYW5zLXNlcmlmIiBmb250LXNpemU9IjEzIiBsZW5ndGhBZGp1c3Q9InNwYWNpbmciIHRleHRMZW5ndGg9IjI2IiB4PSI1Mi4wNTciIHk9IjgyOC4zNDc1Ij4wLi4xPC90ZXh0PjwvZz48IS0tcmV2ZXJzZSBsaW5rIFRpbGUgdG8gVmFjYW50VGlsZS0tPjxnIGlkPSJsaW5rX1RpbGVfVmFjYW50VGlsZSI+PHBhdGggY29kZUxpbmU9IjYyIiBkPSJNMjA1LjQ0LDc0NS43NyBDMjAxLjA4LDc3Ny4zMSAxOTUuOTMsODE0LjQ5IDE5Mi42OSw4MzcuOTEgIiBmaWxsPSJub25lIiBpZD0iVGlsZS1iYWNrdG8tVmFjYW50VGlsZSIgc3R5bGU9InN0cm9rZTojMTgxODE4O3N0cm9rZS13aWR0aDoxLjA7Ii8+PHBvbHlnb24gZmlsbD0ibm9uZSIgcG9pbnRzPSIxOTguNTYsNzQ0LjQzLDIwOC4yMyw3MjUuNTgsMjEyLjQzLDc0Ni4zNSwxOTguNTYsNzQ0LjQzIiBzdHlsZT0ic3Ryb2tlOiMxODE4MTg7c3Ryb2tlLXdpZHRoOjEuMDsiLz48L2c+PCEtLWxpbmsgVGlsZSB0byBWYWNhbnRUaWxlLS0+PGcgaWQ9ImxpbmtfVGlsZV9WYWNhbnRUaWxlIj48cGF0aCBjb2RlTGluZT0iNzQiIGQ9Ik0yMTAuODgsNzI1LjcxIEMyMDkuMjUsNzQ1LjggMjA2LjgzLDc3MC44IDIwMy41LDc5MyBDMjAxLjI1LDgwOC4wMiAxOTcuODIsODI0LjczIDE5NC45Miw4MzcuODIgIiBmaWxsPSJub25lIiBpZD0iVGlsZS1WYWNhbnRUaWxlIiBzdHlsZT0ic3Ryb2tlOiMxODE4MTg7c3Ryb2tlLXdpZHRoOjEuMDsiLz48dGV4dCBmaWxsPSIjMDAwMDAwIiBmb250LWZhbWlseT0ic2Fucy1zZXJpZiIgZm9udC1zaXplPSIxMyIgbGVuZ3RoQWRqdXN0PSJzcGFjaW5nIiB0ZXh0TGVuZ3RoPSI0OCIgeD0iMjA2LjUiIHk9Ijc5MS4yODkxIj5jcmVhdGVzPC90ZXh0Pjx0ZXh0IGZpbGw9IiMwMDAwMDAiIGZvbnQtZmFtaWx5PSJzYW5zLXNlcmlmIiBmb250LXNpemU9IjEzIiBsZW5ndGhBZGp1c3Q9InNwYWNpbmciIHRleHRMZW5ndGg9IjciIHg9IjIwMi44NjY0IiB5PSI3NDUuNjQ4MSI+MTwvdGV4dD48dGV4dCBmaWxsPSIjMDAwMDAwIiBmb250LWZhbWlseT0ic2Fucy1zZXJpZiIgZm9udC1zaXplPSIxMyIgbGVuZ3RoQWRqdXN0PSJzcGFjaW5nIiB0ZXh0TGVuZ3RoPSIyNiIgeD0iMTY2LjY5MzQiIHk9IjgyOC4yMzExIj4wLi4xPC90ZXh0PjwvZz48IS0tcmV2ZXJzZSBsaW5rIFRpbGUgdG8gTnVtYmVyT2ZUaWxlLS0+PGcgaWQ9ImxpbmtfVGlsZV9OdW1iZXJPZlRpbGUiPjxwYXRoIGNvZGVMaW5lPSI2MyIgZD0iTTI2MS43OSw3NDAuNTMgQzI4NS45NSw3NjcuMDYgMzE0LjY1LDc5OC41NyAzMzYuNjMsODIyLjcxICIgZmlsbD0ibm9uZSIgaWQ9IlRpbGUtYmFja3RvLU51bWJlck9mVGlsZSIgc3R5bGU9InN0cm9rZTojMTgxODE4O3N0cm9rZS13aWR0aDoxLjA7Ii8+PHBvbHlnb24gZmlsbD0ibm9uZSIgcG9pbnRzPSIyNTYuNDYsNzQ1LjA4LDI0OC4xNyw3MjUuNTgsMjY2LjgyLDczNS42NSwyNTYuNDYsNzQ1LjA4IiBzdHlsZT0ic3Ryb2tlOiMxODE4MTg7c3Ryb2tlLXdpZHRoOjEuMDsiLz48L2c+PCEtLWxpbmsgVGlsZSB0byBOdW1iZXJPZlRpbGUtLT48ZyBpZD0ibGlua19UaWxlX051bWJlck9mVGlsZSI+PHBhdGggY29kZUxpbmU9Ijc1IiBkPSJNMjcxLjUzLDcyNS41NSBDMjkxLjIyLDc0MC4zMyAzMTIuMzEsNzU4LjQyIDMyOC41LDc3OCBDMzM5LjU3LDc5MS4zOCAzNDguODksODA4LjA4IDM1Niw4MjIuOTggIiBmaWxsPSJub25lIiBpZD0iVGlsZS1OdW1iZXJPZlRpbGUiIHN0eWxlPSJzdHJva2U6IzE4MTgxODtzdHJva2Utd2lkdGg6MS4wOyIvPjx0ZXh0IGZpbGw9IiMwMDAwMDAiIGZvbnQtZmFtaWx5PSJzYW5zLXNlcmlmIiBmb250LXNpemU9IjEzIiBsZW5ndGhBZGp1c3Q9InNwYWNpbmciIHRleHRMZW5ndGg9IjQ4IiB4PSIzNDAuNSIgeT0iNzkxLjI4OTEiPmNyZWF0ZXM8L3RleHQ+PHRleHQgZmlsbD0iIzAwMDAwMCIgZm9udC1mYW1pbHk9InNhbnMtc2VyaWYiIGZvbnQtc2l6ZT0iMTMiIGxlbmd0aEFkanVzdD0ic3BhY2luZyIgdGV4dExlbmd0aD0iNyIgeD0iMjczLjkwMjMiIHk9Ijc0NS43NDkyIj4xPC90ZXh0Pjx0ZXh0IGZpbGw9IiMwMDAwMDAiIGZvbnQtZmFtaWx5PSJzYW5zLXNlcmlmIiBmb250LXNpemU9IjEzIiBsZW5ndGhBZGp1c3Q9InNwYWNpbmciIHRleHRMZW5ndGg9IjI2IiB4PSIzMjQuMzg5MSIgeT0iODEzLjQwMDQiPjAuLjE8L3RleHQ+PC9nPjwhLS1saW5rIE1haW5Db250cm9sbGVyIHRvIEpBV1NHYW1lLS0+PGcgaWQ9ImxpbmtfTWFpbkNvbnRyb2xsZXJfSkFXU0dhbWUiPjxwYXRoIGNvZGVMaW5lPSI2NSIgZD0iTTUzMS40NSwyODguMTggQzUwOS4yNywzMDYuMDcgNDgxLjU3LDMyOC40IDQ2MC4zNSwzNDUuNTEgIiBmaWxsPSJub25lIiBpZD0iTWFpbkNvbnRyb2xsZXItdG8tSkFXU0dhbWUiIHN0eWxlPSJzdHJva2U6IzE4MTgxODtzdHJva2Utd2lkdGg6MS4wOyIvPjxwb2x5Z29uIGZpbGw9IiMxODE4MTgiIHBvaW50cz0iNDU2LjE5LDM0OC44Niw0NjUuNzEzMiwzNDYuMzQ4NSw0NjAuMDkwMiwzNDUuNzMxMyw0NjAuNzA3MywzNDAuMTA4Miw0NTYuMTksMzQ4Ljg2IiBzdHlsZT0ic3Ryb2tlOiMxODE4MTg7c3Ryb2tlLXdpZHRoOjEuMDsiLz48L2c+PCEtLWxpbmsgbWFpbk1lbnVDb250cm9sbGVyIHRvIE1haW5BcHAtLT48ZyBpZD0ibGlua19tYWluTWVudUNvbnRyb2xsZXJfTWFpbkFwcCI+PHBhdGggY29kZUxpbmU9IjY4IiBkPSJNODU0LjEzLDU1LjIyIEM4NDUuMzksNzEuNjIgODMzLjY0LDkzLjY5IDgyNC4zOCwxMTEuMDYgIiBmaWxsPSJub25lIiBpZD0ibWFpbk1lbnVDb250cm9sbGVyLXRvLU1haW5BcHAiIHN0eWxlPSJzdHJva2U6IzE4MTgxODtzdHJva2Utd2lkdGg6MS4wOyIvPjxwb2x5Z29uIGZpbGw9IiMxODE4MTgiIHBvaW50cz0iODIxLjg0LDExNS44Myw4MjkuNjA3OCwxMDkuNzc1MSw4MjQuMTk1MiwxMTEuNDE5NCw4MjIuNTUwOCwxMDYuMDA2OCw4MjEuODQsMTE1LjgzIiBzdHlsZT0ic3Ryb2tlOiMxODE4MTg7c3Ryb2tlLXdpZHRoOjEuMDsiLz48L2c+PCEtLXJldmVyc2UgbGluayBUaWxlIHRvIEJ1dHRvbi0tPjxnIGlkPSJsaW5rX1RpbGVfQnV0dG9uIj48cGF0aCBjb2RlTGluZT0iNzIiIGQ9Ik0zMzQuNTksNzMyLjM4IEMzNDkuOTksNzM3Ljc5IDM2NS41OCw3NDMuMTIgMzgwLjUsNzQ4IEM1MDcuNDIsNzg5LjUyIDY2MC4xNCw4MzIuMDcgNzI5LjI3LDg1MC45NCAiIGZpbGw9Im5vbmUiIGlkPSJUaWxlLWJhY2t0by1CdXR0b24iIHN0eWxlPSJzdHJva2U6IzE4MTgxODtzdHJva2Utd2lkdGg6MS4wOyIvPjxwb2x5Z29uIGZpbGw9Im5vbmUiIHBvaW50cz0iMzMyLjEsNzM4LjkyLDMxNS42LDcyNS42NCwzMzYuNzksNzI1LjczLDMzMi4xLDczOC45MiIgc3R5bGU9InN0cm9rZTojMTgxODE4O3N0cm9rZS13aWR0aDoxLjA7Ii8+PC9nPjwhLS1saW5rIE1haW5Db250cm9sbGVyIHRvIEJ1dHRvbi0tPjxnIGlkPSJsaW5rX01haW5Db250cm9sbGVyX0J1dHRvbiI+PHBhdGggY29kZUxpbmU9IjgyIiBkPSJNNjk3LjMyLDI4OC4wMiBDNzM1LjA3LDMwNS4xNSA3NjYuNSwzMzEuNTUgNzY2LjUsMzcyIEM3NjYuNSwzNzIgNzY2LjUsMzcyIDc2Ni41LDY4Ny41IEM3NjYuNSw3MzguNjggNzY2LjUsNzk4LjM1IDc2Ni41LDgzMi43ICIgZmlsbD0ibm9uZSIgaWQ9Ik1haW5Db250cm9sbGVyLXRvLUJ1dHRvbiIgc3R5bGU9InN0cm9rZTojMTgxODE4O3N0cm9rZS13aWR0aDoxLjA7Ii8+PHBvbHlnb24gZmlsbD0iIzE4MTgxOCIgcG9pbnRzPSI3NjYuNSw4MzcuOTksNzcwLjUsODI4Ljk5LDc2Ni41LDgzMi45OSw3NjIuNSw4MjguOTksNzY2LjUsODM3Ljk5IiBzdHlsZT0ic3Ryb2tlOiMxODE4MTg7c3Ryb2tlLXdpZHRoOjEuMDsiLz48dGV4dCBmaWxsPSIjMDAwMDAwIiBmb250LWZhbWlseT0ic2Fucy1zZXJpZiIgZm9udC1zaXplPSIxMyIgbGVuZ3RoQWRqdXN0PSJzcGFjaW5nIiB0ZXh0TGVuZ3RoPSI0OCIgeD0iNzY3LjUiIHk9IjUxNi43ODkxIj5oYW5kbGVzPC90ZXh0Pjx0ZXh0IGZpbGw9IiMwMDAwMDAiIGZvbnQtZmFtaWx5PSJzYW5zLXNlcmlmIiBmb250LXNpemU9IjEzIiBsZW5ndGhBZGp1c3Q9InNwYWNpbmciIHRleHRMZW5ndGg9IjciIHg9IjcxNS45NjEiIHk9IjMwOC4yNDY2Ij4xPC90ZXh0Pjx0ZXh0IGZpbGw9IiMwMDAwMDAiIGZvbnQtZmFtaWx5PSJzYW5zLXNlcmlmIiBmb250LXNpemU9IjEzIiBsZW5ndGhBZGp1c3Q9InNwYWNpbmciIHRleHRMZW5ndGg9IjI1IiB4PSI3MzcuODI4MSIgeT0iODI4LjQ1MSI+MS4uKjwvdGV4dD48L2c+PCEtLWxpbmsgbWFpbk1lbnVDb250cm9sbGVyIHRvIEJ1dHRvbi0tPjxnIGlkPSJsaW5rX21haW5NZW51Q29udHJvbGxlcl9CdXR0b24iPjxwYXRoIGNvZGVMaW5lPSI4MyIgZD0iTTg4Ny43Nyw1NS4xMyBDOTA0LjMyLDc1LjYgOTI0LjUsMTA3LjA5IDkyNC41LDEzOSBDOTI0LjUsMTM5IDkyNC41LDEzOSA5MjQuNSw2ODcuNSBDOTI0LjUsNzU2Ljc2IDg1NC44MSw4MTAuNTUgODA4LDgzOC44NyAiIGZpbGw9Im5vbmUiIGlkPSJtYWluTWVudUNvbnRyb2xsZXItdG8tQnV0dG9uIiBzdHlsZT0ic3Ryb2tlOiMxODE4MTg7c3Ryb2tlLXdpZHRoOjEuMDsiLz48cG9seWdvbiBmaWxsPSIjMTgxODE4IiBwb2ludHM9IjgwMy41NCw4NDEuNTMsODEzLjMxODMsODQwLjM1MzUsODA3LjgzMzgsODM4Ljk2ODEsODA5LjIxOTIsODMzLjQ4MzUsODAzLjU0LDg0MS41MyIgc3R5bGU9InN0cm9rZTojMTgxODE4O3N0cm9rZS13aWR0aDoxLjA7Ii8+PHRleHQgZmlsbD0iIzAwMDAwMCIgZm9udC1mYW1pbHk9InNhbnMtc2VyaWYiIGZvbnQtc2l6ZT0iMTMiIGxlbmd0aEFkanVzdD0ic3BhY2luZyIgdGV4dExlbmd0aD0iNDgiIHg9IjkyNS41IiB5PSIzNzguNzg5MSI+aGFuZGxlczwvdGV4dD48dGV4dCBmaWxsPSIjMDAwMDAwIiBmb250LWZhbWlseT0ic2Fucy1zZXJpZiIgZm9udC1zaXplPSIxMyIgbGVuZ3RoQWRqdXN0PSJzcGFjaW5nIiB0ZXh0TGVuZ3RoPSI3IiB4PSI4ODUuMzIzNiIgeT0iNzUuMzg1MSI+MTwvdGV4dD48dGV4dCBmaWxsPSIjMDAwMDAwIiBmb250LWZhbWlseT0ic2Fucy1zZXJpZiIgZm9udC1zaXplPSIxMyIgbGVuZ3RoQWRqdXN0PSJzcGFjaW5nIiB0ZXh0TGVuZ3RoPSIyNSIgeD0iODExLjQzNTQiIHk9IjgzNi41OTM2Ij4xLi4qPC90ZXh0PjwvZz48IS0tU1JDPVtaTEhESi1DbTRCdHhMcld2YktNZnczTFFoVEhNVzQxeTdCaEJkYXF3Mm5SRUVCOGRJMFpzbHdfWlY4dEpRazdJQTZfVWw4cFZGQlNxb2RqdmdwSWt3cmctWXh6MmIxNndObF9VTlFlQUVCUHhMa3hiR2VGUFN0SGg2b0htMFA4b2JzTnR6ZzFDMHVNeUdXaGVnVG5oTm5scmpjTjVuS2FYVC1HcUZhcklGdEs1ZHlsYmFZUFVzLUFBc0VjLXlBY011S2F2T2Z6UTZGSzhmZjB0eElER1Z3NmNkY1hocFhqZ1I1dTNfUTNRUnVxa05zMVZvOHNyMVhINjJMaTNqZ201WFB6REdzR240RUJwRzJ0UXNxa0V1OENnNVQ4U2xNa2dIdDN0VnpXMDZBNzlTZXNiV21nR0VreFh5RXRJam5SOU1NRHdscV9iaXlBeldOWUsxUm82eGFBa0l6OE1wemtOMHVzRFNlZDRNQVkyLTJyV0N3eUVJU2xwN3hDMWFiQVljckk2TjBlbjloSTVmc1ljVUItdzU2R3g1T0E1a2drUGUzczR5Rmo3ZGdWcXc3WTRudEtuUkRlTTBfY29FV1VPQS1jUEtaeTdheUJQbkg1M1VSZHhOQlJBOGZnamJpamw2Ui1sSFJYOUk4N2ktSDZ3OEY5VWNQcWpid2tDUEo1cUViMDRfWFlEZlZFX2wySWw0dEZxRU1NRm9vZmFrOTRNZHhtYUFfWVZtclZ1VkJDcE91T25IYWpjSXZkSEV2ajJHdFN4X0I1YlZEQm8zbTAwXS0tPjwvZz48L3N2Zz4=;" vertex="1" parent="WIyWlLk6GJQsqaUBKTNV-1">
            <mxGeometry x="2130" y="-600" width="981" height="907" as="geometry" />
          </mxCell>
        </UserObject>
      </root>
    </mxGraphModel>
  </diagram>
</mxfile>
